<svg width="1366" height="762" viewBox="0 0 1366 762" fill="none" xmlns="http://www.w3.org/2000/svg">
<mask id="mask0" mask-type="alpha" maskUnits="userSpaceOnUse" x="0" y="0" width="1366" height="762">
<rect width="1366" height="762" fill="white"/>
</mask>
<g mask="url(#mask0)">
<path d="M635.995 90.4898C599.977 27.2525 694.357 -13.519 746.049 -26H1409.38C1431.89 146.423 1457.3 523.998 1378.86 654.911C1280.81 818.551 1120.73 700.212 1071.71 675.712L1071.1 675.408C1022.01 650.874 940.524 610.148 790.571 628.562C639.997 647.052 648.001 453.827 746.049 323.932C844.098 194.036 681.017 169.536 635.995 90.4898Z" fill="url(#paint0_linear)"/>
<path d="M1197.2 675.704C1252.01 720.123 1391.74 715.034 1375.73 625.268C1277.38 543.678 1100.78 358.656 1181.19 271.297C1261.61 183.938 1210.37 34.6994 1174.69 -29H884.634C889.802 -16.9696 907.338 23.471 936.144 88.9904C972.151 170.89 787.615 442.962 943.646 504.964C1099.68 566.967 1128.68 620.179 1197.2 675.704Z" fill="url(#paint1_linear)" fill-opacity="0.5"/>
<path d="M1271 433.5C1199 320.7 1315.33 146.833 1382.5 74L1399.5 588.5C1386.67 583.833 1343 546.3 1271 433.5Z" fill="#FE5A2D" fill-opacity="0.4"/>
<path d="M1154.36 141.5L1109.36 252L1094.86 236.5L1137.36 120H1213.86L1226.36 138L1223.36 141.5L1151.6 138L1154.36 141.5Z" fill="#FFB78E"/>
<path d="M1102.86 172C1105.26 159.6 1120.53 157.833 1127.86 158.5C1127.2 162.5 1124.76 170.2 1120.36 169C1115.96 167.8 1112.53 173.833 1111.36 177C1110.86 176 1108.46 173.6 1102.86 172Z" fill="#F79B67"/>
<path d="M1102.86 216C1089.66 218.4 1092.03 206 1094.86 199.5C1097.53 197.5 1102.56 195 1101.36 201C1099.86 208.5 1101.36 203 1106.86 205.5C1112.36 208 1108.36 213.5 1102.86 216Z" fill="#F79B67"/>
<path d="M972.364 322.5C985.964 316.1 984.697 299.167 982.364 291.5C1003.16 283.1 1026.36 300 1035.36 309.5C1030.03 318.5 1016.36 338.4 1004.36 346C989.364 355.5 955.364 330.5 972.364 322.5Z" fill="#C4C4C4"/>
<path d="M811.864 508.5C817.064 505.3 827.364 509.833 831.864 512.5C841.031 518 857.264 529.6 848.864 532C838.364 535 838.864 559.5 836.364 566.5C833.864 573.5 785.364 541 763.864 532C746.664 524.8 756.697 516 763.864 512.5C777.697 512.5 806.664 511.7 811.864 508.5Z" fill="#4A57A9"/>
<path d="M1225.36 354.5C1228.16 360.1 1229.86 369.5 1230.36 373.5C1234.53 371.167 1244.16 367.7 1249.36 372.5C1255.86 378.5 1282.86 366.5 1290.86 366.5C1299.86 373 1309.86 373.5 1314.86 360C1300.36 328.5 1280.86 334.5 1252.36 336.5C1223.86 338.5 1221.86 347.5 1225.36 354.5Z" fill="#4A57A9"/>
<path d="M807.364 526.5C798.164 526.5 791.864 517.833 789.864 513.5C811.464 507.1 826.531 519.5 831.364 526.5H807.364Z" fill="#2E3C93"/>
<path d="M780.864 532.5C773.664 525.7 762.531 520.667 757.864 519C748.664 519 758.031 530 763.864 535.5C761.864 532.5 766.464 531.9 800.864 553.5C843.864 580.5 836.864 566.5 836.864 560C831.864 568.5 789.864 541 780.864 532.5Z" fill="#2E3C93"/>
<path d="M1241.36 339.5C1227.36 340.3 1229.2 354.833 1231.86 362C1231.86 389.5 1226.86 363.4 1224.86 355L1224.78 354.651C1222.3 344.268 1219.85 333.994 1263.36 333.5C1307.36 333 1311.18 348 1314.36 360.5C1307.75 334.5 1258.86 338.5 1241.36 339.5Z" fill="#2E3C93"/>
<path d="M1276.86 362C1271.66 364.8 1262.03 363.167 1257.86 362C1256.2 365 1248.86 369 1252.86 371C1256.86 373 1280.86 369.333 1289.86 366C1287.7 363.5 1282.06 359.2 1276.86 362Z" fill="#2E3C93"/>
<path d="M820.864 513L840.364 496L867.364 513L845.864 530L820.864 513Z" fill="#C4D5ED"/>
<path d="M1239.36 358.5C1229.36 358.5 1231.53 371.5 1233.86 378L1252.86 389C1254.53 385.333 1258.06 376.6 1258.86 371C1259.86 364 1251.86 358.5 1239.36 358.5Z" fill="#C4D5ED"/>
<path d="M954.364 388C976.764 361.6 1013.7 334.667 1029.36 324.5C1056.53 337.5 1107.56 367.3 1094.36 382.5C1077.86 401.5 980.864 411.5 958.864 442C936.864 472.5 916.364 486.5 899.864 495C886.664 501.8 873.031 515.167 867.864 521L833.864 495C864.697 470.333 931.964 414.4 954.364 388Z" fill="#414A9F"/>
<path d="M1234.86 505C1208.06 521.8 1141.7 446 1111.86 406L1153.36 339.5L1212.36 442C1214.86 426.833 1220.86 392.1 1224.86 374.5C1241.26 368.1 1258.03 377.167 1264.36 382.5C1265.7 416.333 1261.66 488.2 1234.86 505Z" fill="#414A9F"/>
<path d="M1080.86 219C1082.46 205 1069.2 192.167 1062.36 187.5C1060.03 184.333 1058.26 176.9 1069.86 172.5C1081.46 168.1 1094.7 170.667 1099.86 172.5L1104.36 181.5C1102.53 187.667 1096.66 201 1087.86 205C1088.36 222.5 1084.36 219 1080.86 219Z" fill="#E3989C"/>
<path d="M920.364 491.5C927.964 477.9 949.864 476.833 959.864 478L969.864 486C965.197 490.833 955.464 503.1 953.864 513.5C952.264 523.9 940.197 524.167 934.364 523C926.531 518.167 912.764 505.1 920.364 491.5Z" fill="#F8AFB1"/>
<path d="M1088.86 192.5C1087.66 197.7 1098.36 201.667 1103.86 203C1106.2 199.5 1111.16 190.3 1112.36 181.5C1113.56 172.7 1101.86 170.833 1095.86 171C1094.03 176 1090.06 187.3 1088.86 192.5Z" fill="#F8AFB1"/>
<path d="M951.364 477.5L969.364 467.5C980.197 470.833 999.464 478.2 989.864 481C980.264 483.8 967.864 487.833 962.864 489.5L951.364 477.5Z" fill="#CBD0DF"/>
<path d="M1063.36 189C1058.86 189 1049.86 179 1048.36 176.5C1042.53 168 1034.36 151.2 1048.36 152C1062.36 152.8 1072.53 168.667 1075.86 176.5C1073.2 180.667 1066.96 189 1063.36 189Z" fill="#CBD0DF"/>
<path d="M999.846 283.723C1009.11 264.1 1008.32 253.578 1006.36 250.5L958.364 208C970.197 183.167 999.164 133.5 1020.36 133.5C1046.86 133.5 1067.36 158 1067.86 164.5C1068.36 171 1059.86 185.5 1051.86 185.5C1023.36 145.5 1006.36 206.5 1001.36 218.5C1030.36 222 1097.36 254 1106.36 267C1115.36 280 1127.36 296 1137.36 305C1182.16 321.4 1173.7 351.5 1163.86 364.5C1142.03 394.5 1097.76 446 1095.36 412C1092.36 369.5 1070.36 356.5 1065.86 352C1061.36 464.5 994.364 483 981.864 483C969.364 483 966.364 472.5 966.364 465C1051.36 427 1021.86 324 1023.36 309.5C1024.56 297.9 1015.86 311.333 1011.36 319.5C1005.36 315.167 993.364 304.4 993.364 296C994.066 294.789 994.736 293.603 995.376 292.443C987.883 295.912 981.13 301.621 977.864 305V276.5C984.347 278.407 993.212 281.208 999.846 283.723Z" fill="#F0F1F2"/>
<path d="M1013.86 266C1014.66 258 1001.86 244 995.364 238C995.364 250 983.031 270 976.864 278.5L995.364 294.5C1001.2 288.333 1013.06 274 1013.86 266Z" fill="#D5898E"/>
<path d="M938.364 288C941.964 275.6 935.197 260.833 931.364 255C953.531 246.167 998.964 233.8 1003.36 255C1008.86 281.5 991.864 271 989.864 276.5C981.864 298 968.864 301 954.864 301C947.864 292 946.864 292.5 938.364 288Z" fill="#E3999D"/>
<path d="M999.864 258C989.464 257.6 990.197 266.833 991.864 271.5C979.864 275.1 981.197 262.667 983.364 256C981.197 253.167 974.964 248.7 967.364 253.5C957.864 259.5 955.864 260.5 935.364 260.5C891.864 245 927.864 224 938.364 219.5C952.788 197.118 970.18 200.464 983.158 202.96L983.364 203C999.364 194 1009.86 222 1011.36 226C1012.86 230 1012.86 258.5 999.864 258Z" fill="#55392A"/>
<path d="M992.864 292.5C986.364 293.833 976.364 298.8 988.364 308C1003.36 319.5 1007.36 298.5 992.864 292.5Z" fill="#C92535"/>
<path d="M1027.36 306C1009.36 325.6 995.531 314.167 990.864 306H1007.36C1017.86 306 1043.86 250.5 1057.86 247.5C1069.06 245.1 1085.53 239.833 1092.36 237.5C1093.36 240.167 1094.16 247.1 1089.36 253.5C1083.36 261.5 1049.86 281.5 1027.36 306Z" fill="#C92525"/>
<path d="M1150.86 136.5L1108.36 249.5L1184.36 253L1224.36 136.5H1150.86Z" fill="#F79B67"/>
<path d="M1099.86 242.5C1099.86 240.1 1128.86 164.5 1143.36 127H1219.86" stroke="#F79B67" stroke-width="4" stroke-linejoin="round"/>
<circle r="13" transform="matrix(-1 0 0 1 1021 185)" fill="#C4C4C4" fill-opacity="0.2"/>
<circle r="13" transform="matrix(-1 0 0 1 1191 234)" fill="#FF512F"/>
<circle r="13" transform="matrix(-1 0 0 1 800 437)" fill="#F09819"/>
<circle r="13" transform="matrix(-1 0 0 1 800 437)" fill="#F09819"/>
<circle r="13" transform="matrix(-1 0 0 1 800 437)" fill="#F09819"/>
<circle r="13" transform="matrix(-1 0 0 1 733 543)" fill="#F09819"/>
<circle r="13" transform="matrix(-1 0 0 1 733 543)" fill="#F09819"/>
<circle r="13" transform="matrix(-1 0 0 1 733 543)" fill="#F09819"/>
<circle r="13" transform="matrix(-1 0 0 1 1204 676)" fill="#F09819"/>
<circle r="13" transform="matrix(-1 0 0 1 1204 676)" fill="#F09819"/>
<circle r="13" transform="matrix(-1 0 0 1 1204 676)" fill="#F09819"/>
<circle r="13" transform="matrix(-1 0 0 1 707 74)" fill="#F09819"/>
<circle r="13" transform="matrix(-1 0 0 1 707 74)" fill="#F09819"/>
<circle r="13" transform="matrix(-1 0 0 1 707 74)" fill="#F09819"/>
</g>
<defs>
<linearGradient id="paint0_linear" x1="628" y1="357" x2="1432" y2="357" gradientUnits="userSpaceOnUse">
<stop stop-color="#FF512F"/>
<stop offset="1" stop-color="#F09819"/>
</linearGradient>
<linearGradient id="paint1_linear" x1="1024.66" y1="231.504" x2="1114.07" y2="705.721" gradientUnits="userSpaceOnUse">
<stop stop-color="#F09819"/>
<stop offset="0.52253" stop-color="#FF512F"/>
</linearGradient>
</defs>
</svg>
