<svg width="738" height="740" viewBox="0 0 738 740" fill="none" xmlns="http://www.w3.org/2000/svg">
<path d="M7.99485 90.4898C-28.0229 27.2525 66.357 -13.519 118.049 -26H781.377C803.888 146.423 829.301 523.998 750.862 654.911C652.813 818.551 492.734 700.212 443.71 675.712L443.101 675.408C394.011 650.874 312.524 610.148 162.571 628.562C11.9968 647.052 20.0008 453.827 118.049 323.932C216.098 194.036 53.0171 169.536 7.99485 90.4898Z" fill="url(#paint0_linear)"/>
<path d="M569.196 675.704C624.007 720.123 763.735 715.034 747.732 625.268C649.379 543.678 472.777 358.656 553.193 271.297C633.609 183.938 582.366 34.6994 546.692 -29H256.634C261.802 -16.9696 279.338 23.471 308.144 88.9904C344.151 170.89 159.615 442.962 315.646 504.964C471.677 566.967 500.683 620.179 569.196 675.704Z" fill="url(#paint1_linear)" fill-opacity="0.5"/>
<path d="M643 433.5C571 320.7 687.333 146.833 754.5 74L771.5 588.5C758.667 583.833 715 546.3 643 433.5Z" fill="#FE5A2D" fill-opacity="0.4"/>
<path d="M526.364 141.5L481.364 252L466.864 236.5L509.364 120H585.864L598.364 138L595.364 141.5L523.596 138L526.364 141.5Z" fill="#FFB78E"/>
<path d="M474.864 172C477.264 159.6 492.531 157.833 499.864 158.5C499.197 162.5 496.764 170.2 492.364 169C487.964 167.8 484.531 173.833 483.364 177C482.864 176 480.464 173.6 474.864 172Z" fill="#F79B67"/>
<path d="M474.864 216C461.664 218.4 464.031 206 466.864 199.5C469.531 197.5 474.564 195 473.364 201C471.864 208.5 473.364 203 478.864 205.5C484.364 208 480.364 213.5 474.864 216Z" fill="#F79B67"/>
<path d="M344.364 322.5C357.964 316.1 356.697 299.167 354.364 291.5C375.164 283.1 398.364 300 407.364 309.5C402.031 318.5 388.364 338.4 376.364 346C361.364 355.5 327.364 330.5 344.364 322.5Z" fill="#C4C4C4"/>
<path d="M183.864 508.5C189.064 505.3 199.364 509.833 203.864 512.5C213.031 518 229.264 529.6 220.864 532C210.364 535 210.864 559.5 208.364 566.5C205.864 573.5 157.364 541 135.864 532C118.664 524.8 128.697 516 135.864 512.5C149.697 512.5 178.664 511.7 183.864 508.5Z" fill="#4A57A9"/>
<path d="M597.364 354.5C600.164 360.1 601.864 369.5 602.364 373.5C606.531 371.167 616.164 367.7 621.364 372.5C627.864 378.5 654.864 366.5 662.864 366.5C671.864 373 681.864 373.5 686.864 360C672.364 328.5 652.864 334.5 624.364 336.5C595.864 338.5 593.864 347.5 597.364 354.5Z" fill="#4A57A9"/>
<path d="M179.364 526.5C170.164 526.5 163.864 517.833 161.864 513.5C183.464 507.1 198.531 519.5 203.364 526.5H179.364Z" fill="#2E3C93"/>
<path d="M152.864 532.5C145.664 525.7 134.531 520.667 129.864 519C120.664 519 130.031 530 135.864 535.5C133.864 532.5 138.464 531.9 172.864 553.5C215.864 580.5 208.864 566.5 208.864 560C203.864 568.5 161.864 541 152.864 532.5Z" fill="#2E3C93"/>
<path d="M613.364 339.5C599.364 340.3 601.197 354.833 603.864 362C603.864 389.5 598.864 363.4 596.864 355L596.781 354.651C594.303 344.268 591.852 333.994 635.364 333.5C679.364 333 683.182 348 686.364 360.5C679.746 334.5 630.864 338.5 613.364 339.5Z" fill="#2E3C93"/>
<path d="M648.864 362C643.664 364.8 634.031 363.167 629.864 362C628.197 365 620.864 369 624.864 371C628.864 373 652.864 369.333 661.864 366C659.697 363.5 654.064 359.2 648.864 362Z" fill="#2E3C93"/>
<path d="M192.864 513L212.364 496L239.364 513L217.864 530L192.864 513Z" fill="#C4D5ED"/>
<path d="M611.364 358.5C601.364 358.5 603.531 371.5 605.864 378L624.864 389C626.531 385.333 630.064 376.6 630.864 371C631.864 364 623.864 358.5 611.364 358.5Z" fill="#C4D5ED"/>
<path d="M326.364 388C348.764 361.6 385.697 334.667 401.364 324.5C428.531 337.5 479.564 367.3 466.364 382.5C449.864 401.5 352.864 411.5 330.864 442C308.864 472.5 288.364 486.5 271.864 495C258.664 501.8 245.031 515.167 239.864 521L205.864 495C236.697 470.333 303.964 414.4 326.364 388Z" fill="#414A9F"/>
<path d="M606.864 505C580.064 521.8 513.697 446 483.864 406L525.364 339.5L584.364 442C586.864 426.833 592.864 392.1 596.864 374.5C613.264 368.1 630.031 377.167 636.364 382.5C637.697 416.333 633.664 488.2 606.864 505Z" fill="#414A9F"/>
<path d="M452.864 219C454.464 205 441.197 192.167 434.364 187.5C432.031 184.333 430.264 176.9 441.864 172.5C453.464 168.1 466.697 170.667 471.864 172.5L476.364 181.5C474.531 187.667 468.664 201 459.864 205C460.364 222.5 456.364 219 452.864 219Z" fill="#E3989C"/>
<path d="M292.364 491.5C299.964 477.9 321.864 476.833 331.864 478L341.864 486C337.197 490.833 327.464 503.1 325.864 513.5C324.264 523.9 312.197 524.167 306.364 523C298.531 518.167 284.764 505.1 292.364 491.5Z" fill="#F8AFB1"/>
<path d="M460.864 192.5C459.664 197.7 470.364 201.667 475.864 203C478.197 199.5 483.164 190.3 484.364 181.5C485.564 172.7 473.864 170.833 467.864 171C466.031 176 462.064 187.3 460.864 192.5Z" fill="#F8AFB1"/>
<path d="M323.364 477.5L341.364 467.5C352.197 470.833 371.464 478.2 361.864 481C352.264 483.8 339.864 487.833 334.864 489.5L323.364 477.5Z" fill="#CBD0DF"/>
<path d="M435.364 189C430.864 189 421.864 179 420.364 176.5C414.531 168 406.364 151.2 420.364 152C434.364 152.8 444.531 168.667 447.864 176.5C445.197 180.667 438.964 189 435.364 189Z" fill="#CBD0DF"/>
<path d="M371.846 283.723C381.107 264.1 380.322 253.578 378.364 250.5L330.364 208C342.197 183.167 371.164 133.5 392.364 133.5C418.864 133.5 439.364 158 439.864 164.5C440.364 171 431.864 185.5 423.864 185.5C395.364 145.5 378.364 206.5 373.364 218.5C402.364 222 469.364 254 478.364 267C487.364 280 499.364 296 509.364 305C554.164 321.4 545.697 351.5 535.864 364.5C514.031 394.5 469.764 446 467.364 412C464.364 369.5 442.364 356.5 437.864 352C433.364 464.5 366.364 483 353.864 483C341.364 483 338.364 472.5 338.364 465C423.364 427 393.864 324 395.364 309.5C396.564 297.9 387.864 311.333 383.364 319.5C377.364 315.167 365.364 304.4 365.364 296C366.066 294.789 366.736 293.603 367.376 292.443C359.883 295.912 353.13 301.621 349.864 305V276.5C356.347 278.407 365.212 281.208 371.846 283.723Z" fill="#F0F1F2"/>
<path d="M385.864 266C386.664 258 373.864 244 367.364 238C367.364 250 355.031 270 348.864 278.5L367.364 294.5C373.197 288.333 385.064 274 385.864 266Z" fill="#D5898E"/>
<path d="M310.364 288C313.964 275.6 307.197 260.833 303.364 255C325.531 246.167 370.964 233.8 375.364 255C380.864 281.5 363.864 271 361.864 276.5C353.864 298 340.864 301 326.864 301C319.864 292 318.864 292.5 310.364 288Z" fill="#E3999D"/>
<path d="M371.864 258C361.464 257.6 362.197 266.833 363.864 271.5C351.864 275.1 353.197 262.667 355.364 256C353.197 253.167 346.964 248.7 339.364 253.5C329.864 259.5 327.864 260.5 307.364 260.5C263.864 245 299.864 224 310.364 219.5C324.788 197.118 342.18 200.464 355.158 202.96L355.364 203C371.364 194 381.864 222 383.364 226C384.864 230 384.864 258.5 371.864 258Z" fill="#55392A"/>
<path d="M364.864 292.5C358.364 293.833 348.364 298.8 360.364 308C375.364 319.5 379.364 298.5 364.864 292.5Z" fill="#C92535"/>
<path d="M399.364 306C381.364 325.6 367.531 314.167 362.864 306H379.364C389.864 306 415.864 250.5 429.864 247.5C441.064 245.1 457.531 239.833 464.364 237.5C465.364 240.167 466.164 247.1 461.364 253.5C455.364 261.5 421.864 281.5 399.364 306Z" fill="#C92525"/>
<path d="M522.864 136.5L480.364 249.5L556.364 253L596.364 136.5H522.864Z" fill="#F79B67"/>
<path d="M471.864 242.5C471.864 240.1 500.864 164.5 515.364 127H591.864" stroke="#F79B67" stroke-width="4" stroke-linejoin="round"/>
<circle r="13" transform="matrix(-1 0 0 1 393 185)" fill="#C4C4C4" fill-opacity="0.2"/>
<circle r="13" transform="matrix(-1 0 0 1 563 234)" fill="#FF512F"/>
<circle r="13" transform="matrix(-1 0 0 1 172 437)" fill="#F09819"/>
<circle r="13" transform="matrix(-1 0 0 1 172 437)" fill="#F09819"/>
<circle r="13" transform="matrix(-1 0 0 1 172 437)" fill="#F09819"/>
<circle r="13" transform="matrix(-1 0 0 1 105 543)" fill="#F09819"/>
<circle r="13" transform="matrix(-1 0 0 1 105 543)" fill="#F09819"/>
<circle r="13" transform="matrix(-1 0 0 1 105 543)" fill="#F09819"/>
<circle r="13" transform="matrix(-1 0 0 1 576 676)" fill="#F09819"/>
<circle r="13" transform="matrix(-1 0 0 1 576 676)" fill="#F09819"/>
<circle r="13" transform="matrix(-1 0 0 1 576 676)" fill="#F09819"/>
<circle r="13" transform="matrix(-1 0 0 1 79 74)" fill="#F09819"/>
<circle r="13" transform="matrix(-1 0 0 1 79 74)" fill="#F09819"/>
<circle r="13" transform="matrix(-1 0 0 1 79 74)" fill="#F09819"/>
<defs>
<linearGradient id="paint0_linear" x1="0" y1="357" x2="804" y2="357" gradientUnits="userSpaceOnUse">
<stop stop-color="#FF512F"/>
<stop offset="1" stop-color="#F09819"/>
</linearGradient>
<linearGradient id="paint1_linear" x1="396.662" y1="231.504" x2="486.066" y2="705.721" gradientUnits="userSpaceOnUse">
<stop stop-color="#F09819"/>
<stop offset="0.52253" stop-color="#FF512F"/>
</linearGradient>
</defs>
</svg>
