<svg width="523" height="441" viewBox="0 0 523 441" fill="none" xmlns="http://www.w3.org/2000/svg">
<path d="M222.501 17.6566C201.242 7.95025 178.776 -0.157646 155.843 0.861632C122.123 2.3558 89.7543 25.1332 73.9027 58.5782C60.4534 86.9153 58.7939 120.129 53.0003 151.576C45.8705 190.314 32.1896 227.141 17.5826 263.146C9.73878 282.489 1.46082 302.249 0.172813 323.452C-1.61206 352.889 10.9158 382.222 30.5639 401.803C50.2121 421.383 76.305 431.715 102.494 433.968C116.431 435.167 130.995 434.055 143.373 426.769C156.47 419.061 166.017 405.133 179.167 397.534C191.352 390.492 205.607 389.508 219.288 390.423C237.151 391.617 254.784 395.828 271.667 402.932C290.789 410.994 308.57 422.675 327.625 430.852C346.68 439.03 368.021 443.593 387.52 436.771C405.851 430.36 420.323 414.793 433.372 399.029C454.709 373.299 474.265 345.526 491.848 315.986C503.624 296.174 514.584 275.273 519.789 252.183C529.746 208.036 516.045 158.23 485.659 128.08C460.483 103.102 426.695 92.2607 393.622 85.6818C363.463 79.6819 328.59 79.3113 300.828 63.6746C274.354 48.7445 250.263 30.3396 222.501 17.6566Z" fill="url(#paint0_linear)"/>
<path d="M305.16 359.253V380.293H310.143L309.178 357.707L305.16 359.253Z" fill="#AAABB0"/>
<path d="M230.306 355.008V376.048H235.294L234.329 353.462L230.306 355.008Z" fill="#AAABB0"/>
<path d="M317.379 324.123C317.379 321.989 315.939 320.26 314.164 320.26C312.388 320.26 310.949 321.989 310.949 324.123V353.85C310.949 355.983 312.388 357.713 314.164 357.713C315.939 357.713 317.379 355.983 317.379 353.85V324.123Z" fill="#AAABB0"/>
<path d="M234.889 315.818C234.889 313.685 233.449 311.955 231.674 311.955C229.898 311.955 228.458 313.685 228.458 315.818V353.844C228.458 355.977 229.898 357.707 231.674 357.707C233.449 357.707 234.889 355.977 234.889 353.844V315.818Z" fill="#AAABB0"/>
<path d="M325.585 96.1346C325.585 96.1346 332.015 92.8509 332.98 96.1346C333.945 99.4183 334.427 127.796 334.427 127.796H328.315L325.585 96.1346Z" fill="#AAABB0"/>
<path d="M255.154 96.1346C255.154 96.1346 248.719 92.8509 247.754 96.1346C246.79 99.4183 246.307 127.796 246.307 127.796H252.419L255.154 96.1346Z" fill="#AAABB0"/>
<path d="M256.114 67.948L255.15 91.5013H259.491V67.3689L256.114 67.948Z" fill="#AAABB0"/>
<path d="M252.419 127.796L253.707 93.818C253.707 93.818 253.225 86.2893 268.497 88.6058C283.77 90.9223 328.479 95.5554 328.479 95.5554V127.796H252.419Z" fill="#33323D"/>
<path d="M313.525 306.748L311.113 358.674C311.113 358.674 275.733 382.227 232.8 359.832L236.659 305.202L313.525 306.748Z" fill="#33323D"/>
<path d="M279.916 102.308L280.717 135.898H330.568L327.673 91.5016L279.916 102.308Z" fill="#444053"/>
<path d="M284.981 284.545H238.024V355.969H284.981V284.545Z" fill="#4C4981"/>
<path d="M267.697 313.698C267.697 313.698 274.45 307.328 275.574 309.256C276.698 311.185 271.561 319.49 269.467 318.522C267.374 317.555 267.697 313.698 267.697 313.698Z" fill="#FFB9B9"/>
<path d="M455.138 125.861H146.899V311.185H455.138V125.861Z" fill="#504F60"/>
<path d="M252.578 66.5986C252.578 66.5986 250.166 39.5703 252.578 36.2924C254.99 33.0145 295.512 1.92637 332.98 38.412C332.98 38.412 336.516 38.6089 335.874 48.2574C335.496 54.364 335.522 60.4969 335.951 66.5986C335.951 66.5986 255.314 73.5483 252.578 66.5986Z" fill="#33323D"/>
<path opacity="0.1" d="M252.578 66.5986C252.578 66.5986 250.166 39.5703 252.578 36.2924C254.99 33.0145 295.512 1.92637 332.98 38.412C332.98 38.412 336.516 38.6089 335.874 48.2574C335.496 54.364 335.522 60.4969 335.951 66.5986C335.951 66.5986 255.314 73.5483 252.578 66.5986Z" fill="black"/>
<path d="M252.578 70.0734C252.578 70.0734 250.166 43.045 252.578 39.7671C254.99 36.4892 295.512 5.4011 332.98 41.8868C332.98 41.8868 336.516 42.0837 335.874 51.7321C335.496 57.8387 335.522 63.9717 335.951 70.0734C335.951 70.0734 255.314 77.023 252.578 70.0734Z" fill="#33323D"/>
<path d="M337.321 57.7205C337.321 57.7205 339.893 69.3032 339.092 71.2317C338.291 73.1602 338.436 78.5693 338.436 78.5693C338.436 78.5693 338.609 82.0441 337.321 82.4263C336.033 82.8086 334.909 83.0055 335.951 84.1638C336.993 85.322 335.951 87.0594 335.951 87.0594C335.951 87.0594 335.387 89.764 335.951 91.5014C336.516 93.2388 332.652 93.9627 332.98 96.1345C333.308 98.3062 334.388 104.433 332.98 104.63C331.571 104.827 333.462 112.35 332.193 112.35C330.925 112.35 330.023 125.861 330.023 125.861C330.023 125.861 321.098 116.792 315.15 119.3C315.15 119.3 315.633 111.771 317.562 109.067C319.492 106.362 318.908 99.4182 318.908 99.4182L328.479 64.8612L337.321 57.7205Z" fill="#4C4981"/>
<path d="M289.564 217.434C287.475 220.208 285.222 205.394 285.222 205.394C285.222 205.394 279.274 215.239 275.415 208.678C272.743 204.132 274.851 191.252 276.38 183.775C277.065 180.451 277.644 178.192 277.644 178.192L286.327 176.455C286.327 176.455 286.356 178.725 286.549 181.482C286.809 185.206 287.374 189.827 288.575 190.933C290.693 192.85 291.657 214.637 289.564 217.434Z" fill="#AE6E79"/>
<path opacity="0.1" d="M285.063 44.0122C285.063 44.0122 269.945 43.8211 266.25 53.4695C262.554 63.1179 262.39 66.4074 260.943 67.9479C259.496 69.4884 276.698 77.6021 276.698 77.6021L277.504 110.804C277.504 110.804 280.881 106.698 286.346 108.557C291.812 110.416 298.729 108.557 298.729 108.557C298.729 108.557 298.406 107.856 302.912 108.557C307.417 109.258 321.725 100.188 321.725 100.188C321.725 100.188 321.962 85.6637 321.643 82.5711C321.325 79.4785 331.851 56.7532 331.851 56.7532C331.851 56.7532 340.052 47.2959 331.533 44.0122C331.533 44.0122 328.518 38.5568 320.761 38.6089C313.004 38.661 285.063 44.0122 285.063 44.0122Z" fill="black"/>
<path d="M285.063 43.4332C285.063 43.4332 269.945 43.2421 266.25 52.8905C262.554 62.5389 262.39 65.8283 260.943 67.3688C259.496 68.9093 276.698 77.023 276.698 77.023L277.504 110.225C277.504 110.225 280.881 106.119 286.346 107.978C291.812 109.837 298.729 107.978 298.729 107.978C298.729 107.978 298.406 107.277 302.912 107.978C307.417 108.678 321.725 99.6092 321.725 99.6092C321.725 99.6092 327.35 88.6057 327.032 85.5189C326.713 82.4321 338.286 59.0699 338.286 59.0699C338.286 59.0699 340.057 46.7169 331.533 43.4332C331.533 43.4332 328.518 37.9778 320.761 38.0299C313.004 38.082 285.063 43.4332 285.063 43.4332Z" fill="#4C4981"/>
<path opacity="0.1" d="M286.587 181.464C283.273 180.225 278.073 182.959 276.419 183.781C277.104 180.457 277.682 178.198 277.682 178.198L286.366 176.461C286.366 176.461 286.38 178.731 286.587 181.464Z" fill="black"/>
<path d="M265.603 67.3689H260.943C260.943 67.3689 259.978 79.1485 260.943 82.6233C261.908 86.0981 262.39 85.5942 262.067 88.1656C261.744 90.737 264.32 94.6751 264.32 94.6751C264.32 94.6751 264.638 104.381 266.25 107.995C267.861 111.609 264.479 127.813 264.479 127.813C265.401 130.61 266.766 133.167 268.497 135.342C271.233 138.62 272.68 150.782 271.874 155.415C271.069 160.048 274.127 161.785 274.127 161.785C274.127 161.785 275.415 183.41 275.897 183.41C276.38 183.41 285.705 177.619 288.599 182.634L286.346 162.752L286.51 124.338C286.51 124.338 283.452 119.508 285.063 115.263C286.674 111.018 283.775 100.976 283.775 100.976L279.593 78.5867L265.603 67.3689Z" fill="#4C4981"/>
<path d="M236.659 372.573C236.659 372.573 229.906 370.836 229.746 372.573C229.587 374.31 221.705 392.073 231.517 397.285C241.329 402.497 267.533 413.692 310.148 399.213C310.148 399.213 312.878 400.372 312.237 393.231C311.595 386.09 311.595 378.173 311.595 378.173C311.595 378.173 305.16 376.048 300.336 376.824C295.512 377.6 253.543 387.827 236.659 372.573Z" fill="#33323D"/>
<path opacity="0.1" d="M236.659 372.573C236.659 372.573 229.906 370.836 229.746 372.573C229.587 374.31 221.705 392.073 231.517 397.285C241.329 402.497 267.533 413.692 310.148 399.213C310.148 399.213 312.878 400.372 312.237 393.231C311.595 386.09 311.595 378.173 311.595 378.173C311.595 378.173 305.16 376.048 300.336 376.824C295.512 377.6 253.543 387.827 236.659 372.573Z" fill="black"/>
<path d="M236.659 370.257C236.659 370.257 229.906 368.519 229.746 370.257C229.587 371.994 221.705 389.756 231.517 394.968C241.329 400.18 267.533 411.375 310.148 396.897C310.148 396.897 312.878 398.055 312.237 390.914C311.595 383.774 311.595 375.857 311.595 375.857C311.595 375.857 305.16 373.731 300.336 374.507C295.512 375.283 253.543 385.511 236.659 370.257Z" fill="#33323D"/>
<path d="M276.042 74.3068C275.627 77.1388 274.687 79.8607 274.542 82.7274C274.397 85.5941 275.319 88.8546 277.523 89.9782C278.138 90.1988 278.734 90.4897 279.303 90.8469C280.152 91.536 280.5 92.8333 280.678 94.0495C280.915 95.6196 280.972 97.2213 280.847 98.8099C280.726 100.408 280.442 102.128 281.098 103.524C282.251 105.997 285.256 105.632 287.543 104.937L286.756 112.252C286.694 112.831 286.655 113.485 287.007 113.879C287.174 114.02 287.362 114.119 287.561 114.171C287.759 114.222 287.965 114.226 288.165 114.18C290.152 114.03 292.198 113.699 293.901 112.443C295.604 111.186 296.872 108.846 296.549 106.489C296.173 103.756 293.819 101.584 294.137 98.8389C294.383 96.7135 296.115 95.3641 297.253 93.7309C299.313 90.7426 299.424 86.2022 297.808 82.8201C296.192 79.4379 293.071 77.3415 289.858 76.9593C288.078 76.745 286.226 77.0056 284.552 76.2643C283.969 76.0078 283.444 75.5931 283.017 75.0526C282.591 74.5121 282.274 73.8605 282.092 73.1486" fill="#444053"/>
<path d="M219.939 331.842L221.623 327.441C221.623 327.441 230.711 317.277 232.8 316.565C234.889 315.853 243.413 312.748 244.701 312.748C245.989 312.748 269.467 311.202 269.467 311.202L272.198 318.928L242.733 326.694L232.8 335.381L219.939 331.842Z" fill="#767D9F"/>
<path d="M290.731 213.311L289.192 227.529L288.599 233.001L281.686 234.16C281.686 234.16 280.939 232.237 279.882 229.283C276.674 220.318 270.635 201.832 274.137 198.641C278.792 194.391 279.926 208.487 279.926 208.487L285.232 205.394L290.731 213.311Z" fill="#FFB9B9"/>
<path d="M289.578 239.76H254.667V303.077H289.578V239.76Z" fill="white"/>
<path opacity="0.1" d="M289.578 239.76H254.667V303.077H289.578V239.76Z" fill="black"/>
<path d="M305.269 243.188L270.733 237.058L263.02 299.694L297.556 305.824L305.269 243.188Z" fill="white"/>
<path d="M291.76 246.187L273.984 243.032L270.014 275.27L287.79 278.425L291.76 246.187Z" fill="#6C63FF"/>
<path d="M289.645 288.266L268.109 284.443L267.246 291.445L288.783 295.267L289.645 288.266Z" fill="#F68121"/>
<path opacity="0.1" d="M298.729 80.0112C309.874 80.0112 318.908 69.1652 318.908 55.7861C318.908 42.407 309.874 31.561 298.729 31.561C287.585 31.561 278.551 42.407 278.551 55.7861C278.551 69.1652 287.585 80.0112 298.729 80.0112Z" fill="black"/>
<path d="M298.729 79.4322C309.874 79.4322 318.908 68.5862 318.908 55.207C318.908 41.8277 309.874 30.9817 298.729 30.9817C287.585 30.9817 278.551 41.8277 278.551 55.207C278.551 68.5862 287.585 79.4322 298.729 79.4322Z" fill="#AE6E79"/>
<path d="M282.092 73.1602C281.954 72.5362 282.004 71.8742 282.231 71.2896C282.998 69.3726 285.184 69.2047 286.954 69.3031C291.117 69.5348 295.686 69.5637 298.942 66.4075C300.292 65.1102 301.802 61.8497 303.766 62.4693C305.512 63.0195 306.24 65.8631 308.059 66.4943C309.376 66.9518 310.741 66.2221 312.082 65.9152C314.012 65.4577 315.99 65.8399 317.948 65.8573C319.907 65.8747 322.034 65.4287 323.37 63.7087C325.175 61.3922 324.88 57.7726 324.721 54.5989C324.523 50.4994 324.755 46.3862 325.411 42.356C326.067 38.3484 327.075 33.8659 325.232 30.4316C323.477 27.1595 319.839 26.2619 317.355 23.7542C315.03 21.4377 313.8 17.7254 311.344 15.5768C308.252 12.8723 304.05 13.2603 300.249 13.7294L292 14.7834C289.873 15.0556 287.658 15.3626 285.907 16.8857C282.748 19.6308 282.313 25.3353 279.323 28.341C277.991 29.673 276.288 30.3332 274.769 31.3293C273.249 32.3254 271.783 33.9006 271.609 35.9624C271.464 37.6998 272.246 39.304 272.627 40.9777C273.529 44.9737 272.12 49.0856 271.218 53.1105C270.316 57.1355 270.143 62.0234 272.762 64.6932C273.293 65.2376 273.91 65.6546 274.426 66.2221C276.197 68.1622 276.438 71.4343 276.028 74.2605" fill="#444053"/>
<path d="M300.374 85.4669C300.641 85.4669 300.857 84.8187 300.857 84.0191C300.857 83.2195 300.641 82.5713 300.374 82.5713C300.108 82.5713 299.892 83.2195 299.892 84.0191C299.892 84.8187 300.108 85.4669 300.374 85.4669Z" fill="#444053"/>
<path d="M300.374 91.5015C300.641 91.5015 300.857 90.8532 300.857 90.0535C300.857 89.2538 300.641 88.6055 300.374 88.6055C300.108 88.6055 299.892 89.2538 299.892 90.0535C299.892 90.8532 300.108 91.5015 300.374 91.5015Z" fill="#444053"/>
<path d="M289.675 217.394C290.191 216.681 290.533 214.851 290.731 212.436L284.981 203.83C284.981 203.83 287.417 220.515 289.675 217.394Z" fill="#AE6E79"/>
<path opacity="0.1" d="M296.158 359.641C296.158 359.641 286.723 377.154 257.243 375.277C229.471 373.54 215.916 357.133 216.562 351.342C217.209 345.55 214.792 331.454 220.74 327.401C224.189 325.055 228.729 326.445 231.932 328.032C233.038 328.571 234.25 328.723 235.425 328.47C236.601 328.217 237.693 327.569 238.574 326.601C241.502 323.433 246.963 319.866 255.584 322.675C256.693 323.03 257.863 323.004 258.96 322.6C262.55 321.285 271.093 319.003 277.292 324.071C278.271 324.881 279.423 325.341 280.612 325.395C281.801 325.449 282.978 325.096 284.007 324.377L284.093 324.314C286.988 322.188 300.495 342.267 300.495 342.267C300.495 342.267 301.141 357.712 296.158 359.641Z" fill="black"/>
<path d="M296.158 360.22C296.158 360.22 286.723 377.733 257.243 375.857C229.471 374.119 215.916 357.712 216.562 351.921C217.209 346.13 214.792 332.033 220.74 327.979C224.189 325.634 228.729 327.024 231.932 328.611C233.038 329.15 234.25 329.302 235.425 329.049C236.601 328.796 237.693 328.148 238.574 327.18C241.502 324.012 246.963 320.445 255.584 323.254C256.693 323.609 257.863 323.583 258.96 323.178C262.55 321.864 271.093 319.582 277.292 324.649C278.271 325.46 279.423 325.919 280.612 325.974C281.801 326.028 282.978 325.675 284.007 324.956L284.093 324.893C286.988 322.767 300.495 342.846 300.495 342.846C300.495 342.846 301.141 358.292 296.158 360.22Z" fill="#767D9F"/>
<path opacity="0.1" d="M257.243 367.077C267.857 367.077 276.462 356.747 276.462 344.004C276.462 331.262 267.857 320.932 257.243 320.932C246.629 320.932 238.024 331.262 238.024 344.004C238.024 356.747 246.629 367.077 257.243 367.077Z" fill="black"/>
<path d="M257.243 367.656C267.857 367.656 276.462 357.326 276.462 344.583C276.462 331.841 267.857 321.511 257.243 321.511C246.629 321.511 238.024 331.841 238.024 344.583C238.024 357.326 246.629 367.656 257.243 367.656Z" fill="#FFB9B9"/>
<path d="M251.734 324.638C249.718 325.292 247.73 326.543 246.746 328.599C246.153 329.838 245.945 331.327 245.087 332.358C243.871 333.823 241.821 333.852 240.176 334.674C238.531 335.497 237.445 338.392 239.057 339.307C237.378 339.412 236.133 341.271 235.926 343.118C235.718 344.965 236.302 346.807 236.867 348.568C238.709 354.266 240.692 360.214 244.754 364.268C251.372 370.882 261.348 370.575 270.239 369.874C270.965 369.903 271.685 369.703 272.328 369.295C273.293 368.531 273.413 367.065 273.572 365.78C274.243 360.289 276.722 355.303 278.343 350.062C279.964 344.821 280.63 338.665 277.899 334.026C273.881 327.145 258.497 322.437 251.734 324.638Z" fill="#B96B6B"/>
<path opacity="0.1" d="M289.192 227.529L288.599 233.001L281.686 234.16C281.686 234.16 280.939 232.237 279.882 229.283L289.082 227.21L289.192 227.529Z" fill="black"/>
<path d="M296.477 348.446L300.5 342.846L299.694 311.961C300.09 309.732 300.36 307.474 300.5 305.202C300.659 301.919 298.488 294.587 298.488 294.587C298.825 293.119 299.282 291.695 299.853 290.336C300.818 288.019 298.493 282.807 298.493 282.807C298.493 282.807 295.029 269.296 296.477 262.537C297.924 255.779 296.125 251.922 296.125 251.922C296.125 251.922 294.711 244.393 294.87 241.306C295.029 238.22 291.653 235.318 291.653 235.318L289.081 227.789L278.792 230.106V256.167C278.792 256.167 279.434 281.07 278.792 285.9C278.15 290.73 280.075 295.357 280.075 295.357C280.075 295.357 278.951 302.498 279.916 305.202C280.881 307.907 282.81 314.468 282.81 314.468C282.452 316.813 282.563 319.227 283.134 321.511C284.098 324.893 283.134 326.821 283.134 326.821L296.477 348.446Z" fill="#767D9F"/>
<g opacity="0.1">
<path opacity="0.1" d="M325.425 40.4506C324.881 43.8407 324.637 47.2902 324.697 50.7418C324.738 47.8718 324.988 45.0116 325.445 42.1938C325.869 39.6225 326.409 36.8542 326.294 34.2887C326.116 36.3631 325.826 38.4215 325.425 40.4506Z" fill="black"/>
<path opacity="0.1" d="M274.441 64.3573C273.924 63.7782 273.307 63.3728 272.776 62.8226C271.368 61.3806 270.774 59.2899 270.659 57.0312C270.519 59.9269 271.011 62.7299 272.776 64.56C273.307 65.1102 273.924 65.5272 274.441 66.0947C275.52 67.3766 276.145 69.1088 276.187 70.9305C276.327 68.4981 275.917 65.9673 274.441 64.3573Z" fill="black"/>
<path opacity="0.1" d="M272.902 42.7325C272.986 41.5092 272.898 40.2777 272.641 39.0896C272.362 37.8502 271.86 36.6398 271.677 35.3947C271.677 35.5279 271.638 35.6669 271.623 35.8116C271.484 37.5491 272.265 39.1533 272.641 40.8271C272.78 41.4504 272.867 42.0886 272.902 42.7325Z" fill="black"/>
<path opacity="0.1" d="M323.385 61.8033C322.049 63.5407 319.921 63.9693 317.963 63.9519C316.004 63.9345 314.022 63.5523 312.097 64.0156C310.756 64.3399 309.39 65.0638 308.074 64.5947C306.255 63.9635 305.526 61.1199 303.785 60.5697C301.802 59.9443 300.292 63.2048 298.961 64.5021C295.705 67.6294 291.136 67.6004 286.973 67.3978C285.203 67.2993 283.018 67.4672 282.256 69.39C282.023 69.973 281.973 70.6371 282.116 71.2606L276.221 72.3725C276.198 72.9551 276.145 73.5355 276.062 74.1099L282.116 72.9517C281.973 72.3282 282.023 71.6641 282.256 71.0811C283.018 69.1583 285.203 68.9904 286.973 69.0888C291.136 69.3205 295.705 69.3494 298.961 66.1931C300.312 64.8959 301.822 61.6354 303.785 62.2608C305.526 62.8052 306.255 65.6546 308.074 66.2858C309.39 66.7375 310.756 66.0136 312.097 65.7067C314.026 65.2434 316.004 65.6256 317.963 65.643C319.921 65.6603 322.049 65.2144 323.385 63.4944C324.721 61.7743 324.914 59.2088 324.832 56.7069C324.774 58.647 324.441 60.4423 323.385 61.8033Z" fill="black"/>
</g>
<g opacity="0.1">
<path opacity="0.1" d="M278.729 89.6192C278.161 89.26 277.565 88.969 276.949 88.7504C275.902 88.1793 275.071 87.1588 274.619 85.8894C274.981 87.8875 275.898 89.706 277.432 90.4879C278.047 90.7065 278.643 90.9975 279.212 91.3566C279.575 91.6647 279.868 92.0768 280.065 92.5555C279.872 91.4203 279.52 90.262 278.729 89.6192Z" fill="black"/>
<path opacity="0.1" d="M286.969 103.709C284.745 104.387 281.841 104.74 280.62 102.476C280.658 103.022 280.79 103.552 281.006 104.034C282.048 106.263 284.595 106.188 286.761 105.638L286.969 103.709Z" fill="black"/>
<path opacity="0.1" d="M295.98 105.296C296.288 107.648 295.015 109.993 293.327 111.227C291.638 112.46 289.578 112.802 287.591 112.964C287.275 113.013 286.954 112.969 286.655 112.837C286.564 113.082 286.535 113.353 286.571 113.617C286.607 113.882 286.706 114.128 286.856 114.326C287.007 114.524 287.202 114.664 287.418 114.731C287.634 114.798 287.862 114.788 288.073 114.702C290.061 114.551 292.106 114.221 293.809 112.964C295.512 111.707 296.785 109.368 296.457 107.011C296.365 106.415 296.204 105.839 295.98 105.296Z" fill="black"/>
<path opacity="0.1" d="M298.122 84.3317C298.416 85.7397 298.439 87.2099 298.188 88.6301C297.937 90.0503 297.419 91.383 296.674 92.5264C295.536 94.1827 293.804 95.509 293.558 97.6344C293.476 98.6116 293.644 99.5955 294.04 100.455C293.997 100.096 293.997 99.7309 294.04 99.3718C294.287 97.2464 296.018 95.897 297.157 94.2638C299.029 91.5477 299.289 87.5459 298.122 84.3317Z" fill="black"/>
</g>
<g opacity="0.1">
<path opacity="0.1" d="M240.181 335.566C241.821 334.75 243.871 334.721 245.091 333.25C245.95 332.219 246.158 330.73 246.751 329.497C247.716 327.435 249.718 326.19 251.734 325.536C258.488 323.335 273.886 328.037 277.899 334.854C279.076 336.916 279.717 339.351 279.742 341.85C279.897 338.965 279.25 336.099 277.904 333.702C273.891 326.885 258.507 322.182 251.739 324.383C249.723 325.038 247.735 326.283 246.756 328.344C246.162 329.578 245.955 331.066 245.096 332.097C243.876 333.562 241.826 333.591 240.185 334.414C238.936 335.034 238.01 336.864 238.348 338.091C238.482 337.536 238.716 337.022 239.032 336.586C239.349 336.15 239.741 335.802 240.181 335.566Z" fill="black"/>
<path opacity="0.1" d="M235.936 343.981C236.138 342.128 237.383 340.275 239.066 340.171C238.89 340.082 238.731 339.947 238.604 339.776C238.476 339.604 238.382 339.401 238.328 339.18C237.688 339.466 237.125 339.956 236.7 340.598C236.274 341.24 236.004 342.01 235.916 342.823C235.87 343.294 235.87 343.771 235.916 344.242C235.936 344.155 235.936 344.068 235.936 343.981Z" fill="black"/>
</g>
<path d="M338.122 134.108H294.224V202.834H338.122V134.108Z" fill="white"/>
<path opacity="0.1" d="M338.122 134.108H294.224V202.834H338.122V134.108Z" fill="black"/>
<path d="M354.894 138.14L311.632 147.074L321.336 214.806L364.599 205.872L354.894 138.14Z" fill="white"/>
<path d="M332.281 191.148L322.117 193.247L324.397 209.159L334.561 207.06L332.281 191.148Z" fill="#6C63FF"/>
<path d="M346.347 188.24L336.182 190.339L338.462 206.252L348.626 204.153L346.347 188.24Z" fill="#FA6C28"/>
<path d="M356.286 164.927L320.64 172.275L322.926 188.26L358.572 180.912L356.286 164.927Z" fill="#FD602B"/>
<path d="M353.315 145.849L317.669 153.197L318.179 156.763L353.825 149.415L353.315 145.849Z" fill="#F58420"/>
<path d="M354.484 152.409L318.838 159.757L319.348 163.324L354.994 155.975L354.484 152.409Z" fill="#FC622B"/>
<path d="M318.908 115.437C318.908 115.437 298.729 139.761 308.86 145.94C318.99 152.12 325.585 125.381 325.585 125.381L327.186 119.3L318.908 115.437Z" fill="#AE6E79"/>
<path opacity="0.1" d="M317.143 113.288L314.649 119.902C314.649 119.902 326.95 121.975 329.521 126.441L327.997 114.771L326.188 109.79L317.143 113.288Z" fill="black"/>
<path d="M317.625 112.709L315.131 119.323C315.131 119.323 327.432 121.396 330.003 125.861L328.479 114.192L326.67 109.211L317.625 112.709Z" fill="#4C4981"/>
<path d="M392.088 234.31L391.823 234.531L392.189 234.728L392.585 234.687L392.633 234.357L392.088 234.31Z" fill="#464A5F"/>
<path opacity="0.1" d="M392.088 234.31L391.823 234.531L392.189 234.728L392.585 234.687L392.633 234.357L392.088 234.31Z" fill="black"/>
<path d="M392.088 234.311L391.818 234.52L391.606 234.206L391.736 233.951L391.857 233.905L392.088 234.311Z" fill="#9C9CA1"/>
<path opacity="0.1" d="M392.088 234.311L391.818 234.52L391.606 234.206L391.736 233.951L391.857 233.905L392.088 234.311Z" fill="black"/>
<path d="M439.571 194.286L419.821 160.042C419.646 159.736 419.423 159.475 419.164 159.273C418.905 159.071 418.615 158.933 418.311 158.866C418.007 158.798 417.695 158.804 417.393 158.881C417.091 158.959 416.805 159.107 416.551 159.318L372.527 195.595C372.012 196.02 371.658 196.672 371.543 197.409C371.428 198.146 371.562 198.908 371.914 199.527L391.611 234.206L439.571 194.286Z" fill="#9C9CA1"/>
<path opacity="0.1" d="M439.571 194.286L419.821 160.042C419.646 159.736 419.423 159.475 419.164 159.273C418.905 159.071 418.615 158.933 418.311 158.866C418.007 158.798 417.695 158.804 417.393 158.881C417.091 158.959 416.805 159.107 416.551 159.318L372.527 195.595C372.012 196.02 371.658 196.672 371.543 197.409C371.428 198.146 371.562 198.908 371.914 199.527L391.611 234.206L439.571 194.286Z" fill="black"/>
<path d="M440.053 194.367L420.304 160.123C420.128 159.817 419.904 159.556 419.645 159.354C419.385 159.152 419.095 159.013 418.791 158.946C418.487 158.879 418.174 158.884 417.872 158.962C417.569 159.04 417.283 159.188 417.028 159.399L373.009 195.699C372.495 196.124 372.141 196.776 372.025 197.513C371.909 198.249 372.041 199.011 372.392 199.632L392.088 234.328L440.053 194.367Z" fill="#9C9CA1"/>
<path d="M456.561 201.137L440.159 194.813L392.189 234.733L408.851 241.277C409.224 241.423 409.62 241.462 410.008 241.391C410.396 241.321 410.765 241.143 411.085 240.872L456.696 202.209C456.781 202.151 456.85 202.064 456.893 201.958C456.936 201.852 456.951 201.733 456.937 201.617C456.922 201.501 456.878 201.393 456.811 201.307C456.744 201.221 456.657 201.162 456.561 201.137Z" fill="#464A5F"/>
<path opacity="0.1" d="M456.561 201.137L440.159 194.813L392.189 234.733L408.851 241.277C409.224 241.423 409.62 241.462 410.008 241.391C410.396 241.321 410.765 241.143 411.085 240.872L456.696 202.209C456.781 202.151 456.85 202.064 456.893 201.958C456.936 201.852 456.951 201.733 456.937 201.617C456.922 201.501 456.878 201.393 456.811 201.307C456.744 201.221 456.657 201.162 456.561 201.137Z" fill="black"/>
<path d="M456.459 200.738L440.058 194.408L392.088 234.328L408.75 240.86C409.123 241.008 409.519 241.049 409.907 240.98C410.295 240.911 410.664 240.733 410.984 240.461L456.595 201.798C456.677 201.738 456.742 201.651 456.783 201.547C456.824 201.443 456.838 201.327 456.823 201.213C456.809 201.1 456.767 200.994 456.702 200.909C456.637 200.824 456.553 200.765 456.459 200.738Z" fill="#464A5F"/>
<g opacity="0.1">
<path opacity="0.1" d="M432.306 192.838L431.095 190.754C431.022 190.633 430.913 190.55 430.791 190.523C430.669 190.496 430.543 190.527 430.439 190.609L428.639 192.051C428.538 192.136 428.469 192.265 428.444 192.411C428.42 192.556 428.443 192.707 428.509 192.833L429.624 194.888C429.693 195.012 429.8 195.098 429.921 195.129C430.042 195.16 430.169 195.134 430.275 195.056L432.171 193.626C432.274 193.541 432.345 193.412 432.371 193.265C432.396 193.118 432.373 192.965 432.306 192.838Z" fill="black"/>
<path opacity="0.1" d="M429.074 195.526L427.858 193.447C427.785 193.326 427.676 193.243 427.554 193.216C427.432 193.189 427.306 193.22 427.202 193.302L425.407 194.755C425.306 194.84 425.235 194.968 425.21 195.114C425.184 195.259 425.207 195.411 425.272 195.537L426.387 197.593C426.456 197.717 426.562 197.804 426.683 197.837C426.805 197.869 426.932 197.844 427.038 197.767L428.939 196.336C428.992 196.294 429.038 196.24 429.074 196.176C429.11 196.112 429.135 196.041 429.148 195.965C429.16 195.89 429.16 195.812 429.148 195.736C429.135 195.661 429.11 195.589 429.074 195.526Z" fill="black"/>
<path opacity="0.1" d="M425.678 198.346L424.462 196.267C424.389 196.146 424.28 196.063 424.158 196.037C424.036 196.01 423.91 196.04 423.806 196.122L422.006 197.576C421.904 197.661 421.833 197.791 421.809 197.938C421.785 198.085 421.809 198.237 421.876 198.363L422.991 200.419C423.06 200.543 423.167 200.629 423.288 200.66C423.409 200.691 423.536 200.665 423.642 200.587L425.538 199.157C425.592 199.115 425.638 199.061 425.675 198.998C425.711 198.934 425.737 198.862 425.75 198.787C425.763 198.711 425.763 198.633 425.751 198.558C425.738 198.482 425.713 198.41 425.678 198.346Z" fill="black"/>
<path opacity="0.1" d="M422.238 201.207L421.022 199.122C420.95 199.003 420.842 198.921 420.721 198.894C420.6 198.868 420.475 198.897 420.371 198.977L418.572 200.437C418.471 200.522 418.401 200.651 418.377 200.797C418.353 200.942 418.376 201.093 418.442 201.219L419.556 203.275C419.625 203.397 419.73 203.483 419.85 203.516C419.971 203.548 420.096 203.524 420.202 203.448L422.103 202.012C422.156 201.97 422.202 201.916 422.237 201.852C422.273 201.789 422.297 201.718 422.31 201.643C422.322 201.568 422.323 201.491 422.31 201.417C422.298 201.342 422.273 201.271 422.238 201.207Z" fill="black"/>
<path opacity="0.1" d="M418.803 204.062L417.588 201.983C417.515 201.862 417.406 201.78 417.284 201.753C417.162 201.726 417.035 201.756 416.932 201.838L415.137 203.292C415.035 203.377 414.965 203.505 414.939 203.65C414.914 203.796 414.937 203.948 415.002 204.074L416.116 206.13C416.185 206.254 416.292 206.341 416.413 206.373C416.534 206.406 416.661 206.381 416.768 206.303L418.668 204.867C418.721 204.825 418.767 204.771 418.802 204.708C418.838 204.644 418.863 204.573 418.875 204.498C418.888 204.424 418.888 204.347 418.876 204.272C418.863 204.197 418.839 204.126 418.803 204.062Z" fill="black"/>
<path opacity="0.1" d="M415.518 207.178L414.008 204.595C413.992 204.566 413.972 204.542 413.948 204.522C413.924 204.503 413.897 204.49 413.868 204.484C413.84 204.477 413.811 204.478 413.783 204.485C413.755 204.492 413.728 204.506 413.704 204.525L411.495 206.315C411.471 206.334 411.45 206.358 411.433 206.387C411.417 206.415 411.406 206.448 411.4 206.482C411.394 206.515 411.394 206.551 411.399 206.585C411.405 206.619 411.416 206.651 411.432 206.68L412.817 209.234C412.848 209.292 412.898 209.334 412.955 209.349C413.012 209.364 413.071 209.352 413.121 209.315L415.455 207.577C415.483 207.558 415.508 207.532 415.526 207.501C415.545 207.469 415.558 207.433 415.564 207.395C415.57 207.357 415.569 207.318 415.561 207.28C415.553 207.243 415.538 207.208 415.518 207.178Z" fill="black"/>
<path opacity="0.1" d="M412.084 210.033L410.564 207.45C410.548 207.421 410.527 207.396 410.502 207.377C410.478 207.358 410.45 207.345 410.422 207.338C410.393 207.332 410.364 207.332 410.335 207.34C410.306 207.347 410.279 207.361 410.255 207.381L408.046 209.17C407.999 209.21 407.966 209.27 407.955 209.338C407.944 209.407 407.956 209.477 407.988 209.535L409.372 212.089C409.387 212.119 409.407 212.146 409.431 212.166C409.454 212.187 409.481 212.202 409.51 212.209C409.538 212.217 409.568 212.217 409.596 212.211C409.625 212.204 409.652 212.19 409.676 212.17L412.006 210.433C412.036 210.416 412.063 210.391 412.083 210.361C412.104 210.33 412.119 210.294 412.126 210.255C412.133 210.217 412.133 210.177 412.126 210.138C412.119 210.1 412.104 210.064 412.084 210.033Z" fill="black"/>
<path opacity="0.1" d="M409.04 212.564L407.53 210.004C407.496 209.948 407.445 209.91 407.388 209.898C407.332 209.886 407.273 209.901 407.226 209.94L405.016 211.724C404.968 211.764 404.934 211.825 404.923 211.894C404.911 211.963 404.922 212.035 404.954 212.095L406.338 214.649C406.371 214.706 406.42 214.747 406.477 214.762C406.533 214.777 406.592 214.765 406.642 214.73L408.977 212.992C409.009 212.974 409.037 212.947 409.059 212.913C409.08 212.879 409.095 212.84 409.101 212.798C409.107 212.756 409.104 212.712 409.094 212.672C409.083 212.631 409.065 212.594 409.04 212.564Z" fill="black"/>
<path opacity="0.1" d="M405.634 215.39L404.124 212.807C404.09 212.751 404.039 212.713 403.983 212.701C403.926 212.689 403.868 212.705 403.82 212.743L401.611 214.527C401.586 214.546 401.565 214.571 401.549 214.6C401.532 214.629 401.521 214.662 401.515 214.697C401.509 214.731 401.509 214.767 401.515 214.801C401.52 214.836 401.532 214.868 401.548 214.898L402.932 217.452C402.965 217.509 403.014 217.55 403.071 217.565C403.127 217.58 403.187 217.568 403.236 217.533L405.571 215.795C405.599 215.776 405.624 215.749 405.642 215.717C405.661 215.685 405.674 215.648 405.68 215.61C405.686 215.571 405.685 215.532 405.677 215.494C405.669 215.456 405.654 215.42 405.634 215.39Z" fill="black"/>
<path opacity="0.1" d="M402.334 218.112L400.824 215.529C400.808 215.5 400.788 215.476 400.764 215.457C400.74 215.438 400.713 215.424 400.684 215.418C400.656 215.411 400.627 215.412 400.599 215.419C400.571 215.426 400.544 215.44 400.52 215.46L398.311 217.249C398.287 217.268 398.266 217.292 398.249 217.321C398.233 217.349 398.222 217.382 398.216 217.416C398.21 217.45 398.21 217.485 398.215 217.519C398.221 217.553 398.232 217.585 398.248 217.614L399.633 220.168C399.664 220.227 399.714 220.268 399.771 220.283C399.828 220.298 399.887 220.286 399.937 220.249L402.271 218.512C402.3 218.493 402.324 218.466 402.343 218.435C402.361 218.403 402.374 218.367 402.38 218.329C402.386 218.291 402.385 218.252 402.377 218.215C402.369 218.177 402.355 218.142 402.334 218.112Z" fill="black"/>
<path opacity="0.1" d="M399.035 220.88L397.539 218.291C397.505 218.236 397.455 218.198 397.398 218.186C397.341 218.174 397.283 218.189 397.235 218.228L395.026 220.012C395.001 220.031 394.98 220.056 394.964 220.085C394.947 220.114 394.936 220.147 394.93 220.181C394.924 220.216 394.924 220.251 394.93 220.286C394.936 220.32 394.947 220.353 394.963 220.382L396.348 222.936C396.38 222.994 396.43 223.034 396.486 223.049C396.543 223.064 396.602 223.053 396.652 223.017L398.986 221.28C399.013 221.259 399.036 221.232 399.054 221.2C399.071 221.168 399.082 221.131 399.087 221.093C399.091 221.055 399.089 221.017 399.08 220.98C399.071 220.943 399.056 220.909 399.035 220.88Z" fill="black"/>
<path opacity="0.1" d="M395.735 223.62L394.225 221.037C394.209 221.008 394.189 220.983 394.165 220.964C394.14 220.945 394.114 220.932 394.085 220.925C394.057 220.919 394.028 220.919 394 220.926C393.972 220.934 393.945 220.947 393.921 220.967L391.712 222.745C391.688 222.764 391.667 222.788 391.65 222.817C391.634 222.845 391.622 222.878 391.617 222.912C391.611 222.946 391.611 222.981 391.616 223.015C391.622 223.049 391.633 223.081 391.649 223.11L393.034 225.664C393.065 225.723 393.115 225.764 393.172 225.779C393.229 225.794 393.288 225.782 393.338 225.745L395.672 224.008C395.699 223.988 395.722 223.963 395.74 223.932C395.757 223.901 395.769 223.867 395.775 223.83C395.781 223.794 395.781 223.756 395.774 223.72C395.767 223.683 395.754 223.649 395.735 223.62Z" fill="black"/>
<path opacity="0.1" d="M430.135 189.068L428.919 186.983C428.846 186.862 428.738 186.78 428.615 186.753C428.493 186.726 428.367 186.757 428.263 186.839L426.483 188.298C426.381 188.383 426.311 188.511 426.285 188.657C426.26 188.802 426.283 188.954 426.348 189.08L427.462 191.136C427.532 191.259 427.639 191.345 427.76 191.376C427.881 191.408 428.008 191.382 428.114 191.304L430.014 189.873C430.119 189.786 430.191 189.652 430.213 189.501C430.236 189.35 430.208 189.194 430.135 189.068Z" fill="black"/>
<path opacity="0.1" d="M425.383 180.827L424.168 178.731C424.095 178.611 423.987 178.53 423.866 178.503C423.745 178.476 423.62 178.506 423.516 178.586L421.717 180.04C421.615 180.124 421.544 180.253 421.519 180.398C421.494 180.544 421.517 180.695 421.582 180.821L422.696 182.877C422.765 183.001 422.872 183.089 422.993 183.121C423.114 183.154 423.241 183.128 423.348 183.051L425.248 181.621C425.353 181.536 425.425 181.405 425.45 181.257C425.476 181.109 425.452 180.954 425.383 180.827Z" fill="black"/>
<path opacity="0.1" d="M426.898 191.755L425.682 189.676C425.61 189.557 425.502 189.476 425.381 189.449C425.26 189.422 425.134 189.451 425.031 189.532L423.232 190.985C423.131 191.071 423.061 191.2 423.037 191.345C423.012 191.49 423.036 191.642 423.101 191.767L424.211 193.823C424.28 193.947 424.386 194.034 424.508 194.067C424.629 194.099 424.756 194.074 424.862 193.997L426.763 192.566C426.817 192.524 426.863 192.47 426.899 192.406C426.935 192.342 426.96 192.27 426.972 192.195C426.985 192.119 426.985 192.042 426.972 191.966C426.959 191.891 426.934 191.819 426.898 191.755Z" fill="black"/>
<path opacity="0.1" d="M423.502 194.576L422.286 192.497C422.213 192.376 422.105 192.293 421.982 192.266C421.86 192.239 421.734 192.27 421.63 192.352L419.836 193.788C419.733 193.873 419.661 194.002 419.636 194.149C419.611 194.296 419.634 194.449 419.701 194.576L420.815 196.632C420.885 196.755 420.991 196.841 421.113 196.872C421.234 196.904 421.36 196.878 421.466 196.8L423.367 195.369C423.471 195.285 423.544 195.154 423.569 195.006C423.594 194.857 423.57 194.703 423.502 194.576Z" fill="black"/>
<path opacity="0.1" d="M420.062 197.437L418.852 195.352C418.779 195.231 418.67 195.148 418.548 195.121C418.426 195.095 418.299 195.125 418.196 195.207L416.396 196.684C416.295 196.769 416.225 196.898 416.201 197.044C416.177 197.189 416.2 197.34 416.266 197.466L417.38 199.522C417.45 199.645 417.557 199.731 417.678 199.762C417.799 199.794 417.926 199.768 418.032 199.69L419.927 198.259C419.982 198.217 420.03 198.162 420.067 198.097C420.103 198.033 420.129 197.96 420.142 197.883C420.154 197.806 420.154 197.727 420.14 197.65C420.126 197.573 420.1 197.501 420.062 197.437Z" fill="black"/>
<path opacity="0.1" d="M422.224 183.648L421.008 181.568C420.935 181.449 420.827 181.368 420.706 181.341C420.585 181.314 420.46 181.343 420.357 181.424L418.557 182.877C418.456 182.962 418.385 183.09 418.36 183.236C418.334 183.381 418.357 183.533 418.422 183.659L419.537 185.715C419.606 185.839 419.712 185.927 419.833 185.959C419.954 185.991 420.082 185.966 420.188 185.889L422.088 184.458C422.142 184.416 422.188 184.362 422.224 184.298C422.26 184.234 422.285 184.163 422.298 184.087C422.31 184.012 422.31 183.934 422.298 183.858C422.285 183.783 422.26 183.711 422.224 183.648Z" fill="black"/>
<path opacity="0.1" d="M418.827 186.474L417.612 184.389C417.539 184.268 417.43 184.186 417.308 184.159C417.186 184.132 417.06 184.162 416.956 184.244L415.161 185.681C415.06 185.765 414.989 185.893 414.964 186.039C414.938 186.185 414.961 186.336 415.026 186.462L416.141 188.518C416.21 188.641 416.317 188.728 416.438 188.759C416.559 188.79 416.686 188.764 416.792 188.686L418.692 187.256C418.794 187.171 418.865 187.043 418.89 186.897C418.915 186.752 418.893 186.6 418.827 186.474Z" fill="black"/>
<path opacity="0.1" d="M415.388 189.329L414.172 187.25C414.1 187.13 413.993 187.047 413.872 187.019C413.751 186.991 413.625 187.02 413.521 187.099L411.722 188.576C411.621 188.662 411.551 188.79 411.527 188.936C411.502 189.081 411.526 189.232 411.591 189.358L412.706 191.414C412.775 191.538 412.881 191.625 413.002 191.658C413.124 191.69 413.251 191.665 413.357 191.588L415.253 190.151C415.308 190.109 415.355 190.054 415.392 189.989C415.429 189.925 415.455 189.852 415.467 189.775C415.48 189.698 415.479 189.619 415.466 189.542C415.452 189.466 415.426 189.393 415.388 189.329Z" fill="black"/>
<path opacity="0.1" d="M416.628 200.292L415.412 198.213C415.34 198.093 415.233 198.01 415.111 197.982C414.99 197.954 414.865 197.983 414.761 198.062L412.976 199.522C412.875 199.607 412.805 199.736 412.781 199.881C412.757 200.027 412.78 200.178 412.846 200.304L413.941 202.36C414.01 202.482 414.115 202.568 414.235 202.601C414.355 202.633 414.481 202.609 414.587 202.533L416.488 201.097C416.541 201.055 416.587 201.002 416.623 200.938C416.659 200.875 416.685 200.804 416.698 200.73C416.711 200.655 416.711 200.577 416.699 200.502C416.687 200.427 416.663 200.356 416.628 200.292Z" fill="black"/>
<path opacity="0.1" d="M413.193 203.147L411.977 201.068C411.905 200.947 411.796 200.864 411.674 200.837C411.551 200.81 411.425 200.841 411.321 200.923L409.527 202.377C409.425 202.461 409.354 202.59 409.329 202.735C409.304 202.881 409.326 203.032 409.392 203.159L410.506 205.215C410.575 205.339 410.681 205.426 410.803 205.458C410.924 205.491 411.051 205.466 411.157 205.388L413.058 203.958C413.112 203.916 413.158 203.861 413.194 203.797C413.23 203.734 413.255 203.662 413.267 203.586C413.28 203.511 413.28 203.433 413.267 203.358C413.254 203.282 413.229 203.211 413.193 203.147Z" fill="black"/>
<path opacity="0.1" d="M409.908 206.263L408.398 203.68C408.382 203.651 408.361 203.626 408.337 203.607C408.313 203.588 408.286 203.575 408.258 203.569C408.23 203.562 408.201 203.562 408.173 203.57C408.144 203.577 408.118 203.591 408.094 203.61L405.885 205.4C405.86 205.419 405.839 205.443 405.823 205.472C405.807 205.5 405.795 205.532 405.789 205.566C405.784 205.6 405.783 205.635 405.789 205.67C405.795 205.704 405.806 205.736 405.822 205.765L407.206 208.319C407.222 208.349 407.242 208.374 407.265 208.394C407.289 208.415 407.316 208.429 407.344 208.436C407.373 208.444 407.402 208.445 407.43 208.438C407.459 208.432 407.486 208.419 407.51 208.4L409.845 206.662C409.873 206.643 409.898 206.617 409.916 206.586C409.935 206.554 409.948 206.518 409.954 206.48C409.96 206.442 409.959 206.403 409.951 206.365C409.943 206.328 409.928 206.293 409.908 206.263Z" fill="black"/>
<path opacity="0.1" d="M406.864 208.794L405.354 206.205C405.32 206.149 405.269 206.111 405.213 206.099C405.156 206.088 405.098 206.103 405.05 206.141L402.846 207.925C402.797 207.965 402.763 208.026 402.752 208.095C402.74 208.164 402.751 208.236 402.783 208.296L404.167 210.849C404.2 210.907 404.249 210.947 404.306 210.963C404.362 210.978 404.422 210.966 404.471 210.931L406.806 209.193C406.835 209.175 406.86 209.149 406.88 209.118C406.899 209.086 406.912 209.049 406.917 209.011C406.923 208.972 406.921 208.932 406.912 208.895C406.903 208.857 406.886 208.822 406.864 208.794Z" fill="black"/>
<path opacity="0.1" d="M403.458 211.62L401.948 209.037C401.914 208.981 401.864 208.943 401.807 208.931C401.75 208.919 401.692 208.934 401.644 208.973L399.435 210.757C399.411 210.776 399.39 210.8 399.373 210.829C399.357 210.857 399.346 210.89 399.34 210.924C399.334 210.958 399.334 210.993 399.339 211.027C399.345 211.061 399.356 211.093 399.372 211.122L400.757 213.682C400.789 213.739 400.839 213.78 400.895 213.795C400.952 213.81 401.011 213.798 401.061 213.763L403.396 212.025C403.424 212.006 403.448 211.979 403.467 211.947C403.486 211.915 403.498 211.878 403.504 211.84C403.51 211.801 403.509 211.762 403.501 211.724C403.493 211.686 403.479 211.65 403.458 211.62Z" fill="black"/>
<path opacity="0.1" d="M400.159 214.365L398.649 211.782C398.633 211.754 398.612 211.729 398.588 211.71C398.564 211.691 398.537 211.678 398.509 211.671C398.481 211.665 398.451 211.665 398.423 211.672C398.395 211.679 398.368 211.693 398.345 211.713L396.135 213.479C396.111 213.498 396.09 213.522 396.074 213.551C396.057 213.579 396.046 213.612 396.04 213.646C396.034 213.68 396.034 213.715 396.04 213.749C396.045 213.783 396.057 213.815 396.073 213.844L397.457 216.398C397.489 216.457 397.538 216.498 397.595 216.513C397.652 216.528 397.712 216.516 397.761 216.479L400.096 214.742C400.121 214.722 400.143 214.697 400.16 214.668C400.176 214.638 400.188 214.605 400.194 214.569C400.2 214.534 400.2 214.498 400.194 214.463C400.187 214.428 400.176 214.395 400.159 214.365Z" fill="black"/>
<path opacity="0.1" d="M421.239 190.655L420.024 188.576C419.951 188.457 419.843 188.375 419.722 188.348C419.601 188.321 419.476 188.351 419.373 188.431L417.573 189.891C417.472 189.976 417.402 190.105 417.378 190.251C417.354 190.396 417.377 190.547 417.443 190.673L418.557 192.729C418.627 192.85 418.733 192.935 418.853 192.967C418.973 192.998 419.098 192.973 419.204 192.897L421.104 191.466C421.158 191.424 421.204 191.369 421.24 191.306C421.276 191.242 421.301 191.17 421.314 191.095C421.326 191.019 421.326 190.941 421.313 190.866C421.301 190.791 421.275 190.719 421.239 190.655Z" fill="black"/>
<path opacity="0.1" d="M417.8 193.516L416.584 191.431C416.512 191.31 416.403 191.228 416.28 191.201C416.158 191.174 416.032 191.204 415.928 191.286L414.134 192.746C414.032 192.83 413.961 192.959 413.936 193.104C413.911 193.25 413.933 193.401 413.999 193.528L415.113 195.584C415.182 195.708 415.288 195.795 415.41 195.827C415.531 195.86 415.658 195.835 415.764 195.757L417.665 194.321C417.718 194.279 417.763 194.225 417.799 194.162C417.835 194.098 417.859 194.027 417.872 193.952C417.884 193.878 417.884 193.8 417.872 193.726C417.86 193.651 417.835 193.58 417.8 193.516Z" fill="black"/>
<path opacity="0.1" d="M414.37 196.371L413.154 194.292C413.082 194.171 412.973 194.089 412.851 194.062C412.728 194.035 412.602 194.065 412.498 194.147L410.699 195.601C410.598 195.686 410.528 195.815 410.504 195.961C410.48 196.106 410.503 196.257 410.569 196.383L411.683 198.439C411.752 198.563 411.858 198.65 411.98 198.683C412.101 198.715 412.228 198.69 412.334 198.612L414.23 197.176C414.284 197.135 414.33 197.081 414.366 197.018C414.402 196.954 414.427 196.883 414.44 196.809C414.453 196.734 414.453 196.657 414.441 196.582C414.429 196.506 414.405 196.435 414.37 196.371Z" fill="black"/>
<path opacity="0.1" d="M410.931 199.226L409.715 197.147C409.642 197.028 409.534 196.946 409.413 196.919C409.292 196.893 409.167 196.922 409.064 197.002L407.264 198.456C407.163 198.542 407.094 198.67 407.069 198.816C407.045 198.961 407.068 199.112 407.134 199.238L408.248 201.317C408.317 201.44 408.423 201.526 408.543 201.558C408.663 201.591 408.789 201.566 408.895 201.491L410.796 200.06C410.852 200.018 410.901 199.963 410.938 199.897C410.976 199.831 411.002 199.757 411.015 199.679C411.027 199.6 411.026 199.52 411.012 199.442C410.998 199.364 410.97 199.291 410.931 199.226Z" fill="black"/>
<path opacity="0.1" d="M407.67 202.342L406.16 199.759C406.144 199.73 406.123 199.706 406.099 199.687C406.075 199.668 406.048 199.654 406.02 199.648C405.992 199.642 405.962 199.642 405.934 199.649C405.906 199.656 405.879 199.67 405.856 199.69L403.646 201.479C403.598 201.518 403.565 201.578 403.553 201.646C403.541 201.715 403.552 201.786 403.584 201.844L404.968 204.404C404.984 204.433 405.004 204.458 405.028 204.478C405.052 204.498 405.079 204.511 405.107 204.518C405.135 204.525 405.164 204.526 405.193 204.519C405.221 204.512 405.248 204.499 405.272 204.479L407.607 202.742C407.635 202.723 407.659 202.697 407.678 202.665C407.697 202.634 407.709 202.598 407.715 202.559C407.721 202.521 407.72 202.482 407.712 202.445C407.705 202.407 407.69 202.372 407.67 202.342Z" fill="black"/>
<path opacity="0.1" d="M404.606 204.873L403.096 202.284C403.062 202.228 403.01 202.19 402.953 202.178C402.895 202.166 402.836 202.181 402.788 202.22L400.583 204.004C400.535 204.044 400.501 204.105 400.489 204.174C400.478 204.244 400.489 204.315 400.52 204.375L401.905 206.929C401.937 206.988 401.986 207.029 402.043 207.044C402.1 207.059 402.159 207.047 402.209 207.01L404.544 205.273C404.572 205.253 404.596 205.227 404.615 205.196C404.633 205.164 404.646 205.128 404.652 205.09C404.658 205.052 404.657 205.013 404.649 204.976C404.641 204.938 404.627 204.903 404.606 204.873Z" fill="black"/>
<path opacity="0.1" d="M401.201 207.688L399.691 205.099C399.656 205.042 399.604 205.004 399.547 204.993C399.489 204.981 399.43 204.996 399.382 205.035L397.173 206.819C397.125 206.86 397.092 206.921 397.081 206.989C397.069 207.058 397.079 207.13 397.11 207.189L398.499 209.743C398.531 209.802 398.58 209.844 398.637 209.859C398.694 209.874 398.754 209.862 398.803 209.825L401.133 208.087C401.162 208.069 401.187 208.044 401.207 208.013C401.227 207.981 401.241 207.945 401.247 207.907C401.253 207.868 401.253 207.829 401.245 207.791C401.237 207.753 401.222 207.718 401.201 207.688Z" fill="black"/>
<path opacity="0.1" d="M397.901 210.444L396.391 207.861C396.375 207.832 396.354 207.808 396.329 207.788C396.305 207.769 396.277 207.756 396.249 207.75C396.22 207.743 396.191 207.744 396.162 207.751C396.133 207.758 396.106 207.772 396.082 207.792L393.873 209.581C393.826 209.621 393.793 209.682 393.782 209.75C393.772 209.818 393.783 209.888 393.815 209.946L395.2 212.5C395.214 212.531 395.234 212.557 395.258 212.578C395.281 212.598 395.308 212.613 395.337 212.62C395.365 212.628 395.395 212.629 395.424 212.622C395.452 212.615 395.479 212.601 395.504 212.581L397.833 210.844C397.862 210.826 397.888 210.801 397.908 210.769C397.927 210.738 397.941 210.702 397.947 210.664C397.954 210.625 397.953 210.586 397.945 210.548C397.937 210.51 397.922 210.474 397.901 210.444Z" fill="black"/>
<path opacity="0.1" d="M396.859 217.104L395.349 214.521C395.315 214.465 395.265 214.428 395.208 214.416C395.151 214.404 395.093 214.419 395.045 214.458L392.836 216.241C392.811 216.26 392.791 216.285 392.774 216.313C392.758 216.342 392.746 216.374 392.741 216.408C392.735 216.442 392.735 216.477 392.74 216.511C392.746 216.545 392.757 216.577 392.773 216.606L394.158 219.166C394.19 219.224 394.24 219.264 394.296 219.279C394.353 219.294 394.412 219.283 394.461 219.247L396.796 217.51C396.825 217.49 396.849 217.463 396.868 217.431C396.886 217.399 396.899 217.363 396.905 217.324C396.911 217.286 396.91 217.246 396.902 217.208C396.894 217.17 396.879 217.135 396.859 217.104Z" fill="black"/>
<path opacity="0.1" d="M393.559 219.849L392.049 217.266C392.033 217.238 392.013 217.213 391.989 217.194C391.965 217.175 391.938 217.162 391.91 217.155C391.881 217.149 391.852 217.149 391.824 217.156C391.796 217.163 391.769 217.177 391.746 217.197L389.536 218.986C389.512 219.005 389.491 219.03 389.475 219.058C389.458 219.087 389.447 219.119 389.441 219.153C389.435 219.187 389.435 219.222 389.441 219.256C389.446 219.29 389.457 219.322 389.474 219.351L390.858 221.905C390.89 221.964 390.939 222.005 390.996 222.021C391.053 222.036 391.113 222.024 391.162 221.986L393.497 220.249C393.525 220.23 393.549 220.204 393.568 220.172C393.586 220.141 393.599 220.105 393.605 220.067C393.611 220.029 393.61 219.989 393.602 219.952C393.594 219.914 393.58 219.879 393.559 219.849Z" fill="black"/>
<path opacity="0.1" d="M398.74 203.437L397.293 201.004C397.248 200.929 397.179 200.877 397.103 200.861C397.026 200.845 396.947 200.865 396.883 200.917L394.799 202.603C394.767 202.628 394.739 202.662 394.717 202.7C394.695 202.739 394.68 202.783 394.673 202.828C394.665 202.874 394.665 202.921 394.673 202.967C394.68 203.013 394.695 203.056 394.717 203.095L396.02 205.498C396.04 205.538 396.066 205.573 396.098 205.6C396.129 205.627 396.165 205.646 396.203 205.656C396.241 205.667 396.28 205.668 396.318 205.659C396.356 205.651 396.392 205.634 396.425 205.608L398.629 203.946C398.666 203.923 398.698 203.891 398.723 203.852C398.749 203.813 398.767 203.768 398.778 203.721C398.788 203.673 398.79 203.623 398.784 203.574C398.777 203.525 398.763 203.478 398.74 203.437Z" fill="black"/>
<path opacity="0.1" d="M395.441 206.182L394.018 203.749C393.996 203.711 393.968 203.678 393.936 203.652C393.903 203.627 393.867 203.609 393.829 203.601C393.791 203.592 393.751 203.593 393.714 203.602C393.676 203.612 393.64 203.63 393.608 203.657L391.524 205.371C391.491 205.396 391.464 205.429 391.442 205.467C391.42 205.505 391.405 205.548 391.398 205.593C391.39 205.639 391.39 205.685 391.398 205.731C391.405 205.776 391.42 205.819 391.442 205.857L392.744 208.267C392.787 208.344 392.853 208.399 392.928 208.42C393.004 208.44 393.083 208.425 393.149 208.377L395.354 206.715C395.391 206.689 395.423 206.654 395.448 206.612C395.473 206.57 395.491 206.522 395.499 206.472C395.507 206.421 395.506 206.369 395.496 206.319C395.486 206.269 395.467 206.222 395.441 206.182Z" fill="black"/>
<path opacity="0.1" d="M392.141 208.927L390.718 206.489C390.673 206.413 390.604 206.362 390.528 206.345C390.451 206.329 390.372 206.349 390.308 206.402L388.224 208.087C388.192 208.113 388.164 208.146 388.142 208.185C388.12 208.223 388.105 208.267 388.098 208.313C388.09 208.358 388.09 208.406 388.098 208.451C388.105 208.497 388.12 208.541 388.142 208.579L389.445 210.983C389.465 211.022 389.491 211.057 389.523 211.084C389.554 211.111 389.59 211.13 389.628 211.141C389.666 211.151 389.705 211.152 389.743 211.144C389.781 211.135 389.817 211.118 389.85 211.093L392.054 209.431C392.088 209.405 392.118 209.372 392.141 209.333C392.164 209.293 392.18 209.248 392.188 209.201C392.196 209.154 392.196 209.105 392.188 209.058C392.18 209.011 392.164 208.966 392.141 208.927Z" fill="black"/>
<path opacity="0.1" d="M388.885 211.742L387.375 209.153C387.341 209.097 387.291 209.059 387.234 209.047C387.177 209.035 387.119 209.05 387.071 209.089L384.862 210.873C384.813 210.913 384.78 210.974 384.768 211.043C384.756 211.112 384.767 211.184 384.799 211.243L386.184 213.798C386.216 213.855 386.266 213.896 386.322 213.911C386.379 213.926 386.438 213.914 386.487 213.879L388.822 212.141C388.852 212.124 388.877 212.098 388.897 212.067C388.917 212.035 388.93 211.999 388.936 211.96C388.943 211.921 388.941 211.881 388.932 211.844C388.923 211.806 388.907 211.771 388.885 211.742Z" fill="black"/>
<path opacity="0.1" d="M427.93 185.014L426.623 182.785C426.55 182.665 426.44 182.583 426.318 182.557C426.196 182.532 426.07 182.563 425.967 182.646L420.863 186.937C420.764 187.023 420.696 187.151 420.673 187.295C420.65 187.439 420.673 187.589 420.738 187.713L421.968 189.995C422.003 190.058 422.049 190.112 422.102 190.154C422.155 190.196 422.214 190.226 422.276 190.24C422.338 190.255 422.402 190.254 422.465 190.239C422.527 190.224 422.586 190.194 422.638 190.151L427.819 185.802C427.919 185.713 427.985 185.581 428.006 185.435C428.027 185.288 428 185.138 427.93 185.014Z" fill="black"/>
<path opacity="0.1" d="M394.592 213.102L392.99 210.386C392.974 210.357 392.953 210.332 392.928 210.313C392.904 210.294 392.876 210.281 392.847 210.275C392.818 210.269 392.789 210.271 392.76 210.279C392.732 210.287 392.705 210.302 392.681 210.323L387.172 214.956C387.125 214.994 387.093 215.054 387.082 215.121C387.071 215.188 387.083 215.258 387.115 215.315L388.62 218.112C388.636 218.142 388.657 218.168 388.681 218.188C388.706 218.209 388.734 218.223 388.763 218.23C388.792 218.237 388.822 218.237 388.852 218.229C388.881 218.222 388.909 218.208 388.933 218.187L394.534 213.479C394.583 213.438 394.616 213.375 394.627 213.305C394.638 213.234 394.625 213.162 394.592 213.102Z" fill="black"/>
<path opacity="0.1" d="M412.117 192.329L410.641 189.734C410.608 189.678 410.558 189.639 410.501 189.626C410.444 189.613 410.385 189.627 410.337 189.665L398.104 199.58C398.055 199.619 398.022 199.679 398.01 199.747C397.999 199.815 398.01 199.886 398.041 199.945L399.551 202.724C399.567 202.755 399.588 202.781 399.613 202.801C399.637 202.821 399.665 202.835 399.694 202.842C399.724 202.849 399.754 202.849 399.783 202.842C399.812 202.834 399.84 202.82 399.864 202.8L412.059 192.7C412.084 192.68 412.104 192.655 412.12 192.625C412.136 192.596 412.147 192.563 412.152 192.529C412.158 192.494 412.157 192.459 412.151 192.425C412.145 192.39 412.134 192.358 412.117 192.329Z" fill="black"/>
</g>
<path d="M432.629 192.908L431.413 190.823C431.341 190.702 431.232 190.62 431.109 190.593C430.987 190.566 430.861 190.596 430.757 190.678L428.963 192.138C428.861 192.222 428.79 192.351 428.765 192.496C428.74 192.642 428.762 192.793 428.828 192.92L429.942 194.975C430.011 195.099 430.117 195.187 430.239 195.219C430.36 195.252 430.487 195.226 430.593 195.149L432.494 193.713C432.547 193.671 432.592 193.617 432.628 193.553C432.663 193.49 432.688 193.419 432.701 193.344C432.713 193.269 432.713 193.192 432.701 193.117C432.689 193.043 432.664 192.971 432.629 192.908Z" fill="#464A5F"/>
<path d="M429.378 195.595L428.162 193.516C428.089 193.397 427.981 193.315 427.86 193.288C427.739 193.261 427.614 193.291 427.511 193.371L425.711 194.825C425.61 194.91 425.539 195.038 425.514 195.183C425.488 195.329 425.511 195.48 425.576 195.607L426.691 197.663C426.76 197.787 426.866 197.874 426.987 197.906C427.108 197.939 427.236 197.914 427.342 197.836L429.242 196.406C429.296 196.364 429.342 196.309 429.378 196.246C429.414 196.182 429.439 196.11 429.452 196.035C429.464 195.959 429.464 195.881 429.452 195.806C429.439 195.73 429.414 195.659 429.378 195.595Z" fill="#464A5F"/>
<path d="M426.001 198.421L424.785 196.342C424.712 196.221 424.603 196.139 424.481 196.112C424.359 196.085 424.233 196.115 424.129 196.197L422.335 197.657C422.233 197.741 422.162 197.87 422.137 198.015C422.112 198.161 422.134 198.312 422.199 198.439L423.314 200.495C423.384 200.618 423.49 200.704 423.611 200.735C423.733 200.766 423.859 200.74 423.965 200.662L425.866 199.232C425.919 199.19 425.966 199.135 426.001 199.072C426.037 199.008 426.062 198.936 426.075 198.861C426.088 198.785 426.087 198.707 426.075 198.632C426.062 198.556 426.037 198.485 426.001 198.421Z" fill="#464A5F"/>
<path d="M422.556 201.277L421.341 199.192C421.268 199.072 421.16 198.991 421.039 198.964C420.918 198.937 420.793 198.967 420.69 199.047L418.89 200.506C418.837 200.549 418.792 200.605 418.757 200.669C418.722 200.733 418.698 200.805 418.686 200.88C418.675 200.956 418.676 201.033 418.689 201.108C418.702 201.183 418.728 201.254 418.765 201.317L419.879 203.373C419.948 203.497 420.054 203.584 420.176 203.617C420.297 203.649 420.424 203.624 420.53 203.547L422.426 202.11C422.482 202.068 422.53 202.012 422.568 201.946C422.605 201.88 422.63 201.806 422.643 201.728C422.655 201.649 422.654 201.569 422.639 201.491C422.624 201.414 422.596 201.341 422.556 201.277Z" fill="#464A5F"/>
<path d="M419.122 204.132L417.906 202.053C417.833 201.933 417.726 201.852 417.604 201.825C417.483 201.798 417.358 201.828 417.255 201.908L415.456 203.361C415.355 203.447 415.285 203.576 415.261 203.721C415.236 203.867 415.259 204.018 415.325 204.143L416.435 206.199C416.504 206.323 416.61 206.41 416.731 206.443C416.853 206.475 416.98 206.45 417.086 206.373L418.987 204.937C419.04 204.895 419.085 204.84 419.121 204.777C419.156 204.714 419.181 204.643 419.194 204.568C419.206 204.493 419.206 204.416 419.194 204.341C419.182 204.266 419.157 204.195 419.122 204.132Z" fill="#464A5F"/>
<path d="M415.837 207.247L414.327 204.664C414.311 204.636 414.29 204.611 414.266 204.592C414.242 204.573 414.215 204.56 414.187 204.553C414.159 204.547 414.129 204.547 414.101 204.554C414.073 204.561 414.046 204.575 414.023 204.595L411.813 206.384C411.789 206.403 411.768 206.428 411.752 206.456C411.735 206.485 411.724 206.517 411.718 206.551C411.712 206.585 411.712 206.62 411.718 206.654C411.723 206.688 411.735 206.721 411.751 206.749L413.135 209.303C413.167 209.362 413.216 209.404 413.273 209.419C413.33 209.434 413.39 209.422 413.439 209.385L415.774 207.647C415.802 207.628 415.826 207.602 415.845 207.57C415.864 207.539 415.876 207.503 415.882 207.465C415.888 207.427 415.887 207.387 415.879 207.35C415.872 207.312 415.857 207.277 415.837 207.247Z" fill="#464A5F"/>
<path d="M412.402 210.103L410.892 207.52C410.876 207.491 410.855 207.466 410.83 207.447C410.806 207.428 410.778 207.414 410.75 207.408C410.721 207.402 410.692 207.402 410.663 207.409C410.634 207.416 410.607 207.43 410.583 207.45L408.379 209.24C408.354 209.258 408.333 209.283 408.317 209.311C408.301 209.34 408.289 209.372 408.283 209.406C408.278 209.44 408.277 209.475 408.283 209.509C408.289 209.543 408.3 209.576 408.316 209.604L409.701 212.164C409.716 212.193 409.736 212.219 409.76 212.238C409.784 212.258 409.811 212.272 409.839 212.279C409.868 212.286 409.897 212.286 409.925 212.279C409.953 212.272 409.98 212.259 410.004 212.24L412.339 210.502C412.367 210.482 412.39 210.456 412.409 210.424C412.427 210.393 412.439 210.357 412.445 210.319C412.451 210.281 412.45 210.243 412.443 210.205C412.435 210.168 412.421 210.133 412.402 210.103Z" fill="#464A5F"/>
<path d="M409.358 212.633L407.848 210.045C407.814 209.989 407.764 209.951 407.707 209.939C407.65 209.927 407.592 209.942 407.544 209.981L405.335 211.742C405.286 211.782 405.253 211.843 405.241 211.912C405.229 211.981 405.24 212.053 405.272 212.112L406.657 214.666C406.689 214.724 406.739 214.764 406.795 214.779C406.852 214.794 406.911 214.783 406.96 214.747L409.295 213.01C409.32 212.991 409.342 212.965 409.359 212.936C409.376 212.906 409.387 212.873 409.393 212.838C409.399 212.803 409.399 212.766 409.393 212.731C409.387 212.696 409.375 212.663 409.358 212.633Z" fill="#464A5F"/>
<path d="M405.952 215.465L404.442 212.9C404.408 212.844 404.358 212.806 404.301 212.794C404.244 212.782 404.186 212.797 404.138 212.836L401.929 214.62C401.905 214.639 401.884 214.664 401.867 214.693C401.851 214.722 401.839 214.755 401.833 214.79C401.828 214.824 401.828 214.86 401.833 214.894C401.839 214.929 401.85 214.961 401.866 214.991L403.251 217.545C403.283 217.602 403.333 217.643 403.389 217.658C403.446 217.673 403.505 217.661 403.555 217.626L405.89 215.888C405.921 215.87 405.948 215.843 405.969 215.809C405.99 215.776 406.004 215.737 406.01 215.696C406.016 215.655 406.014 215.612 406.004 215.572C405.994 215.532 405.976 215.496 405.952 215.465Z" fill="#464A5F"/>
<path d="M402.653 218.204L401.143 215.622C401.127 215.593 401.106 215.568 401.082 215.549C401.058 215.53 401.031 215.517 401.003 215.51C400.975 215.504 400.946 215.504 400.917 215.511C400.889 215.519 400.863 215.532 400.839 215.552L398.629 217.342C398.605 217.36 398.584 217.385 398.568 217.413C398.551 217.442 398.54 217.474 398.534 217.508C398.528 217.542 398.528 217.577 398.534 217.611C398.539 217.645 398.551 217.678 398.567 217.706L399.951 220.26C399.966 220.29 399.987 220.316 400.01 220.336C400.034 220.356 400.061 220.37 400.089 220.378C400.117 220.386 400.147 220.386 400.175 220.38C400.204 220.374 400.231 220.361 400.255 220.341L402.59 218.604C402.618 218.585 402.642 218.559 402.661 218.527C402.68 218.496 402.693 218.46 402.699 218.422C402.704 218.384 402.703 218.345 402.696 218.307C402.688 218.27 402.673 218.235 402.653 218.204Z" fill="#464A5F"/>
<path d="M399.353 220.95L397.843 218.361C397.809 218.305 397.759 218.267 397.702 218.255C397.645 218.243 397.587 218.258 397.539 218.297L395.33 220.081C395.281 220.121 395.248 220.182 395.236 220.251C395.224 220.32 395.235 220.392 395.267 220.452L396.652 223.006C396.684 223.063 396.734 223.104 396.79 223.119C396.847 223.134 396.906 223.122 396.955 223.087L399.29 221.349C399.318 221.33 399.343 221.304 399.361 221.272C399.38 221.241 399.393 221.205 399.399 221.167C399.405 221.129 399.404 221.09 399.396 221.052C399.388 221.015 399.373 220.98 399.353 220.95Z" fill="#464A5F"/>
<path d="M396.053 223.689L394.543 221.106C394.527 221.077 394.507 221.053 394.483 221.033C394.459 221.014 394.432 221.001 394.404 220.995C394.375 220.988 394.346 220.989 394.318 220.996C394.29 221.003 394.263 221.017 394.24 221.036L392.03 222.826C392.006 222.845 391.985 222.869 391.969 222.898C391.952 222.926 391.941 222.959 391.935 222.993C391.929 223.027 391.929 223.062 391.935 223.096C391.94 223.13 391.951 223.162 391.967 223.191L393.352 225.745C393.367 225.774 393.387 225.8 393.411 225.82C393.435 225.841 393.461 225.855 393.49 225.862C393.518 225.87 393.547 225.871 393.576 225.864C393.604 225.858 393.632 225.845 393.656 225.826L395.991 224.088C396.019 224.069 396.043 224.043 396.062 224.012C396.08 223.98 396.093 223.944 396.099 223.906C396.105 223.868 396.104 223.829 396.096 223.791C396.088 223.754 396.074 223.719 396.053 223.689Z" fill="#464A5F"/>
<path d="M430.453 189.155L429.238 187.07C429.165 186.951 429.057 186.869 428.936 186.842C428.815 186.816 428.69 186.845 428.586 186.925L426.787 188.385C426.686 188.47 426.616 188.599 426.592 188.745C426.568 188.89 426.591 189.041 426.657 189.167L427.766 191.223C427.835 191.347 427.942 191.434 428.063 191.466C428.184 191.499 428.311 191.474 428.418 191.396L430.318 189.96C430.371 189.918 430.417 189.864 430.452 189.8C430.488 189.737 430.513 189.666 430.525 189.591C430.538 189.516 430.538 189.439 430.525 189.365C430.513 189.29 430.489 189.219 430.453 189.155Z" fill="#464A5F"/>
<path d="M425.702 180.897L424.486 178.818C424.413 178.698 424.306 178.617 424.184 178.59C424.063 178.563 423.938 178.593 423.835 178.673L422.035 180.126C421.934 180.212 421.865 180.341 421.84 180.486C421.816 180.632 421.839 180.783 421.905 180.908L423.02 182.964C423.088 183.087 423.194 183.173 423.314 183.205C423.434 183.237 423.56 183.213 423.666 183.138L425.567 181.707C425.62 181.665 425.667 181.611 425.702 181.547C425.738 181.483 425.763 181.412 425.776 181.336C425.789 181.261 425.788 181.183 425.776 181.107C425.763 181.032 425.738 180.96 425.702 180.897Z" fill="#464A5F"/>
<path d="M427.216 191.825L426.001 189.734C425.928 189.615 425.82 189.533 425.699 189.506C425.578 189.479 425.453 189.509 425.35 189.589L423.55 191.043C423.449 191.128 423.379 191.257 423.355 191.403C423.331 191.548 423.354 191.699 423.42 191.825L424.534 193.881C424.603 194.003 424.709 194.09 424.829 194.122C424.949 194.154 425.075 194.13 425.181 194.055L427.081 192.624C427.187 192.539 427.261 192.407 427.286 192.258C427.311 192.108 427.286 191.953 427.216 191.825Z" fill="#464A5F"/>
<path d="M423.82 194.645L422.624 192.566C422.551 192.447 422.443 192.365 422.322 192.338C422.201 192.311 422.076 192.341 421.973 192.421L420.173 193.875C420.071 193.961 420 194.091 419.976 194.237C419.952 194.384 419.976 194.537 420.043 194.663L421.153 196.719C421.222 196.842 421.329 196.928 421.45 196.959C421.572 196.991 421.698 196.965 421.804 196.887L423.705 195.456C423.757 195.412 423.801 195.356 423.835 195.292C423.869 195.227 423.892 195.155 423.903 195.08C423.914 195.004 423.912 194.927 423.898 194.853C423.884 194.778 423.857 194.708 423.82 194.645Z" fill="#464A5F"/>
<path d="M420.386 197.506L419.17 195.421C419.097 195.3 418.988 195.218 418.866 195.191C418.744 195.164 418.618 195.195 418.514 195.277L416.719 196.736C416.618 196.821 416.547 196.949 416.522 197.095C416.497 197.24 416.519 197.392 416.584 197.518L417.699 199.574C417.768 199.698 417.874 199.785 417.995 199.818C418.117 199.85 418.244 199.825 418.35 199.748L420.251 198.311C420.304 198.269 420.349 198.215 420.385 198.152C420.42 198.088 420.445 198.017 420.457 197.943C420.47 197.868 420.47 197.791 420.458 197.716C420.445 197.641 420.421 197.57 420.386 197.506Z" fill="#464A5F"/>
<path d="M422.542 183.717L421.326 181.626C421.254 181.507 421.146 181.426 421.025 181.399C420.904 181.372 420.779 181.401 420.675 181.482L418.876 182.935C418.775 183.021 418.705 183.15 418.681 183.295C418.656 183.441 418.68 183.592 418.746 183.717L419.86 185.773C419.929 185.896 420.034 185.982 420.154 186.014C420.274 186.047 420.4 186.022 420.506 185.947L422.407 184.516C422.513 184.431 422.586 184.3 422.611 184.15C422.637 184 422.612 183.845 422.542 183.717Z" fill="#464A5F"/>
<path d="M419.146 186.543L417.93 184.458C417.858 184.339 417.75 184.257 417.629 184.23C417.507 184.203 417.382 184.233 417.279 184.313L415.48 185.773C415.378 185.857 415.307 185.986 415.282 186.131C415.257 186.277 415.279 186.428 415.345 186.555L416.459 188.611C416.528 188.735 416.634 188.822 416.756 188.855C416.877 188.887 417.004 188.862 417.11 188.784L419.011 187.348C419.064 187.306 419.109 187.252 419.145 187.189C419.18 187.125 419.205 187.054 419.218 186.979C419.23 186.905 419.23 186.827 419.218 186.753C419.206 186.678 419.181 186.607 419.146 186.543Z" fill="#464A5F"/>
<path d="M415.711 189.398L414.496 187.319C414.423 187.198 414.314 187.116 414.192 187.089C414.07 187.062 413.943 187.093 413.839 187.175L412.045 188.628C411.943 188.713 411.872 188.841 411.847 188.987C411.822 189.132 411.845 189.284 411.91 189.41L413.024 191.472C413.093 191.596 413.199 191.683 413.321 191.716C413.442 191.748 413.569 191.723 413.675 191.646L415.571 190.209C415.625 190.168 415.672 190.113 415.708 190.05C415.745 189.986 415.77 189.915 415.783 189.839C415.796 189.764 415.797 189.686 415.784 189.61C415.772 189.534 415.747 189.462 415.711 189.398Z" fill="#464A5F"/>
<path d="M416.946 200.361L415.73 198.282C415.658 198.163 415.55 198.082 415.429 198.055C415.308 198.028 415.183 198.057 415.079 198.138L413.28 199.58C413.179 199.665 413.109 199.794 413.085 199.939C413.061 200.085 413.084 200.236 413.15 200.361L414.264 202.417C414.333 202.54 414.438 202.626 414.558 202.658C414.679 202.691 414.805 202.667 414.91 202.591L416.811 201.155C416.915 201.07 416.988 200.939 417.013 200.791C417.039 200.643 417.014 200.489 416.946 200.361Z" fill="#464A5F"/>
<path d="M413.511 203.216L412.296 201.137C412.223 201.018 412.115 200.937 411.994 200.91C411.873 200.883 411.748 200.912 411.645 200.993L409.845 202.475C409.743 202.56 409.673 202.688 409.648 202.834C409.622 202.979 409.645 203.131 409.71 203.257L410.824 205.313C410.893 205.437 411 205.524 411.121 205.557C411.242 205.589 411.369 205.564 411.476 205.487L413.376 204.056C413.434 204.014 413.483 203.958 413.521 203.892C413.559 203.826 413.585 203.751 413.598 203.672C413.611 203.593 413.61 203.512 413.595 203.433C413.58 203.355 413.551 203.281 413.511 203.216Z" fill="#464A5F"/>
<path d="M410.226 206.332L408.716 203.749C408.7 203.721 408.68 203.696 408.656 203.677C408.632 203.658 408.605 203.645 408.577 203.638C408.548 203.632 408.519 203.632 408.491 203.639C408.463 203.646 408.436 203.66 408.412 203.68L406.222 205.469C406.198 205.488 406.177 205.512 406.161 205.541C406.144 205.57 406.133 205.602 406.127 205.636C406.121 205.67 406.121 205.705 406.127 205.739C406.132 205.773 406.144 205.805 406.16 205.834L407.544 208.388C407.559 208.418 407.579 208.443 407.603 208.464C407.627 208.484 407.654 208.498 407.682 208.506C407.71 208.513 407.74 208.514 407.768 208.508C407.797 208.501 407.824 208.488 407.848 208.469L410.183 206.732C410.209 206.71 410.231 206.682 410.247 206.65C410.264 206.617 410.274 206.581 410.278 206.543C410.282 206.506 410.28 206.468 410.271 206.431C410.262 206.395 410.247 206.361 410.226 206.332Z" fill="#464A5F"/>
<path d="M407.187 208.846L405.677 206.257C405.643 206.201 405.591 206.163 405.534 206.151C405.476 206.139 405.417 206.154 405.369 206.193L403.159 207.977C403.112 208.018 403.079 208.079 403.067 208.148C403.056 208.216 403.066 208.288 403.096 208.348L404.486 210.902C404.517 210.96 404.567 211.002 404.624 211.017C404.681 211.032 404.74 211.02 404.79 210.983L407.12 209.245C407.149 209.228 407.174 209.202 407.194 209.171C407.214 209.14 407.227 209.103 407.234 209.065C407.24 209.027 407.239 208.987 407.231 208.949C407.223 208.911 407.208 208.876 407.187 208.846Z" fill="#464A5F"/>
<path d="M403.777 211.695L402.267 209.107C402.233 209.051 402.182 209.013 402.126 209.001C402.069 208.989 402.011 209.004 401.963 209.043L399.753 210.827C399.705 210.867 399.671 210.928 399.66 210.997C399.648 211.066 399.659 211.138 399.691 211.197L401.075 213.751C401.108 213.809 401.157 213.849 401.214 213.864C401.27 213.879 401.329 213.868 401.379 213.832L403.714 212.095C403.743 212.077 403.769 212.052 403.789 212.02C403.809 211.989 403.822 211.953 403.828 211.914C403.834 211.875 403.833 211.835 403.824 211.797C403.815 211.759 403.799 211.724 403.777 211.695Z" fill="#464A5F"/>
<path d="M400.482 214.434L398.986 211.852C398.97 211.823 398.95 211.798 398.926 211.779C398.902 211.76 398.875 211.747 398.847 211.74C398.818 211.734 398.789 211.734 398.761 211.741C398.733 211.749 398.706 211.762 398.682 211.782L396.473 213.572C396.425 213.61 396.392 213.67 396.38 213.739C396.368 213.807 396.379 213.878 396.41 213.936L397.795 216.49C397.827 216.549 397.876 216.59 397.933 216.606C397.99 216.621 398.049 216.608 398.099 216.571L400.434 214.834C400.461 214.814 400.485 214.787 400.503 214.755C400.52 214.723 400.532 214.686 400.537 214.648C400.541 214.61 400.539 214.571 400.529 214.534C400.52 214.497 400.504 214.463 400.482 214.434Z" fill="#464A5F"/>
<path d="M421.558 190.73L420.347 188.645C420.274 188.524 420.165 188.442 420.043 188.415C419.921 188.388 419.795 188.419 419.691 188.501L417.892 189.96C417.791 190.046 417.721 190.174 417.697 190.32C417.672 190.465 417.696 190.616 417.761 190.742L418.876 192.798C418.945 192.921 419.052 193.007 419.173 193.039C419.295 193.07 419.421 193.044 419.527 192.966L421.423 191.535C421.476 191.493 421.521 191.439 421.557 191.376C421.592 191.312 421.617 191.241 421.63 191.167C421.642 191.092 421.642 191.015 421.63 190.94C421.618 190.865 421.593 190.794 421.558 190.73Z" fill="#464A5F"/>
<path d="M418.123 193.585L416.908 191.506C416.836 191.386 416.728 191.303 416.607 191.275C416.486 191.247 416.36 191.276 416.256 191.356L414.457 192.815C414.356 192.901 414.286 193.029 414.262 193.175C414.238 193.32 414.261 193.472 414.327 193.597L415.441 195.653C415.51 195.776 415.615 195.862 415.736 195.894C415.856 195.926 415.982 195.902 416.087 195.827L417.988 194.391C418.041 194.348 418.087 194.294 418.122 194.231C418.158 194.168 418.182 194.096 418.195 194.022C418.208 193.947 418.208 193.87 418.195 193.795C418.183 193.72 418.158 193.649 418.123 193.585Z" fill="#464A5F"/>
<path d="M414.689 196.441L413.458 194.367C413.386 194.247 413.277 194.164 413.155 194.137C413.032 194.11 412.906 194.141 412.802 194.223L411.046 195.67C410.945 195.755 410.874 195.883 410.849 196.029C410.824 196.175 410.846 196.326 410.911 196.452L412.026 198.508C412.095 198.632 412.201 198.72 412.322 198.752C412.444 198.784 412.571 198.759 412.677 198.682L414.578 197.252C414.629 197.207 414.673 197.151 414.707 197.086C414.741 197.021 414.763 196.949 414.774 196.874C414.784 196.798 414.782 196.721 414.767 196.647C414.753 196.573 414.726 196.503 414.689 196.441Z" fill="#464A5F"/>
<path d="M411.249 199.296L410.033 197.217C409.961 197.097 409.853 197.016 409.732 196.989C409.611 196.962 409.486 196.992 409.382 197.072L407.583 198.526C407.482 198.611 407.412 198.74 407.388 198.885C407.364 199.031 407.387 199.182 407.453 199.307L408.567 201.363C408.636 201.486 408.741 201.572 408.861 201.604C408.982 201.637 409.107 201.613 409.213 201.537L411.114 200.107C411.168 200.064 411.214 200.01 411.25 199.946C411.286 199.882 411.311 199.811 411.323 199.735C411.336 199.66 411.336 199.582 411.323 199.507C411.31 199.431 411.285 199.359 411.249 199.296Z" fill="#464A5F"/>
<path d="M407.969 202.412L406.459 199.829C406.442 199.8 406.421 199.775 406.397 199.756C406.373 199.737 406.345 199.723 406.316 199.717C406.288 199.711 406.258 199.711 406.23 199.718C406.201 199.725 406.174 199.739 406.15 199.759L403.941 201.549C403.893 201.588 403.859 201.648 403.847 201.716C403.836 201.784 403.847 201.855 403.878 201.914L405.262 204.473C405.279 204.503 405.299 204.528 405.324 204.548C405.348 204.568 405.375 204.581 405.404 204.588C405.432 204.595 405.462 204.595 405.491 204.589C405.52 204.582 405.547 204.568 405.571 204.549L407.901 202.811C407.93 202.793 407.954 202.767 407.974 202.736C407.993 202.704 408.006 202.668 408.013 202.63C408.019 202.592 408.018 202.553 408.011 202.515C408.003 202.477 407.989 202.442 407.969 202.412Z" fill="#464A5F"/>
<path d="M404.925 204.942L403.415 202.359C403.399 202.331 403.378 202.306 403.354 202.287C403.33 202.268 403.303 202.255 403.275 202.248C403.247 202.242 403.218 202.242 403.189 202.249C403.161 202.256 403.135 202.27 403.111 202.29L400.916 204.074C400.868 204.114 400.834 204.175 400.822 204.244C400.811 204.313 400.822 204.385 400.853 204.444L402.238 206.998C402.27 207.056 402.32 207.096 402.376 207.111C402.433 207.126 402.492 207.115 402.542 207.079L404.877 205.342C404.903 205.321 404.926 205.294 404.944 205.262C404.961 205.23 404.972 205.193 404.977 205.155C404.982 205.118 404.979 205.079 404.97 205.042C404.961 205.005 404.946 204.971 404.925 204.942Z" fill="#464A5F"/>
<path d="M401.519 207.774L400.009 205.186C399.974 205.129 399.923 205.091 399.865 205.079C399.808 205.068 399.749 205.083 399.7 205.122L397.496 206.906C397.447 206.946 397.414 207.007 397.402 207.076C397.39 207.145 397.402 207.217 397.433 207.276L398.818 209.83C398.849 209.889 398.899 209.93 398.956 209.946C399.013 209.961 399.072 209.949 399.122 209.911L401.456 208.174C401.484 208.155 401.509 208.129 401.527 208.097C401.546 208.066 401.559 208.03 401.565 207.992C401.571 207.954 401.57 207.915 401.562 207.877C401.554 207.839 401.539 207.804 401.519 207.774Z" fill="#464A5F"/>
<path d="M398.219 210.514L396.709 207.931C396.693 207.902 396.672 207.877 396.648 207.858C396.623 207.839 396.596 207.825 396.567 207.819C396.538 207.813 396.509 207.813 396.48 207.82C396.452 207.827 396.425 207.841 396.401 207.861L394.196 209.651C394.172 209.669 394.151 209.694 394.135 209.722C394.118 209.751 394.107 209.783 394.101 209.817C394.095 209.851 394.095 209.886 394.101 209.92C394.106 209.954 394.117 209.987 394.133 210.016L395.518 212.575C395.534 212.604 395.554 212.63 395.578 212.649C395.602 212.669 395.628 212.683 395.657 212.69C395.685 212.697 395.714 212.697 395.743 212.69C395.771 212.683 395.798 212.67 395.822 212.651L398.157 210.913C398.184 210.893 398.208 210.867 398.226 210.835C398.244 210.804 398.257 210.768 398.263 210.73C398.269 210.693 398.268 210.654 398.26 210.616C398.253 210.579 398.239 210.544 398.219 210.514Z" fill="#464A5F"/>
<path d="M397.182 217.179L395.672 214.591C395.638 214.535 395.586 214.497 395.529 214.485C395.471 214.473 395.412 214.488 395.364 214.527L393.154 216.311C393.106 216.351 393.072 216.412 393.06 216.481C393.049 216.55 393.06 216.622 393.092 216.681L394.476 219.235C394.508 219.293 394.558 219.333 394.615 219.348C394.671 219.363 394.73 219.352 394.78 219.316L397.115 217.579C397.144 217.561 397.169 217.536 397.189 217.505C397.209 217.473 397.222 217.437 397.229 217.399C397.235 217.36 397.234 217.321 397.226 217.283C397.218 217.245 397.203 217.21 397.182 217.179Z" fill="#464A5F"/>
<path d="M393.883 219.919L392.373 217.336C392.356 217.307 392.335 217.282 392.311 217.263C392.286 217.244 392.259 217.231 392.23 217.224C392.202 217.218 392.172 217.218 392.144 217.226C392.115 217.233 392.088 217.247 392.064 217.267L389.855 219.056C389.807 219.095 389.773 219.155 389.761 219.223C389.75 219.291 389.761 219.362 389.792 219.421L391.176 221.975C391.192 222.005 391.213 222.03 391.237 222.051C391.261 222.071 391.288 222.085 391.317 222.093C391.345 222.1 391.375 222.101 391.404 222.095C391.433 222.088 391.461 222.075 391.485 222.056L393.815 220.318C393.844 220.301 393.87 220.275 393.889 220.244C393.909 220.213 393.923 220.177 393.929 220.138C393.936 220.1 393.935 220.06 393.927 220.022C393.919 219.984 393.904 219.949 393.883 219.919Z" fill="#464A5F"/>
<path d="M399.059 203.512L397.636 201.074C397.59 200.998 397.522 200.947 397.445 200.931C397.369 200.914 397.29 200.934 397.226 200.987L395.127 202.672C395.063 202.725 395.018 202.806 395.003 202.898C394.987 202.99 395.003 203.086 395.045 203.164L396.348 205.573C396.391 205.652 396.458 205.707 396.535 205.726C396.612 205.746 396.692 205.728 396.758 205.678L398.958 204.016C398.993 203.992 399.024 203.96 399.048 203.921C399.073 203.882 399.09 203.838 399.1 203.79C399.109 203.743 399.111 203.694 399.104 203.646C399.097 203.598 399.081 203.552 399.059 203.512Z" fill="#464A5F"/>
<path d="M395.759 206.251L394.336 203.819C394.314 203.78 394.286 203.747 394.254 203.722C394.222 203.696 394.185 203.679 394.147 203.67C394.109 203.662 394.07 203.662 394.032 203.672C393.994 203.681 393.958 203.7 393.926 203.726L391.842 205.417C391.778 205.469 391.733 205.549 391.718 205.64C391.703 205.731 391.718 205.826 391.76 205.904L393.063 208.313C393.106 208.391 393.173 208.446 393.249 208.467C393.326 208.487 393.406 208.472 393.473 208.423L395.677 206.761C395.711 206.734 395.739 206.7 395.762 206.659C395.784 206.619 395.799 206.574 395.807 206.527C395.814 206.479 395.814 206.43 395.806 206.383C395.798 206.336 395.782 206.291 395.759 206.251Z" fill="#464A5F"/>
<path d="M392.46 208.996L391.012 206.558C390.968 206.483 390.9 206.432 390.824 206.415C390.749 206.399 390.671 206.419 390.607 206.471L388.518 208.156C388.454 208.209 388.409 208.291 388.394 208.383C388.378 208.475 388.394 208.57 388.436 208.649L389.739 211.058C389.782 211.136 389.849 211.191 389.926 211.211C390.003 211.23 390.083 211.213 390.149 211.162L392.353 209.5C392.389 209.477 392.421 209.445 392.446 209.406C392.47 209.368 392.489 209.323 392.498 209.276C392.508 209.229 392.51 209.179 392.503 209.131C392.497 209.083 392.482 209.037 392.46 208.996Z" fill="#464A5F"/>
<path d="M389.208 211.817L387.698 209.228C387.664 209.172 387.612 209.133 387.555 209.122C387.497 209.11 387.438 209.125 387.39 209.164L385.18 210.948C385.133 210.989 385.1 211.05 385.089 211.119C385.078 211.188 385.09 211.26 385.122 211.319L386.507 213.873C386.538 213.931 386.588 213.973 386.645 213.988C386.702 214.003 386.761 213.991 386.811 213.954L389.146 212.216C389.174 212.197 389.198 212.171 389.217 212.139C389.235 212.108 389.248 212.072 389.254 212.034C389.26 211.996 389.259 211.957 389.251 211.919C389.243 211.882 389.229 211.847 389.208 211.817Z" fill="#464A5F"/>
<path d="M428.254 185.101L426.966 182.866C426.892 182.746 426.783 182.664 426.661 182.639C426.539 182.613 426.413 182.644 426.309 182.727L421.177 187.018C421.078 187.104 421.01 187.233 420.987 187.377C420.963 187.521 420.986 187.67 421.051 187.794L422.286 190.076C422.322 190.139 422.367 190.193 422.42 190.236C422.473 190.278 422.532 190.307 422.595 190.321C422.657 190.336 422.721 190.335 422.783 190.32C422.845 190.305 422.904 190.275 422.957 190.232L428.133 185.883C428.232 185.796 428.3 185.666 428.323 185.521C428.345 185.376 428.32 185.226 428.254 185.101Z" fill="#464A5F"/>
<path d="M394.91 213.172L393.309 210.456C393.292 210.427 393.271 210.402 393.246 210.383C393.222 210.364 393.194 210.351 393.166 210.345C393.137 210.339 393.107 210.34 393.079 210.348C393.05 210.356 393.023 210.371 393 210.392L387.491 215.025C387.444 215.065 387.411 215.125 387.4 215.193C387.389 215.262 387.401 215.332 387.433 215.39L388.943 218.181C388.959 218.212 388.98 218.238 389.005 218.258C389.029 218.278 389.057 218.292 389.086 218.299C389.116 218.306 389.146 218.306 389.175 218.299C389.204 218.291 389.232 218.277 389.256 218.257L394.857 213.548C394.905 213.507 394.938 213.444 394.948 213.373C394.958 213.303 394.944 213.23 394.91 213.172Z" fill="#464A5F"/>
<path d="M412.436 192.398L410.989 189.821C410.955 189.763 410.904 189.723 410.847 189.709C410.789 189.695 410.729 189.708 410.68 189.746L398.451 199.649C398.427 199.668 398.406 199.692 398.389 199.721C398.373 199.749 398.362 199.782 398.356 199.816C398.35 199.85 398.35 199.885 398.355 199.919C398.361 199.953 398.372 199.985 398.388 200.014L399.893 202.794C399.909 202.824 399.93 202.85 399.955 202.87C399.98 202.89 400.008 202.904 400.037 202.911C400.066 202.918 400.096 202.918 400.125 202.911C400.155 202.904 400.182 202.889 400.207 202.869L412.402 192.769C412.447 192.725 412.476 192.661 412.482 192.592C412.488 192.523 412.472 192.453 412.436 192.398Z" fill="#464A5F"/>
<path opacity="0.1" d="M412.494 183.549L405.991 172.204C405.811 171.889 405.535 171.671 405.222 171.6C404.909 171.528 404.586 171.608 404.322 171.822L386.41 186.259C386.278 186.367 386.165 186.504 386.078 186.663C385.99 186.823 385.929 187.002 385.899 187.19C385.869 187.377 385.87 187.57 385.903 187.757C385.935 187.945 385.998 188.122 386.087 188.281L392.715 199.95C392.804 200.109 392.919 200.244 393.052 200.35C393.185 200.455 393.334 200.527 393.491 200.563C393.647 200.598 393.808 200.596 393.964 200.557C394.12 200.517 394.268 200.441 394.399 200.332L412.185 185.559C412.315 185.451 412.427 185.314 412.513 185.155C412.599 184.996 412.658 184.818 412.687 184.631C412.716 184.444 412.713 184.252 412.68 184.067C412.647 183.881 412.584 183.705 412.494 183.549Z" fill="black"/>
<path d="M412.793 183.619L406.29 172.273C406.109 171.959 405.833 171.743 405.521 171.672C405.208 171.6 404.885 171.679 404.621 171.891L386.734 186.34C386.601 186.447 386.487 186.583 386.398 186.743C386.31 186.902 386.249 187.081 386.218 187.269C386.188 187.457 386.188 187.65 386.221 187.838C386.253 188.025 386.316 188.203 386.405 188.362L393.014 200.019C393.104 200.178 393.218 200.314 393.351 200.419C393.484 200.524 393.633 200.596 393.79 200.632C393.946 200.667 394.107 200.665 394.263 200.626C394.419 200.586 394.567 200.51 394.698 200.402L412.494 185.628C412.623 185.52 412.734 185.382 412.819 185.222C412.904 185.063 412.963 184.884 412.99 184.698C413.018 184.511 413.015 184.32 412.981 184.135C412.947 183.949 412.883 183.774 412.793 183.619Z" fill="#939498"/>
<path d="M453.116 201.954L439.32 196.429L395.069 233.332L408.765 238.689C409.134 238.833 409.526 238.873 409.91 238.805C410.295 238.736 410.66 238.562 410.979 238.295L453.242 203.014C453.324 202.956 453.39 202.869 453.431 202.766C453.473 202.663 453.488 202.547 453.474 202.434C453.461 202.32 453.42 202.214 453.356 202.129C453.292 202.043 453.209 201.982 453.116 201.954Z" fill="#FC632A"/>
<defs>
<linearGradient id="paint0_linear" x1="0.00408936" y1="220.431" x2="523" y2="220.431" gradientUnits="userSpaceOnUse">
<stop stop-color="#FF512F"/>
<stop offset="1" stop-color="#F09819"/>
</linearGradient>
</defs>
</svg>
