<svg width="463" height="471" viewBox="0 0 463 471" fill="none" xmlns="http://www.w3.org/2000/svg">
<path opacity="0.1" d="M43.3331 405.132C54.3289 405.132 63.2428 403.455 63.2428 401.387C63.2428 399.319 54.3289 397.642 43.3331 397.642C32.3372 397.642 23.4233 399.319 23.4233 401.387C23.4233 403.455 32.3372 405.132 43.3331 405.132Z" fill="#6C63FF"/>
<path opacity="0.1" d="M326.755 409.813C337.75 409.813 346.664 408.346 346.664 406.536C346.664 404.727 337.75 403.259 326.755 403.259C315.759 403.259 306.845 404.727 306.845 406.536C306.845 408.346 315.759 409.813 326.755 409.813Z" fill="#6C63FF"/>
<path opacity="0.1" d="M278.347 443.52C289.342 443.52 298.256 441.843 298.256 439.775C298.256 437.706 289.342 436.029 278.347 436.029C267.351 436.029 258.437 437.706 258.437 439.775C258.437 441.843 267.351 443.52 278.347 443.52Z" fill="#6C63FF"/>
<path opacity="0.1" d="M106.966 377.98C117.747 377.98 126.486 376.303 126.486 374.235C126.486 372.166 117.747 370.489 106.966 370.489C96.186 370.489 87.4469 372.166 87.4469 374.235C87.4469 376.303 96.186 377.98 106.966 377.98Z" fill="#6C63FF"/>
<path opacity="0.1" d="M112.822 470.672C175.132 470.672 225.644 457.677 225.644 441.647C225.644 425.617 175.132 412.622 112.822 412.622C50.5122 412.622 0 425.617 0 441.647C0 457.677 50.5122 470.672 112.822 470.672Z" fill="#6C63FF"/>
<path d="M447.581 324.449C444.537 333.242 440.543 341.672 434.953 348.137C428.144 356.014 419.686 360.312 410.63 362.366C407.96 362.963 405.265 363.381 402.557 363.618C395.4 364.279 388.073 363.84 381.044 362.924C363.829 360.671 346.851 356.318 330.374 349.93C327.667 348.883 324.976 347.781 322.301 346.623C318.265 344.889 314.264 343.028 310.301 341.04C294.155 332.952 277.462 322.639 260.286 325.837C251.961 327.391 244.14 332.098 235.796 333.498C229.94 334.42 223.989 333.913 218.301 332.007C215.547 331.124 212.85 330.008 210.228 328.666C204.32 325.587 198.698 321.772 193.455 317.283C180.871 306.742 169.578 293.674 156.329 284.545C141.721 274.476 125.551 269.69 109.077 266.121C106.396 265.54 103.705 264.986 101.004 264.459C93.3825 262.951 85.7416 261.556 78.2099 259.906C70.9537 258.301 63.5692 256.337 57.2532 251.51C52.7466 248.067 48.957 243.297 45.4808 238.272C39.0683 228.959 33.5681 218.796 29.0878 207.981C28.8503 207.412 28.6176 206.843 28.3897 206.273C21.4136 189.119 16.7218 170.416 13.844 151.065C13.7585 150.495 13.6777 149.926 13.597 149.357C10.8902 130.387 9.90241 110.774 10.2016 91.3026L10.2301 89.5951C10.4153 79.9819 10.9139 70.4086 11.6547 60.9719C12.1866 54.3354 12.8989 47.4486 15.7672 41.8708C18.6356 36.293 23.3084 32.713 27.9623 29.7305C48.5438 16.6 68.2563 12.9459 90.3765 19.3092C93.9286 20.328 97.4665 21.4265 101.004 22.5648C103.697 23.4299 106.39 24.3235 109.077 25.2228C127.66 31.4323 146.195 38.0403 165.404 40.021C167.259 40.2145 169.116 40.3625 170.974 40.4649C174.65 40.6698 178.325 40.7154 182.001 40.6015C191.469 40.283 200.904 39.1187 210.228 37.1183C212.925 36.5605 215.616 35.942 218.301 35.2628C229.888 32.3658 241.371 28.5011 252.669 24.2267C254.977 23.354 257.281 22.4661 259.583 21.5631C264.769 19.5311 269.954 17.4594 275.15 15.4446C290.659 9.41712 306.245 3.91332 322.301 1.69359C323.675 1.50766 325.049 1.3426 326.423 1.19841C327.738 1.06182 329.059 0.953674 330.374 0.873992C355.282 -0.719664 380.475 6.48024 402.557 21.2159C405.298 23.041 407.989 24.9837 410.63 27.0441C414.293 29.9013 417.843 32.9748 421.281 36.2645C428.329 43.0091 434.925 50.6871 439.949 59.9132C444.845 68.9003 448.022 78.9916 449.851 89.6008C449.95 90.1699 450.045 90.7391 450.131 91.3082C452.814 108.434 451.978 126.801 448.967 143.961C448.649 145.76 448.312 147.564 447.961 149.363C447.851 149.932 447.737 150.501 447.623 151.07C444.375 167.297 440.225 183.478 441.307 200.07C441.445 202.158 441.664 204.23 441.948 206.279C442.029 206.848 442.11 207.417 442.2 207.987C444.318 221.521 449.133 234.362 452.021 247.765C457.441 273.236 455.884 300.12 447.581 324.449Z" fill="url(#paint0_linear)"/>
<path opacity="0.5" d="M410.254 91.2254H449.727C449.641 90.6554 449.547 90.0854 449.447 89.5154H410.254V26.8655C407.616 24.8059 404.927 22.8602 402.188 21.0286V89.5154H330.065V0.656433C328.751 0.736235 327.432 0.844536 326.117 0.981339C324.803 1.11814 323.37 1.28914 321.999 1.47725V89.5154H219.035L218.788 89.1905L274.887 15.243C269.696 17.2608 264.515 19.3357 259.333 21.3706L218.086 75.7439V35.0908C215.4 35.7672 212.711 36.3866 210.019 36.949V77.6192L181.816 40.4375C178.143 40.5439 174.471 40.4983 170.798 40.3007L207.884 89.1905L207.637 89.5154H108.944V25.0415C106.258 24.1409 103.568 23.2459 100.877 22.3795V89.5154H10.1786L10.1501 91.2254H100.887V149.366H13.5427C13.6233 149.936 13.704 150.506 13.7894 151.076H100.887V206.367H28.323C28.5508 206.938 28.7833 207.508 29.0205 208.078H100.887V264.657C103.582 265.189 106.271 265.744 108.953 266.321V208.078H210.019V328.92C212.639 330.263 215.334 331.382 218.086 332.266V208.078H321.999V346.915C324.675 348.078 327.364 349.182 330.065 350.227V208.078H402.188V363.935C404.894 363.697 407.587 363.279 410.254 362.681V208.078H441.798C441.708 207.508 441.627 206.938 441.547 206.367H410.23V151.076H447.193C447.307 150.506 447.421 149.936 447.53 149.366H410.254V91.2254ZM402.188 91.2254V149.366H330.065V91.2254H402.188ZM321.999 149.366H218.086V91.2254H321.999V149.366ZM108.953 91.2254H208.596L210.019 92.7815V149.366H108.953V91.2254ZM108.953 206.367V151.076H210.019V206.367H108.953ZM218.086 206.367V151.076H321.999V206.367H218.086ZM402.188 206.367H330.065V151.076H402.188V206.367Z" fill="#6C63FF"/>
<path opacity="0.1" d="M367.455 51.1126H366.836C367.054 50.9591 367.237 50.7417 367.369 50.4802C367.501 50.2187 367.577 49.9212 367.591 49.6147C367.591 48.437 366.405 47.4708 364.958 47.4708H346.499C345.052 47.4708 343.862 48.437 343.862 49.6147C343.862 50.7981 345.052 51.7643 346.499 51.7643H347.118C346.9 51.9182 346.717 52.1357 346.586 52.3971C346.454 52.6586 346.378 52.9558 346.363 53.2622C346.363 54.2684 347.225 55.1202 348.378 55.3489H343.056C341.603 55.3489 340.418 56.3151 340.418 57.4928C340.418 58.6705 341.603 59.6424 343.056 59.6424H361.519C362.971 59.6424 364.157 58.6762 364.157 57.4928C364.157 56.4866 363.295 55.6405 362.137 55.4118H367.455C368.902 55.4118 370.088 54.4456 370.088 53.2622C370.088 52.0788 368.902 51.1126 367.455 51.1126Z" fill="#6C63FF"/>
<path opacity="0.1" d="M165.165 71.7166H164.53C164.752 71.5612 164.939 71.3433 165.074 71.0822C165.209 70.8211 165.288 70.5246 165.304 70.2187C165.304 69.0353 164.088 68.0691 162.597 68.0691H143.648C142.157 68.0691 140.941 69.0353 140.941 70.2187C140.941 71.3964 142.157 72.3626 143.648 72.3626H144.278C144.056 72.5184 143.87 72.7364 143.736 72.9975C143.602 73.2587 143.524 73.555 143.508 73.8605C143.508 74.8724 144.393 75.7186 145.576 75.9472H140.124C138.633 75.9472 137.417 76.9134 137.417 78.0969C137.417 79.2803 138.633 80.2408 140.124 80.2408H159.073C160.563 80.2408 161.78 79.2746 161.78 78.0969C161.78 77.0849 160.89 76.2388 159.707 76.0101H165.165C166.65 76.0101 167.867 75.044 167.867 73.8605C167.867 72.6771 166.65 71.7166 165.165 71.7166Z" fill="#6C63FF"/>
<path opacity="0.1" d="M396.274 158.787H395.639C395.862 158.632 396.048 158.414 396.183 158.152C396.318 157.891 396.397 157.595 396.414 157.289C396.414 156.11 395.197 155.144 393.707 155.144H374.758C373.267 155.144 372.051 156.11 372.051 157.289C372.051 158.467 373.267 159.434 374.758 159.434H375.387C375.166 159.589 374.979 159.807 374.845 160.068C374.711 160.33 374.633 160.626 374.618 160.932C374.618 161.939 375.503 162.791 376.686 163.02H371.228C369.743 163.02 368.526 163.986 368.526 165.165C368.526 166.343 369.743 167.315 371.228 167.315H390.182C391.668 167.315 392.889 166.349 392.889 165.165C392.889 164.158 392 163.312 390.817 163.083H396.274C397.76 163.083 398.976 162.116 398.976 160.932C398.976 159.748 397.76 158.787 396.274 158.787Z" fill="#6C63FF"/>
<path d="M108.301 343.337L326.364 372.512V380.789L107.747 350.622L108.301 343.337Z" fill="#EAECF0"/>
<path d="M107.747 374.235H103.062V250.645L106.434 251.732L106.471 255.439L107.747 374.235Z" fill="#EAECF0"/>
<path d="M109.309 372.239L107.4 374.235L106.22 255.292L106.185 251.581H108.441L108.471 255.514L109.309 372.239Z" fill="#D3DAE1"/>
<path d="M43.7234 369.261L104.624 344.273V346.635L43.7234 371.426V369.261Z" fill="#D3DAE1"/>
<path d="M44.8122 377.043L43.7234 371.265L104.624 346.146V351.127L44.8122 377.043Z" fill="#EAECF0"/>
<path d="M326.364 243.155V406.068H323.397L323.246 254.938L323.241 250.105L326.364 243.155Z" fill="#EAECF0"/>
<path d="M328.707 242.218V404.676L326.364 406.068V243.014L328.707 242.218Z" fill="#D3DAE1"/>
<path d="M277.956 402.507L323.17 372.362L326.364 374.576L277.956 406.068V402.507Z" fill="#D3DAE1"/>
<path d="M279.371 412.622L277.956 405.857L326.364 374.235V380.795L279.371 412.622Z" fill="#EAECF0"/>
<path d="M272.491 268.561L272.658 441.647H277.175L276.506 266.562L272.491 268.561Z" fill="#EAECF0"/>
<path d="M279.518 265.625V440.253L277.727 441.647L277.175 267.219L277.396 267.071L279.518 265.625Z" fill="#D3DAE1"/>
<path d="M43.7234 403.259H39.6684L38.2781 248.628L38.258 245.963H42.1367L42.1669 249.004L43.7234 403.259Z" fill="#EAECF0"/>
<path d="M46.0658 402.061L43.5689 403.259L42.1887 249.004L42.1619 245.963H44.8196L44.8419 249.301L46.0658 402.061Z" fill="#D3DAE1"/>
<path opacity="0.1" d="M277.175 267.019L279.518 265.625V272.155L277.236 273.116L277.175 267.019Z" fill="black"/>
<path opacity="0.1" d="M328.707 242.218V252.214L326.459 253.115L323.246 254.39L323.241 249.714L326.459 242.988L328.707 242.218Z" fill="black"/>
<path d="M328.707 221.62V250.432L277.504 271.243L277.175 240.429L328.707 221.62Z" fill="#D48A9B"/>
<path d="M37.4772 220.412L105.557 204.767L328.707 222.419L276.573 241.282L37.4772 220.412Z" fill="#EFC6CD"/>
<path opacity="0.1" d="M44.4814 245.963L44.5042 248.772L41.796 248.523L38.2762 248.206L38.258 245.963H44.4814Z" fill="black"/>
<path opacity="0.1" d="M108.528 255.326L106.251 255.119L103.062 254.832V250.645L106.216 251.66H108.498L108.528 255.326Z" fill="black"/>
<path d="M37.4772 219.747V246.496L277.175 271.243L276.843 240.507L37.4772 219.747Z" fill="#D48A9B"/>
<path d="M227.206 251.581H195.975V238.473L227.206 241.017V251.581Z" fill="#D48A9B"/>
<path opacity="0.1" d="M227.206 251.581H195.975V238.473L227.206 241.017V251.581Z" fill="black"/>
<path opacity="0.1" d="M154.594 235.664V256.756L274.052 267.498V245.038L227.459 241.911L222.831 246.797L203.832 245.233L197.059 239.371L154.594 235.664Z" fill="black"/>
<path d="M153.813 234.728V255.822L274.052 266.562V244.106L227.154 240.98L222.501 245.864L203.373 244.301L196.556 238.44L153.813 234.728Z" fill="white"/>
<path d="M79.3931 229.11L107.747 231.482L107.415 242.218H88.9013L76.516 236.418L79.3931 229.11Z" fill="#D48A9B"/>
<path opacity="0.1" d="M79.3931 229.11L107.747 231.482L107.415 242.218H88.9013L76.516 236.418L79.3931 229.11Z" fill="black"/>
<path opacity="0.1" d="M41.3811 225.365V244.872L150.69 255.326V234.613L108.53 231.601L104.034 235.618L87.0363 234.417L80.0399 229.187L41.3811 225.365Z" fill="black"/>
<path d="M41.3811 224.429V243.935L149.909 254.39V233.682L108.051 230.665L103.587 234.688L86.7102 233.481L79.7638 228.251L41.3811 224.429Z" fill="white"/>
<path opacity="0.1" d="M46.0658 370.799L46.8465 370.489L46.4537 376.883L46.0658 377.043V370.799Z" fill="black"/>
<path opacity="0.1" d="M274.371 225.365L289.668 226.568L264.319 235.664L251.41 234.541L274.371 225.365Z" fill="black"/>
<path d="M274.371 224.429L289.668 225.632L264.319 234.728L251.41 233.61L274.371 224.429Z" fill="white"/>
<path d="M272.491 226.377C273.122 226.115 273.794 226.61 274.48 226.736C274.863 226.809 275.261 226.736 275.644 226.809C276.429 226.911 277.21 227.426 277.956 227.164" fill="#D3DAE1"/>
<path d="M271.71 226.458C272.337 225.922 273.013 226.916 273.699 227.169C274.082 227.315 274.48 227.169 274.868 227.315C275.654 227.52 276.429 228.552 277.175 228.026" fill="#D3DAE1"/>
<path d="M270.148 228.249C270.69 227.987 271.269 228.483 271.853 228.609C272.182 228.682 272.523 228.609 272.855 228.682C273.529 228.784 274.194 229.299 274.833 229.037" fill="#D3DAE1"/>
<path d="M23.8136 425.73C26.1853 425.73 28.1079 423.425 28.1079 420.581C28.1079 417.737 26.1853 415.431 23.8136 415.431C21.442 415.431 19.5194 417.737 19.5194 420.581C19.5194 423.425 21.442 425.73 23.8136 425.73Z" fill="#535461"/>
<path d="M31.6214 447.265C33.9931 447.265 35.9157 444.75 35.9157 441.647C35.9157 438.545 33.9931 436.029 31.6214 436.029C29.2498 436.029 27.3271 438.545 27.3271 441.647C27.3271 444.75 29.2498 447.265 31.6214 447.265Z" fill="#535461"/>
<path d="M111.261 451.01C113.632 451.01 115.555 448.495 115.555 445.392C115.555 442.29 113.632 439.775 111.261 439.775C108.889 439.775 106.966 442.29 106.966 445.392C106.966 448.495 108.889 451.01 111.261 451.01Z" fill="#535461"/>
<path d="M129.218 422.922C131.59 422.922 133.513 420.616 133.513 417.772C133.513 414.928 131.59 412.622 129.218 412.622C126.847 412.622 124.924 414.928 124.924 417.772C124.924 420.616 126.847 422.922 129.218 422.922Z" fill="#535461"/>
<path d="M78.8583 326.484H73.3929V367.681H78.8583V326.484Z" fill="#535461"/>
<path opacity="0.1" d="M78.8583 361.127H73.3929V367.681H78.8583V361.127Z" fill="black"/>
<path d="M79.6391 362.999H71.8314V408.877H79.6391V362.999Z" fill="#3A3768"/>
<path d="M127.756 408.69L77.2968 406.068V416.368H135.855C135.273 414.201 134.188 412.308 132.742 410.938C131.297 409.567 129.559 408.784 127.756 408.69Z" fill="#3A3768"/>
<path d="M26.8379 408.69L77.2968 406.068V416.368H18.7386C19.3202 414.2 20.4051 412.307 21.8507 410.937C23.2963 409.566 25.0349 408.783 26.8379 408.69Z" fill="#3A3768"/>
<path d="M72.1269 407.076L31.4892 431.393C29.7704 432.428 28.3238 434.026 27.3126 436.005C26.3013 437.985 25.7655 440.267 25.7656 442.597V443.338L73.224 418.221L79.9015 417.613L119.366 448.201C119.618 445.94 119.355 443.639 118.606 441.547C117.856 439.454 116.65 437.651 115.116 436.332L79.9015 406.068L72.1269 407.076Z" fill="#3A3768"/>
<path opacity="0.1" d="M78.8583 326.484V331.09C77.901 331.14 76.925 331.165 75.9304 331.165C75.0707 331.165 74.2248 331.165 73.3929 331.107V326.484H78.8583Z" fill="black"/>
<path d="M75.7353 329.293C86.9467 329.293 96.0354 325.939 96.0354 321.803C96.0354 317.666 86.9467 314.312 75.7353 314.312C64.5238 314.312 55.4351 317.666 55.4351 321.803C55.4351 325.939 64.5238 329.293 75.7353 329.293Z" fill="#3A3768"/>
<path opacity="0.1" d="M96.0354 321.808C96.0155 322.225 95.927 322.633 95.7753 323.005C95.6236 323.378 95.4119 323.709 95.1532 323.976C92.5973 327.06 84.6959 329.293 75.3496 329.293C66.2084 329.293 58.4596 327.143 55.7177 324.171C55.4138 323.895 55.1615 323.541 54.978 323.134C54.7945 322.726 54.6841 322.274 54.6543 321.808C54.6543 317.673 63.9195 314.312 75.3496 314.312C86.7797 314.312 96.0354 317.668 96.0354 321.808Z" fill="black"/>
<path opacity="0.1" d="M96.0354 322.131C96.0159 322.566 95.9291 322.992 95.7802 323.381C95.6314 323.771 95.4237 324.116 95.1699 324.396C92.5873 323.544 90.8001 322.84 90.8001 322.84C90.8001 322.84 72.9047 324.161 56.4784 324.611C56.1803 324.323 55.9327 323.953 55.7527 323.527C55.5727 323.101 55.4643 322.629 55.4351 322.143C55.4351 317.824 64.5255 314.312 75.7399 314.312C86.9544 314.312 96.0354 317.805 96.0354 322.131Z" fill="black"/>
<path d="M23.6132 227.018C23.6132 227.018 30.4468 249.213 30.1134 262.488C29.7801 275.763 24.4466 300.728 24.4466 300.728C24.4466 300.728 19.1179 320.941 32.7802 322.725C46.4424 324.509 91.0913 321.536 91.0913 321.536C91.0913 321.536 107.758 327.477 113.082 324.9C115.154 323.903 116.949 321.706 118.368 319.389C119.145 318.127 119.698 316.689 119.993 315.165C120.288 313.64 120.319 312.06 120.083 310.52C119.848 308.981 119.352 307.515 118.625 306.211C117.897 304.907 116.955 303.793 115.854 302.937C113.367 301.093 110.658 299.71 107.82 298.836C107.223 298.644 106.606 298.554 105.987 298.57L47.7711 299.935C47.7711 299.935 41.2756 298.746 42.4423 291.021C43.609 283.296 45.6043 259.515 45.6043 259.515C45.6043 259.515 45.9377 230.586 34.2754 222.464C22.6132 214.343 23.6132 227.018 23.6132 227.018Z" fill="#3A3768"/>
<path opacity="0.1" d="M23.6132 227.024C23.6132 227.024 30.4467 249.21 30.1134 262.483C29.7801 275.756 24.4466 300.722 24.4466 300.722C24.4466 300.722 19.1179 320.926 32.7801 322.71C46.4424 324.494 91.0911 321.515 91.0911 321.515C91.0911 321.515 107.758 327.461 113.082 324.913C115.154 323.911 116.949 321.714 118.368 319.403C119.145 318.14 119.698 316.703 119.993 315.178C120.288 313.653 120.319 312.073 120.083 310.533C119.848 308.994 119.352 307.527 118.625 306.223C117.897 304.919 116.955 303.805 115.854 302.948C113.364 301.109 110.656 299.727 107.82 298.848C107.223 298.654 106.605 298.566 105.987 298.588L47.771 299.93C47.771 299.93 41.2756 298.74 42.4423 291.011C43.609 283.282 45.6043 259.516 45.6043 259.516C45.6043 259.516 45.9376 230.591 34.2754 222.465C22.6132 214.34 23.6132 227.024 23.6132 227.024Z" fill="black"/>
<path d="M25.1737 226.08C25.1737 226.08 31.9521 248.271 31.6214 261.544C31.2907 274.817 26.0003 299.777 26.0003 299.777C26.0003 299.777 20.7146 319.987 34.2619 321.77C47.8092 323.554 92.1025 320.581 92.1025 320.581C92.1025 320.581 108.635 326.521 113.921 323.979C115.976 322.976 117.756 320.779 119.164 318.463C119.935 317.201 120.483 315.764 120.776 314.24C121.068 312.715 121.099 311.135 120.865 309.596C120.632 308.057 120.14 306.591 119.418 305.288C118.697 303.984 117.762 302.87 116.67 302.014C114.204 300.16 111.517 298.768 108.701 297.886C108.109 297.693 107.496 297.604 106.883 297.62L49.1366 298.984C49.1366 298.984 42.6935 297.795 43.8508 290.072C45.0081 282.348 46.9873 258.571 46.9873 258.571C46.9873 258.571 47.318 229.647 35.7498 221.527C24.1817 213.407 25.1737 226.08 25.1737 226.08Z" fill="#3A3768"/>
<path d="M143.145 417.855V425.106C143.145 425.106 171.789 425.73 178.098 425.73C184.407 425.73 193.091 421.982 193.608 418.978C194.124 415.974 186.37 413.475 183.473 413.355C180.577 413.234 180.478 411.853 176.752 409.474C174.652 408.133 171.462 404.241 169.082 401.105C167.248 398.686 165.897 396.72 165.897 396.72C165.897 396.72 150.487 396.348 146.041 399.346C145.017 400.039 144.311 401.392 143.827 403.071C142.225 408.672 143.145 417.855 143.145 417.855Z" fill="#434175"/>
<path opacity="0.1" d="M143.663 403.259C146.861 401.861 165.571 401.318 168.648 401.235C166.833 398.745 165.496 396.721 165.496 396.721C165.496 396.721 150.251 396.337 145.853 399.424C144.84 400.138 144.141 401.524 143.663 403.259Z" fill="black"/>
<path d="M60.1197 288.343L61.7922 289.554L62.4194 290.009L64.8569 291.76C77.8853 301.157 113.421 326.619 115.369 326.437C115.878 326.386 117.408 326.113 119.522 325.698C120.083 325.59 120.686 325.476 121.318 325.346C129.457 323.726 142.985 320.798 144.496 319.991C146.567 318.854 146.154 323.833 145.323 328.052C144.491 332.27 143.873 352.496 144.805 355.088C145.736 357.681 145.323 361.91 145.323 361.91L144.082 384.604L144.914 389.424C144.914 389.424 142.115 392.153 143.256 393.762C144.396 395.371 143.36 402.323 143.36 402.323C146.686 400.834 169.17 400.339 169.17 400.339C169.17 400.339 168.22 390.414 169.065 388.06C169.911 385.707 169.274 371.688 169.274 371.688C169.274 371.688 169.792 361.023 168.861 358.545C167.93 356.066 169.17 340.189 169.17 340.189C169.17 340.189 170.001 330.763 170.206 311.537C170.41 292.311 161.083 291.698 161.083 291.698C161.083 291.698 159.843 291.578 157.952 291.362C154.26 290.936 148.102 290.128 143.987 289.088C143.145 288.876 142.312 288.611 141.493 288.292C136.414 286.223 119.313 286.143 116.515 287.633C113.82 289.065 111.126 287.741 110.927 287.633L108.751 283.415L87.9584 285.535L85.7585 285.763L65.2893 287.849L63.8639 287.997L60.1197 288.343Z" fill="#565387"/>
<path opacity="0.1" d="M143.703 307.15C149.87 310.642 155.756 298.266 158.497 291.286C154.727 290.863 148.439 290.063 144.237 289.032C141.476 294.39 137.788 303.809 143.703 307.15Z" fill="black"/>
<path d="M125.706 222.591C125.829 223.445 126.074 224.267 126.428 225.02C128.634 230.447 135.022 241.622 135.022 241.622C136.922 243.066 138.527 245.016 139.716 247.323C141.457 250.932 141.969 259.387 141.969 259.387C141.969 259.387 145.86 278.167 147.699 280.784C148.638 282.09 148.211 282.865 147.573 283.316C146.264 284.201 145.155 285.464 144.344 286.993C141.659 292.233 137.374 302.638 143.405 306.207C151.595 311.058 159.278 285.631 159.278 285.631C159.278 285.631 157.739 267.597 157.33 264.49C156.922 261.383 154.463 248.566 154.463 248.566C154.463 248.566 152.721 243.093 151.698 239.239C150.675 235.385 147.606 230.904 147.606 230.904C147.606 230.904 142.072 217.471 140.537 215.482C139.824 214.558 138.824 213.395 137.96 212.414C136.961 211.274 136.135 210.385 136.135 210.385C136.135 210.385 125.602 219.615 125.706 222.591Z" fill="#EE8E9E"/>
<path d="M55.4351 416.523L74.193 426.527C74.193 426.527 98.5027 427.144 102.755 425.785C107.008 424.426 106.063 418.748 100.487 417.632C94.9118 416.517 93.5841 413.562 91.7272 412.203C90.4751 411.286 86.0289 405.358 83.2743 401.605C81.9466 399.799 81.0063 398.491 81.0063 398.491C81.0063 398.491 77.3965 387.003 67.3986 389.596C65.5705 390.074 63.886 391.141 62.5272 392.682C57.1361 398.661 56.6683 410.488 56.6683 410.488L55.4351 416.523Z" fill="#434175"/>
<path opacity="0.1" d="M62.4621 289.68L64.9013 291.449C77.9394 300.943 113.502 326.667 115.451 326.483C115.96 326.431 117.491 326.156 119.607 325.736C120.168 325.627 120.772 325.512 121.404 325.38L121.476 325.237C122.522 323.033 123.321 320.671 123.853 318.213C126.031 308.191 115.242 300.547 115.242 300.547L112.959 298.404C110.368 293.132 91.6954 288.147 91.6954 288.147L89.2894 286.166L88.0008 285.12L87.6632 284.85L84.7437 282.479L70.1175 283.731L65.7715 287.102L65.296 287.458L63.7079 288.716L62.4621 289.68Z" fill="black"/>
<path opacity="0.1" d="M62.4621 392.594C66.4727 408.612 83.226 403.378 83.226 403.378L83.543 401.349C82.1933 399.58 81.2375 398.299 81.2375 398.299C81.2375 398.299 77.5679 387.049 67.4045 389.588C65.5511 390.053 63.8424 391.092 62.4621 392.594Z" fill="black"/>
<path d="M58.299 317.788C64.4069 317.788 80.1298 326.599 80.1298 326.599C83.338 329.58 87.6852 328.584 87.6852 328.584C87.6852 328.584 80.0397 337.89 80.2532 341.741C80.4668 345.592 75.9013 351.917 75.9013 351.917L61.8204 385.295C62.8597 408.998 83.1482 402.422 83.1482 402.422L83.9787 396.836C85.2221 396.091 87.0872 388.646 87.0872 388.646C87.0872 388.646 87.0872 385.671 88.3259 384.8C89.5646 383.93 92.1558 374.994 92.1558 374.994C92.1558 374.994 97.7464 363.703 97.4332 362.218C97.1199 360.734 101.472 353.163 101.472 353.163C101.472 353.163 108.823 344.477 108.51 342.924C108.197 341.371 114.423 333.425 114.423 333.425C116.674 331.338 118.544 328.721 119.919 325.735C120.962 323.553 121.76 321.216 122.292 318.784C124.043 310.786 117.399 304.319 114.746 302.106C114.105 301.571 113.697 301.287 113.697 301.287L111.419 299.165C110.242 296.788 105.748 294.467 101.192 292.652C97.9077 291.338 94.5951 290.28 92.4738 289.649C91.05 289.234 90.1958 289.001 90.1958 289.001L87.7944 287.067L86.9496 286.384L86.176 285.764L83.2573 283.415L76.765 283.984L68.6592 284.672L64.3262 288.016L62.257 289.609L54.1654 295.866C54.1654 295.866 53.9518 298.249 53.8854 301.458C53.8854 301.702 53.8854 301.952 53.8854 302.214C53.7762 308.659 54.3599 317.788 58.299 317.788Z" fill="#565387"/>
<path d="M89.0084 178.451L91.2197 187.778C91.2197 187.778 95.1038 203.827 95.5221 204.944C95.9403 206.062 106.098 217.384 106.535 217.629C106.973 217.874 112.491 221.62 112.491 221.62C112.491 221.62 112.929 201.096 112.491 195.133C112.455 193.821 112.547 192.509 112.765 191.222C113.433 186.541 115.125 179.683 116.529 174.398C117.702 169.968 118.678 166.65 118.678 166.65C118.678 166.65 94.1376 165.402 94.9789 168.264C95.2961 169.347 95.1904 171.154 94.8875 172.967C94.378 175.954 93.3252 178.942 92.6714 178.714C92.0328 178.541 91.3796 178.455 90.7246 178.457C89.8304 178.411 89.0084 178.451 89.0084 178.451Z" fill="#EE8E9E"/>
<path opacity="0.1" d="M95.2546 172.769C98.2065 175.644 101.873 177.332 105.711 177.582C109.549 177.832 113.354 176.631 116.561 174.157C117.717 169.86 118.678 166.642 118.678 166.642C118.678 166.642 94.5065 165.431 95.3351 168.207C95.6571 169.257 95.5529 171.01 95.2546 172.769Z" fill="black"/>
<path d="M89.0086 156.074C89.0077 160.334 90.0372 164.498 91.967 168.04C93.8967 171.582 96.6401 174.343 99.85 175.974C103.06 177.604 106.592 178.032 110 177.201C113.408 176.371 116.539 174.321 118.996 171.309C121.454 168.298 123.127 164.461 123.805 160.283C124.484 156.106 124.136 151.776 122.807 147.84C121.477 143.905 119.225 140.542 116.336 138.175C113.447 135.809 110.051 134.546 106.576 134.546C104.266 134.532 101.977 135.079 99.8412 136.157C97.7051 137.234 95.7643 138.819 94.1309 140.821C92.4975 142.822 91.2038 145.201 90.3246 147.819C89.4454 150.437 88.9981 153.243 89.0086 156.074Z" fill="#EE8E9E"/>
<path opacity="0.1" d="M89.0084 178.567L91.1887 187.869C91.1887 187.869 95.0183 203.874 95.4306 204.989C95.843 206.103 105.858 217.395 106.289 217.64C106.72 217.884 112.162 221.62 112.162 221.62C112.162 221.62 112.593 201.151 112.162 195.204C112.126 193.895 112.217 192.586 112.432 191.303L111.01 198.177L111.114 211.948L111.939 212.693L110.081 216.042V213.557C110.081 213.557 103.445 205.87 102.426 202.641C101.407 199.411 97.6867 193.577 97.6867 193.577C97.6867 193.577 93.421 185.049 93.3452 183.542C93.2646 182.405 91.4825 179.698 90.7005 178.573C89.8189 178.527 89.0084 178.567 89.0084 178.567Z" fill="black"/>
<path opacity="0.1" d="M125.706 222.876C125.832 223.751 126.081 224.594 126.442 225.365C128.721 225.085 136.477 223.308 138.197 212.465C137.179 211.296 136.338 210.385 136.338 210.385C136.338 210.385 125.601 219.826 125.706 222.876Z" fill="black"/>
<path opacity="0.1" d="M53.8735 302.141C55.9455 300.372 57.9185 297.962 59.0957 297.299C60.8427 296.307 63.5127 293.092 63.5127 293.092C63.5127 293.092 64.1908 292.525 65.2314 291.8C67.1385 290.456 70.2652 288.506 72.6574 288.268C74.7999 288.052 81.9292 287.502 87.5328 287.083L94.8457 286.516C94.8457 286.516 101.523 283.681 104.4 285.524C106.46 286.762 108.631 287.713 110.87 288.358C110.87 288.358 110.87 288.086 110.87 287.621L108.713 283.415L85.9271 285.756L83.0311 283.415L68.5465 284.651L64.2473 287.984L60.5366 288.364L62.1942 289.572L54.1655 295.808C54.1655 295.808 53.9206 298.575 53.8735 302.141Z" fill="black"/>
<path d="M50.5214 302.991C51.6239 302.598 52.6572 301.968 53.5709 301.133C55.6659 299.362 57.6607 296.946 58.849 296.279C60.6195 295.282 63.3254 292.052 63.3254 292.052C63.3254 292.052 68.8469 287.574 72.5931 287.204C73.6144 287.101 75.7523 286.924 78.3198 286.725L86.8192 286.076L91.2287 285.745L95.08 285.466C95.08 285.466 101.847 282.617 104.763 284.469C106.851 285.713 109.051 286.668 111.32 287.318C111.32 287.318 111.425 278.618 112.274 275.012C113.124 271.405 114.25 264.819 114.25 264.819C114.25 264.819 115.205 255.749 116.126 251.647C117.047 247.545 120.707 224.677 122.582 223.161C124.458 221.646 125.494 224.301 125.494 224.301C125.494 224.301 137.987 224.05 138.197 207.648C138.197 207.648 132.366 200.686 131.95 198.948C131.535 197.21 126.019 190.744 126.019 190.744C126.019 190.744 122.893 183.782 119.337 183.657C117.666 183.54 115.989 183.603 114.326 183.845L111.32 198.447L111.425 212.245L112.26 212.992L110.385 216.347V213.903C110.385 213.903 103.703 206.195 102.682 202.964C101.661 199.734 97.9099 193.877 97.9099 193.877C97.9099 193.877 93.6435 185.331 93.5385 183.822C93.4335 182.312 90.5177 178.335 90.5177 178.335C89.9296 178.251 89.3352 178.251 88.7472 178.335C88.4847 178.356 88.2215 178.311 87.9741 178.204C86.2929 177.564 84.5034 177.443 82.7723 177.851C79.174 178.745 73.705 180.375 72.197 182.329C69.9063 185.314 66.5753 188.174 62.8243 200.6L83.0205 209.3L81.2929 213.225L65.22 249.687C65.22 249.687 64.6855 250.724 63.9649 252.075C63.0104 253.829 61.7744 256.125 60.9488 257.384C59.4932 259.623 59.9084 266.705 59.9084 266.705C59.9084 266.705 59.5982 270.061 58.5579 271.308C57.5175 272.556 57.718 277.142 57.718 277.142L55.0121 289.198C55.0121 289.198 52.5114 291.932 52.5114 293.186C52.5114 294.439 50.5357 297.909 50.5357 297.909C50.5357 297.909 47.5149 303.857 50.5214 302.991Z" fill="#DFE5EE"/>
<path opacity="0.1" d="M64.0236 252.039C64.1625 252.724 64.2691 253.418 64.3428 254.117C64.3428 254.117 72.5503 277.102 73.5887 278.469C73.9079 278.89 75.1178 280.958 76.6326 283.594L78.3713 286.664C81.5105 292.239 85.0402 298.572 85.0402 298.572L92.7285 306.648C92.7285 306.648 109.458 308.248 114.774 301.756C114.131 301.22 113.721 300.935 113.721 300.935L111.435 298.811C110.253 296.431 105.742 294.107 101.169 292.291C96.9585 292.325 93.5145 292.735 93.5145 292.735L92.4189 289.284L91.2756 285.684L85.4451 267.415C85.4451 267.415 81.6962 244.311 80.4482 243.189C79.2002 242.067 79.4955 238.593 79.4955 238.593C79.4955 238.593 81.782 228.78 80.9484 227.414C80.1148 226.047 82.3012 215.978 82.3012 215.978C82.0843 214.996 81.7472 214.058 81.3009 213.193L65.2574 249.641C65.2574 249.641 64.7429 250.672 64.0236 252.039Z" fill="black"/>
<path d="M82.3823 215.284C82.3823 215.284 80.2023 225.317 81.0352 226.68C81.8682 228.043 79.5787 237.827 79.5787 237.827C79.5787 237.827 79.2694 241.296 80.5307 242.409C81.792 243.522 85.5237 266.565 85.5237 266.565L93.5677 291.839C93.5677 291.839 118.742 288.864 116.148 298.279C113.554 307.693 92.7824 305.712 92.7824 305.712L85.1001 297.66C85.1001 297.66 74.7143 278.955 73.6766 277.592C72.639 276.23 64.4332 253.312 64.4332 253.312C64.4332 253.312 64.0191 248.729 62.2532 246.373C60.4873 244.016 61.8391 240.041 61.8391 240.041C61.8391 240.041 59.6591 210.077 61.9438 206.488C64.2285 202.899 80.0024 204.506 82.3823 215.284Z" fill="#EE8E9E"/>
<path opacity="0.1" d="M156.936 312.44C156.936 312.44 150.324 314.831 148.555 318.237C146.785 321.644 156.936 312.44 156.936 312.44Z" fill="black"/>
<path opacity="0.1" d="M153.032 304.013C152.843 304.368 144.74 314.427 145.247 316.859C145.754 319.291 153.032 304.013 153.032 304.013Z" fill="black"/>
<path opacity="0.1" d="M105.405 311.503C105.405 311.503 95.3743 317.117 94.5185 319.561C93.6627 322.005 105.405 311.503 105.405 311.503Z" fill="black"/>
<path opacity="0.1" d="M104.624 318.057C104.624 318.057 95.7554 322.449 94.5624 323.551C93.3694 324.653 104.624 318.057 104.624 318.057Z" fill="black"/>
<path opacity="0.1" d="M100.72 327.945C100.72 327.945 96.9192 330.56 94.824 328.505C92.7289 326.451 100.72 327.945 100.72 327.945Z" fill="black"/>
<path opacity="0.1" d="M115.555 237.537C115.343 237.906 102.236 265.328 98.7758 267.401C95.3153 269.474 115.555 237.537 115.555 237.537Z" fill="black"/>
<path opacity="0.1" d="M114.774 247.836C114.774 248.462 102.188 281.148 100.117 281.539C98.0459 281.929 114.774 247.836 114.774 247.836Z" fill="black"/>
<path opacity="0.1" d="M66.3659 268.434C66.3659 268.434 60.4229 284.32 58.1086 285.252C55.7944 286.184 66.3659 268.434 66.3659 268.434Z" fill="black"/>
<path opacity="0.1" d="M65.5852 261.88C65.5852 261.88 63.3057 267.498 61.9215 267.498C60.5374 267.498 65.5852 261.88 65.5852 261.88Z" fill="black"/>
<path opacity="0.1" d="M89.0084 156.047C89.0071 158.616 89.3838 161.165 90.1207 163.57C90.0556 160.78 90.4615 158.004 91.3129 155.414C92.1643 152.825 93.443 150.478 95.069 148.521C96.695 146.564 98.6333 145.038 100.763 144.039C102.893 143.04 105.168 142.589 107.446 142.715C108.298 142.76 109.308 143.005 109.652 143.951C109.787 144.458 109.858 144.989 109.861 145.523C110.117 147.937 112.118 149.446 113.998 150.232C115.878 151.018 117.973 151.519 119.336 153.291C120.583 154.914 120.937 157.243 121.551 159.344C121.897 160.631 122.483 161.801 123.264 162.761C124.058 159.806 124.319 156.675 124.028 153.584C123.737 150.494 122.902 147.517 121.579 144.86C120.257 142.203 118.479 139.929 116.368 138.195C114.257 136.461 111.864 135.308 109.354 134.816C106.844 134.324 104.276 134.504 101.829 135.345C99.3813 136.186 97.1119 137.666 95.1775 139.685C93.243 141.704 91.6897 144.212 90.6246 147.037C89.5595 149.862 89.0081 152.936 89.0084 156.047Z" fill="black"/>
<path d="M122.338 136.075C120.845 133.644 118.195 132.801 115.892 131.577C113.043 130.03 110.529 127.72 108.542 124.826C106.555 121.932 105.148 118.531 104.43 114.883C103.512 116.501 103.081 118.445 103.209 120.396C103.337 122.346 104.016 124.186 105.133 125.612C100.946 125.271 96.321 124.694 93.4832 120.993C92.8376 123.66 94.7696 126.692 93.7144 129.163C92.8086 131.288 90.3418 131.473 88.7471 132.917C87.0463 134.43 86.4826 137.172 86.3766 139.707C86.2706 142.242 86.4922 144.841 85.8659 147.266C85.3841 149.108 84.4205 150.8 84.3241 152.723C84.3132 154.155 84.5769 155.572 85.095 156.863C86.2839 160.302 87.8948 163.51 89.8745 166.379C89.3357 163.303 89.3909 160.12 90.036 157.073C90.681 154.027 91.8988 151.197 93.5962 148.801C95.2937 146.405 97.4258 144.506 99.8295 143.249C102.233 141.992 104.845 141.411 107.465 141.549C108.347 141.595 109.392 141.85 109.749 142.808C109.89 143.323 109.963 143.86 109.966 144.402C110.231 146.844 112.302 148.375 114.249 149.171C116.195 149.968 118.363 150.482 119.775 152.272C121.066 153.918 121.432 156.28 122.068 158.41C122.704 160.541 123.933 162.77 125.807 163.03C126.236 159.866 126.67 156.678 126.405 153.468C126.116 150.032 124.188 148.086 123.514 145.095C122.781 141.959 124.169 139.055 122.338 136.075Z" fill="#603556"/>
<path opacity="0.1" d="M69.8727 196.176L63.4115 200.885C63.4115 200.885 61.5634 208.441 60.1197 209.407C60.1197 209.407 73.0469 200.732 82.7904 220.684C82.7904 220.684 82.4848 218.082 83.8156 216.843C85.1464 215.605 84.8407 210.276 84.8407 210.276C85.1995 209.432 85.5136 208.561 85.7812 207.668C86.6747 204.97 81.8546 189.358 69.8727 196.176Z" fill="black"/>
<path d="M69.389 196.173L62.7293 200.876C62.7293 200.876 60.8259 208.428 59.339 209.421C59.339 209.421 72.6535 200.752 82.689 220.684C82.689 220.684 82.3742 218.085 83.7497 216.848C85.1252 215.611 84.8056 210.284 84.8056 210.284C85.1775 209.444 85.5011 208.575 85.7743 207.685C86.7139 204.962 81.73 189.364 69.389 196.173Z" fill="#DFE5EE"/>
<g opacity="0.1">
<path opacity="0.1" d="M94.2126 127.636C94.1888 125.608 93.1824 123.375 93.6714 121.37L93.7568 121.478C93.8755 123.552 94.8344 125.733 94.2126 127.636Z" fill="black"/>
<path opacity="0.1" d="M86.8782 138.327C86.7785 140.605 86.9494 142.884 86.5221 145.099C86.6788 143.362 86.5933 141.574 86.6693 139.819C86.7007 138.987 86.7912 138.16 86.9399 137.347C86.9114 137.695 86.8877 138.002 86.8782 138.327Z" fill="black"/>
<path opacity="0.1" d="M84.647 152.658C84.6741 152.206 84.7426 151.759 84.8511 151.325C84.8689 152.684 85.1296 154.022 85.6154 155.249C86.6876 158.353 88.1092 161.266 89.8404 163.907C89.897 164.653 89.9889 165.395 90.1158 166.129C88.1652 163.299 86.578 160.135 85.4066 156.742C84.8961 155.468 84.6362 154.071 84.647 152.658Z" fill="black"/>
<path opacity="0.1" d="M105.359 124.434C104.96 124.406 104.552 124.372 104.148 124.332C103.244 122.376 102.998 120.079 103.46 117.913C103.373 119.099 103.497 120.294 103.825 121.419C104.152 122.543 104.675 123.571 105.359 124.434Z" fill="black"/>
<path opacity="0.1" d="M93.9847 147.292C95.6705 144.947 97.7739 143.087 100.14 141.848C102.505 140.61 105.073 140.026 107.652 140.138C108.521 140.189 109.551 140.434 109.907 141.38C110.043 141.888 110.115 142.418 110.12 142.952C110.381 145.361 112.418 146.876 114.341 147.657C116.263 148.437 118.39 148.95 119.781 150.721C121.058 152.344 121.419 154.674 122.045 156.77C122.672 158.866 123.878 161.065 125.72 161.327L125.52 162.819C123.674 162.58 122.463 160.381 121.836 158.263C121.21 156.144 120.849 153.831 119.577 152.208C118.186 150.442 116.05 149.929 114.132 149.149C112.214 148.369 110.173 146.871 109.912 144.444C109.909 143.91 109.837 143.38 109.698 142.872C109.328 141.927 108.316 141.676 107.448 141.63C103.413 141.405 99.4443 142.924 96.2643 145.913C93.0844 148.902 90.9042 153.161 90.1205 157.915C90.5335 154.003 91.8748 150.316 93.9847 147.292Z" fill="black"/>
</g>
<path d="M205.344 194.468V216.002L187.386 214.351V194.468H205.344Z" fill="#3A3768"/>
<path opacity="0.1" d="M205.344 214.552V216.002L187.386 214.643V213.193L205.344 214.552Z" fill="black"/>
<path d="M210.029 217.875L182.702 216.261C182.702 215.447 182.983 214.667 183.485 214.092C183.986 213.517 184.667 213.193 185.376 213.193L207.354 214.808C208.063 214.808 208.744 215.131 209.245 215.706C209.747 216.281 210.029 217.061 210.029 217.875Z" fill="#3A3768"/>
<path d="M243.836 200.085L148.894 196.688C148.515 196.689 148.139 196.6 147.788 196.425C147.437 196.251 147.118 195.996 146.85 195.673C146.581 195.351 146.369 194.968 146.224 194.546C146.079 194.125 146.004 193.673 146.005 193.217V125.839C146.005 125.383 146.08 124.932 146.225 124.511C146.37 124.091 146.583 123.708 146.852 123.387C147.12 123.065 147.438 122.81 147.789 122.636C148.139 122.462 148.515 122.373 148.894 122.374L243.836 125.771C244.602 125.771 245.336 126.136 245.877 126.785C246.419 127.435 246.724 128.317 246.725 129.236V196.614C246.725 197.535 246.421 198.418 245.879 199.069C245.337 199.72 244.602 200.085 243.836 200.085Z" fill="#3A3768"/>
<path d="M244.383 195.404L147.567 191.98V130.8L244.383 134.224V195.404Z" fill="white"/>
<path d="M195.975 128.928C196.406 128.928 196.755 128.508 196.755 127.991C196.755 127.474 196.406 127.055 195.975 127.055C195.543 127.055 195.194 127.474 195.194 127.991C195.194 128.508 195.543 128.928 195.975 128.928Z" fill="white"/>
<path opacity="0.1" d="M205.344 198.655L187.386 198.213V199.149H205.344V198.655Z" fill="black"/>
<path opacity="0.1" d="M172.365 219.747L196.755 221.563L191.559 230.046L164.744 226.794L172.365 219.747Z" fill="black"/>
<path d="M172.365 218.811L196.755 220.627L191.559 229.11L164.744 225.858L172.365 218.811Z" fill="#3A3768"/>
<path d="M172.998 219.747L194.413 221.229L189.853 228.174L166.305 225.51L172.998 219.747Z" fill="#D5E1F4"/>
<path opacity="0.1" d="M419.277 458.5C436.094 458.5 449.727 455.985 449.727 452.883C449.727 449.78 436.094 447.265 419.277 447.265C402.459 447.265 388.826 449.78 388.826 452.883C388.826 455.985 402.459 458.5 419.277 458.5Z" fill="#6C63FF"/>
<path d="M436.544 320.866C436.544 320.866 439.98 326.121 434.953 334.058C429.926 341.994 425.795 348.702 427.458 353.636C427.458 353.636 435.045 338.896 441.214 338.693C447.384 338.49 443.349 329.715 436.544 320.866Z" fill="#AF7A8D"/>
<path opacity="0.1" d="M436.457 320.866C436.758 321.374 436.996 321.927 437.164 322.511C443.256 330.785 446.503 338.502 440.649 338.693C435.195 338.873 428.654 350.138 427.084 352.989C427.137 353.208 427.198 353.424 427.27 353.636C427.27 353.636 434.941 338.896 441.18 338.693C447.419 338.49 443.339 329.715 436.457 320.866Z" fill="black"/>
<path d="M442.7 327.706C442.7 329.597 442.525 331.165 442.312 331.165C442.099 331.165 441.919 329.626 441.919 327.706C441.919 325.786 442.137 326.703 442.354 326.703C442.572 326.703 442.7 325.815 442.7 327.706Z" fill="#FFD037"/>
<path d="M444.883 329.773C443.365 330.762 442.037 331.36 441.927 331.108C441.816 330.856 442.949 329.849 444.467 328.861C445.984 327.872 445.389 328.596 445.521 328.861C445.652 329.125 446.406 328.785 444.883 329.773Z" fill="#FFD037"/>
<path d="M418.409 320.866C418.409 320.866 414.967 326.121 419.995 334.058C425.023 341.994 429.154 348.702 427.491 353.636C427.491 353.636 419.908 338.896 413.733 338.693C407.558 338.49 411.617 329.715 418.409 320.866Z" fill="#AF7A8D"/>
<path d="M412.25 327.706C412.25 329.597 412.421 331.165 412.64 331.165C412.859 331.165 413.03 329.626 413.03 327.706C413.03 325.786 412.811 326.703 412.597 326.703C412.383 326.703 412.25 325.815 412.25 327.706Z" fill="#FFD037"/>
<path d="M410.065 329.773C411.586 330.762 412.907 331.36 413.022 331.108C413.138 330.856 411.97 329.849 410.481 328.861C408.992 327.872 409.565 328.596 409.428 328.861C409.292 329.125 408.55 328.785 410.065 329.773Z" fill="#FFD037"/>
<path opacity="0.1" d="M427.475 394.833C447.095 394.833 463 391.899 463 388.279C463 384.659 447.095 381.725 427.475 381.725C407.855 381.725 391.949 384.659 391.949 388.279C391.949 391.899 407.855 394.833 427.475 394.833Z" fill="#6C63FF"/>
<path d="M445.815 346.756L445.643 348.419L445.404 350.759L445.304 351.739L445.065 354.079L444.965 355.058L444.726 357.399L441.999 384.048C441.755 386.428 438.492 388.279 434.556 388.279H420.388C416.452 388.279 413.199 386.428 412.956 384.048L410.223 357.399L409.984 355.058L409.884 354.079L409.64 351.739L409.54 350.759L409.301 348.419L409.134 346.756C408.996 345.412 410.758 344.273 412.984 344.273H441.965C444.177 344.273 445.954 345.412 445.815 346.756Z" fill="#65617D"/>
<path d="M445.823 348.019L445.582 350.827H409.368L409.126 348.019H445.823Z" fill="#9D9CB5"/>
<path d="M445.042 351.764L444.807 353.636H410.147L409.907 351.764H445.042Z" fill="#9D9CB5"/>
<path d="M445.042 354.573L444.802 357.381H410.147L409.907 354.573H445.042Z" fill="#9D9CB5"/>
<defs>
<linearGradient id="paint0_linear" x1="10.1501" y1="182.296" x2="455.192" y2="182.296" gradientUnits="userSpaceOnUse">
<stop stop-color="#FF512F"/>
<stop offset="1" stop-color="#F09819"/>
</linearGradient>
</defs>
</svg>
