<svg width="130" height="130" viewBox="0 0 130 130" fill="none" xmlns="http://www.w3.org/2000/svg">
<g clip-path="url(#clip0)">
<path d="M0.411286 11.9252L9.08125 27.0967C9.37369 27.6094 9.86318 27.9803 10.4356 28.1239L18.5242 30.146L46.2665 57.8883L49.3318 54.8239L21.1554 26.6483C20.8781 26.3701 20.5303 26.173 20.1496 26.0776L12.3775 24.1277L4.99592 11.203L11.3245 4.8744L24.2546 12.2631L26.2054 20.0352C26.2999 20.4168 26.4979 20.7655 26.7751 21.0428L54.9516 49.2192L58.0161 46.1539L30.2738 18.4116L28.2516 10.3275C28.1081 9.75415 27.7372 9.26377 27.2245 8.97043L12.0521 0.301359C11.2059 -0.180107 10.1414 -0.0374507 9.45126 0.649976L0.782193 9.31994C0.0849584 10.0056 -0.0666143 11.0719 0.411286 11.9252Z" fill="#FF512F"/>
<path d="M90.5213 42.7158L42.8392 90.3988L39.7739 87.3335L87.4569 39.6514L90.5213 42.7158Z" fill="#FF512F"/>
<path d="M34.4938 92.0856C34.1015 91.433 33.3971 91.0344 32.6357 91.0344H19.6317C18.8711 91.0344 18.1659 91.433 17.7745 92.0856L11.272 102.922C10.8592 103.609 10.8592 104.467 11.272 105.155L17.7745 115.991C18.1659 116.643 18.8711 117.043 19.6317 117.043H32.6357C33.3971 117.043 34.1015 116.643 34.4938 115.991L40.9954 105.155C41.4082 104.467 41.4082 103.609 40.9954 102.922L34.4938 92.0856ZM31.4098 112.708H20.8585L15.6569 104.038L20.8585 95.3685H31.4098L36.6114 104.038L31.4098 112.708Z" fill="#FF512F"/>
<path d="M104.159 52.0215C118.474 52.0697 130.118 40.5038 130.167 26.189C130.174 24.01 129.906 21.8398 129.37 19.7276C129.081 18.5658 127.905 17.8588 126.744 18.1477C126.362 18.2431 126.014 18.4401 125.736 18.7174L112.244 32.2002L101.54 28.6329L97.9698 17.931L111.462 4.43657C112.308 3.58955 112.307 2.21737 111.46 1.37124C111.181 1.09217 110.829 0.894229 110.445 0.799719C96.5628 -2.71588 82.4603 5.68749 78.9447 19.5689C78.4107 21.6749 78.1441 23.8397 78.1512 26.0125C78.1565 27.719 78.3322 29.4202 78.6781 31.0911L31.2118 78.5565C29.5409 78.2115 27.8398 78.0359 26.1341 78.0296C11.7695 78.0296 0.125122 89.674 0.125122 104.039C0.125122 118.402 11.7695 130.047 26.1341 130.047C40.4979 130.047 52.1422 118.402 52.1422 104.039C52.1369 102.332 51.9603 100.631 51.6153 98.96L62.9788 87.5965L67.9486 92.5663C68.7956 93.4125 70.1669 93.4125 71.0139 92.5663L72.0972 91.4821C73.0477 90.5379 74.5839 90.5379 75.5343 91.4821C76.4839 92.429 76.4857 93.9661 75.5388 94.9157C75.5379 94.9166 75.5361 94.9184 75.5343 94.9202L74.451 96.0035C73.6049 96.8496 73.6049 98.2218 74.451 99.0679L100.306 124.923C107.106 131.785 118.182 131.835 125.044 125.035C131.906 118.235 131.956 107.158 125.156 100.297C125.119 100.259 125.082 100.222 125.044 100.184L99.1895 74.3303C98.3434 73.4842 96.9712 73.4842 96.1251 74.3303L95.0418 75.4136C94.0904 76.3587 92.5551 76.3587 91.6037 75.4136C90.6551 74.4668 90.6524 72.9296 91.5993 71.981C91.6011 71.9792 91.6028 71.9783 91.6037 71.9765L92.6879 70.8923C93.534 70.0462 93.534 68.674 92.6879 67.8279L87.7181 62.8581L99.0816 51.4946C100.752 51.8396 102.454 52.0162 104.159 52.0215ZM112.675 125.713C111.1 125.71 109.539 125.426 108.065 124.872L124.993 107.944C127.547 114.739 124.11 122.317 117.315 124.872C115.832 125.429 114.26 125.714 112.675 125.713ZM88.1211 69.3819C85.7209 72.2449 86.0972 76.5121 88.9601 78.9114C91.4762 81.0201 95.1434 81.0183 97.6568 78.9052L121.98 103.25C122.244 103.514 122.491 103.793 122.73 104.077L104.199 122.608C103.914 122.37 103.635 122.123 103.37 121.858L79.0285 97.5147C81.4287 94.6518 81.0525 90.3846 78.1895 87.9853C75.6734 85.8757 72.0054 85.8784 69.4919 87.9906L66.0245 84.5232L84.6528 65.9225L88.1211 69.3819ZM96.8731 47.5831L47.7056 96.7408C47.1662 97.2794 46.9495 98.0613 47.1332 98.8004C50.1067 110.478 43.0505 122.355 31.3723 125.327C19.6949 128.301 7.81788 121.245 4.84438 109.567C1.87177 97.8892 8.92793 86.0121 20.6062 83.0386C24.1387 82.1399 27.8398 82.1399 31.3723 83.0386C32.1114 83.2196 32.8916 83.003 33.4319 82.4671L82.5878 33.3085C83.1264 32.77 83.343 31.988 83.1576 31.2498C80.2046 19.7089 87.1662 7.9593 98.7071 5.00542C100.888 4.44816 103.144 4.23418 105.391 4.37416L93.9576 15.8117C93.3771 16.3912 93.1738 17.2498 93.4333 18.0282L97.7674 31.0331C97.984 31.6796 98.4923 32.1878 99.1396 32.4026L112.145 36.7376C112.922 36.9971 113.781 36.7947 114.361 36.2151L125.794 24.7821C125.82 25.1958 125.833 25.605 125.833 26.0125C125.894 37.9217 116.29 47.625 104.38 47.6865C102.539 47.6954 100.704 47.469 98.9211 47.0125C98.182 46.8279 97.4 47.0437 96.8615 47.5822H96.8731V47.5831Z" fill="#FF512F"/>
<path d="M112.196 109.008L109.131 112.073L87.4578 90.3998L90.5222 87.3345L112.196 109.008Z" fill="#FF512F"/>
</g>
<defs>
<clipPath id="clip0">
<rect width="130" height="130" fill="white"/>
</clipPath>
</defs>
</svg>
