<svg width="130" height="130" viewBox="0 0 130 130" fill="none" xmlns="http://www.w3.org/2000/svg">
<path d="M18.2812 115.781H22.3438V119.844H18.2812V115.781Z" fill="#FE572E"/>
<path d="M26.4062 115.781H30.4688V119.844H26.4062V115.781Z" fill="#FE572E"/>
<path d="M10.1562 115.781H14.2188V119.844H10.1562V115.781Z" fill="#FE572E"/>
<path d="M10.1562 107.656H30.4688V111.719H10.1562V107.656Z" fill="#FE572E"/>
<path d="M125.03 100.868L106.104 91.4062H95.2453C97.4269 89.2714 98.9138 86.4439 99.3708 83.2812H99.5312C102.891 83.2812 105.625 80.5472 105.625 77.1875C105.625 74.5327 103.907 72.2922 101.532 71.4594L111.839 59.0911C117.002 52.8958 119.844 45.045 119.844 36.983V36.5625C119.844 17.5216 104.353 2.03125 85.3125 2.03125C66.5702 2.03125 51.3012 17.0483 50.8259 35.6769L37.7528 48.75H34.5312V36.5625H30.4688V48.75H26.4062V32.5H22.3438V48.75H18.2812V40.625H14.2188V48.75H10.1562V32.5H6.09375V48.75H2.03125V52.8125H39.4347L51.0697 41.1775C51.8761 47.7323 54.5248 53.9784 58.7844 59.0891L69.0909 71.4573C66.7184 72.2922 65 74.5327 65 77.1875C65 80.5472 67.7341 83.2812 71.0938 83.2812H71.2563C71.7113 86.4439 73.1981 89.2714 75.3817 91.4062H62.9688V81.25C62.9688 77.8903 60.2347 75.1562 56.875 75.1562H8.125C4.76531 75.1562 2.03125 77.8903 2.03125 81.25V121.875C2.03125 125.235 4.76531 127.969 8.125 127.969H56.875C60.2347 127.969 62.9688 125.235 62.9688 121.875V119.844H106.104L125.027 110.382C126.841 109.476 127.969 107.654 127.969 105.625C127.969 103.596 126.841 101.774 125.03 100.868V100.868ZM54.8438 36.983V36.5625C54.8438 19.762 68.512 6.09375 85.3125 6.09375C102.113 6.09375 115.781 19.762 115.781 36.5625V36.983C115.781 44.0964 113.273 51.023 108.719 56.4891L96.5494 71.0938H94.1484L108.715 23.2355L93.8052 28.2059L85.3125 21.8359L76.8198 28.2059L61.9105 23.2355L76.4786 71.0938H74.0777L61.9064 56.4891C57.3523 51.023 54.8438 44.0964 54.8438 36.983ZM83.2812 36.5625V71.0938H80.7239L68.0895 29.577L77.5552 32.7316L85.3125 26.9141L93.0698 32.7316L102.535 29.577L89.9011 71.0938H87.3438V36.5625H83.2812ZM69.0625 77.1875C69.0625 76.0683 69.9745 75.1562 71.0938 75.1562H99.5312C100.65 75.1562 101.562 76.0683 101.562 77.1875C101.562 78.3067 100.65 79.2188 99.5312 79.2188H71.0938C69.9745 79.2188 69.0625 78.3067 69.0625 77.1875ZM75.3614 83.2812H95.2636C94.3191 87.9105 90.218 91.4062 85.3125 91.4062C80.407 91.4062 76.3059 87.9105 75.3614 83.2812ZM103.594 95.4688V103.594H62.9688V95.4688H103.594ZM34.5312 83.2812V87.3438H30.4688V83.2812H26.4062V87.3438H22.3438V79.2188H42.6562V87.3438H38.5938V83.2812H34.5312ZM58.9062 121.875C58.9062 122.994 57.9942 123.906 56.875 123.906H8.125C7.00578 123.906 6.09375 122.994 6.09375 121.875V81.25C6.09375 80.1308 7.00578 79.2188 8.125 79.2188H18.2812V91.4062H46.7188V79.2188H56.875C57.9942 79.2188 58.9062 80.1308 58.9062 81.25V121.875ZM62.9688 107.656H103.594V115.781H62.9688V107.656ZM123.212 106.748L107.656 114.526V96.7241L123.214 104.502C123.64 104.717 123.906 105.146 123.906 105.625C123.906 106.104 123.64 106.533 123.212 106.748V106.748Z" fill="#FE572E"/>
</svg>
