<svg width="130" height="130" viewBox="0 0 130 130" fill="none" xmlns="http://www.w3.org/2000/svg">
<path d="M127.834 5.6725e-08C127.834 5.6725e-08 127.834 5.6725e-08 127.833 5.6725e-08H2.16667C0.970396 -0.000270777 0.000270833 0.969313 0 2.16558C0 2.16585 0 2.1664 0 2.16667V45.5H4.33333V4.33333H125.667V52H49.8333V56.3333H127.833C129.03 56.3336 130 55.364 130 54.1678C130 54.1675 130 54.1669 130 54.1667V2.16667C130 0.970396 129.031 0.00027089 127.834 5.6725e-08Z" fill="white"/>
<path d="M114.833 10.8333H71.5V15.1666H114.833V10.8333Z" fill="white"/>
<path d="M121.333 23.8333H78V28.1666H121.333V23.8333Z" fill="white"/>
<path d="M112.667 36.8333H69.3333V41.1666H112.667V36.8333Z" fill="white"/>
<path d="M69.1605 18.6805C67.6772 15.115 63.5843 13.4272 60.0191 14.9105C59.9582 14.936 59.8975 14.962 59.8374 14.9891L42.269 24.1026C42.9617 22.6667 43.3255 21.0942 43.3333 19.5001C43.3333 13.5171 38.483 8.66675 32.5 8.66675C26.517 8.66675 21.6667 13.5171 21.6667 19.5001C21.6748 21.8517 22.4556 24.1357 23.8888 26.0001H23.7987C17.6486 26.0412 12.1585 29.8646 9.98724 35.619L4.20333 55.5548C2.82641 59.1314 4.60958 63.1473 8.18647 64.5242C9.81743 65.152 11.6252 65.1415 13.2489 64.4944C15.1144 63.7429 16.5661 62.2251 17.2342 60.3282L19.5 53.1173V84.4752C17.6356 83.0422 15.3516 82.2614 13 82.253C7.02595 82.244 2.1756 87.0798 2.16666 93.0541C2.16233 95.9799 3.34316 98.7825 5.44022 100.823C2.11222 102.523 0.0129924 105.94 -7.57267e-06 109.677V127.833C-0.000278406 129.03 0.969305 130 2.16558 130H2.16666H23.8333C25.0296 130 25.9997 129.031 26 127.835V127.833V109.677C25.9894 106.606 24.5627 103.712 22.1336 101.833H38.5333C36.104 103.712 34.6772 106.606 34.6669 109.677V127.833C34.6667 129.03 35.6362 130 36.8325 130H36.8336H58.5003C59.6965 130 60.6667 129.031 60.6669 127.835V127.833V109.677C60.6539 105.94 58.5547 102.523 55.2267 100.823C59.5045 96.6475 59.5877 89.7946 55.4122 85.5168C52.8409 82.8824 49.107 81.7354 45.5003 82.4721V38.1494L65.3905 27.8217C68.9558 26.3386 70.6436 22.2458 69.1605 18.6805ZM32.5 13.0001C36.0899 13.0001 39 15.9102 39 19.5001C39 23.09 36.0899 26.0001 32.5 26.0001C28.9117 25.9963 26.0038 23.0884 26 19.5001C26 15.9102 28.9101 13.0001 32.5 13.0001ZM13 86.5863C16.5899 86.5863 19.5 89.4964 19.5 93.0863C19.5 96.6762 16.5899 99.5863 13 99.5863C9.4101 99.5863 6.49999 96.6762 6.49999 93.0863C6.50378 89.498 9.41172 86.5904 13 86.5863ZM21.6667 125.667H4.33333V109.677C4.33766 106.543 6.87726 104.004 10.0113 104H15.9886C19.1225 104.004 21.6623 106.543 21.6667 109.677V125.667ZM56.3333 109.677V125.667H39V109.677C39.0043 106.543 41.5439 104.004 44.678 104H50.6553C53.7894 104.004 56.329 106.543 56.3333 109.677ZM47.6667 86.5863C51.2549 86.5901 54.1629 89.498 54.1667 93.0863C54.1667 96.6762 51.2566 99.5863 47.6667 99.5863C44.0768 99.5863 41.1667 96.6762 41.1667 93.0863C41.1667 89.4964 44.0768 86.5863 47.6667 86.5863ZM65.1958 22.2951C64.9057 23.0393 64.3102 23.6235 63.5602 23.899L42.3358 34.91C41.6176 35.2826 41.1667 36.0244 41.1667 36.8334V84.4752C37.1082 87.476 35.7023 92.907 37.7953 97.5001H34.6667V60.6667H30.3333V97.5001H22.8713C23.4877 96.1378 23.8125 94.6618 23.8252 93.1667H23.8333V39.0001C23.8331 37.8033 22.8627 36.8334 21.6661 36.8337C20.7201 36.834 19.8835 37.4479 19.5997 38.3506L13.13 58.938C12.6398 60.29 11.1461 60.9888 9.79414 60.4983C9.69935 60.4639 9.60645 60.4241 9.51599 60.3789C8.2661 59.7329 7.73553 58.2249 8.30591 56.9385L14.0896 37.0027C15.6493 32.9971 19.4997 30.3521 23.7984 30.3334H39.1397C39.487 30.334 39.8293 30.2503 40.1375 30.0902L61.672 18.9121C62.9639 18.3731 64.4529 18.9246 65.0818 20.1753C65.4152 20.8345 65.4566 21.6036 65.1958 22.2951Z" fill="white"/>
</svg>
