<svg width="126" height="126" viewBox="0 0 126 126" fill="none" xmlns="http://www.w3.org/2000/svg">
<path d="M16.2812 113.781H20.3438V117.844H16.2812V113.781Z" fill="#FF6749"/>
<path d="M24.4062 113.781H28.4688V117.844H24.4062V113.781Z" fill="#FF6749"/>
<path d="M8.15625 113.781H12.2188V117.844H8.15625V113.781Z" fill="#FF6749"/>
<path d="M8.15625 105.656H28.4688V109.719H8.15625V105.656Z" fill="#FF6749"/>
<path d="M123.03 98.8678L104.104 89.4062H93.2453C95.4269 87.2714 96.9138 84.4439 97.3708 81.2812H97.5312C100.891 81.2812 103.625 78.5472 103.625 75.1875C103.625 72.5327 101.907 70.2922 99.532 69.4594L109.839 57.0911C115.002 50.8958 117.844 43.045 117.844 34.983V34.5625C117.844 15.5216 102.353 0.03125 83.3125 0.03125C64.5702 0.03125 49.3012 15.0483 48.8259 33.6769L35.7528 46.75H32.5312V34.5625H28.4688V46.75H24.4062V30.5H20.3438V46.75H16.2812V38.625H12.2188V46.75H8.15625V30.5H4.09375V46.75H0.03125V50.8125H37.4347L49.0697 39.1775C49.8761 45.7323 52.5248 51.9784 56.7844 57.0891L67.0909 69.4573C64.7184 70.2922 63 72.5327 63 75.1875C63 78.5472 65.7341 81.2812 69.0938 81.2812H69.2563C69.7113 84.4439 71.1981 87.2714 73.3817 89.4062H60.9688V79.25C60.9688 75.8903 58.2347 73.1562 54.875 73.1562H6.125C2.76531 73.1562 0.03125 75.8903 0.03125 79.25V119.875C0.03125 123.235 2.76531 125.969 6.125 125.969H54.875C58.2347 125.969 60.9688 123.235 60.9688 119.875V117.844H104.104L123.027 108.382C124.841 107.476 125.969 105.654 125.969 103.625C125.969 101.596 124.841 99.7738 123.03 98.8678V98.8678ZM52.8438 34.983V34.5625C52.8438 17.762 66.512 4.09375 83.3125 4.09375C100.113 4.09375 113.781 17.762 113.781 34.5625V34.983C113.781 42.0964 111.273 49.023 106.719 54.4891L94.5494 69.0938H92.1484L106.715 21.2355L91.8052 26.2059L83.3125 19.8359L74.8198 26.2059L59.9105 21.2355L74.4786 69.0938H72.0777L59.9064 54.4891C55.3523 49.023 52.8438 42.0964 52.8438 34.983ZM81.2812 34.5625V69.0938H78.7239L66.0895 27.577L75.5552 30.7316L83.3125 24.9141L91.0698 30.7316L100.535 27.577L87.9011 69.0938H85.3438V34.5625H81.2812ZM67.0625 75.1875C67.0625 74.0683 67.9745 73.1562 69.0938 73.1562H97.5312C98.6505 73.1562 99.5625 74.0683 99.5625 75.1875C99.5625 76.3067 98.6505 77.2188 97.5312 77.2188H69.0938C67.9745 77.2188 67.0625 76.3067 67.0625 75.1875ZM73.3614 81.2812H93.2636C92.3191 85.9105 88.218 89.4062 83.3125 89.4062C78.407 89.4062 74.3059 85.9105 73.3614 81.2812ZM101.594 93.4688V101.594H60.9688V93.4688H101.594ZM32.5312 81.2812V85.3438H28.4688V81.2812H24.4062V85.3438H20.3438V77.2188H40.6562V85.3438H36.5938V81.2812H32.5312ZM56.9062 119.875C56.9062 120.994 55.9942 121.906 54.875 121.906H6.125C5.00578 121.906 4.09375 120.994 4.09375 119.875V79.25C4.09375 78.1308 5.00578 77.2188 6.125 77.2188H16.2812V89.4062H44.7188V77.2188H54.875C55.9942 77.2188 56.9062 78.1308 56.9062 79.25V119.875ZM60.9688 105.656H101.594V113.781H60.9688V105.656ZM121.212 104.748L105.656 112.526V94.7241L121.214 102.502C121.64 102.717 121.906 103.146 121.906 103.625C121.906 104.104 121.64 104.533 121.212 104.748V104.748Z" fill="#FF6749"/>
</svg>
