<svg width="130" height="130" viewBox="0 0 130 130" fill="none" xmlns="http://www.w3.org/2000/svg">
<path d="M34.7762 81.8172C35.9902 81.117 36.4058 79.5628 35.7056 78.3488C35.0043 77.1358 33.4512 76.7192 32.2372 77.4195C31.0232 78.1207 30.6066 79.6749 31.3078 80.8879C32.0081 82.1019 33.5622 82.5184 34.7762 81.8172Z" fill="#FF512F"/>
<path d="M24.371 99.3416L37.1576 121.49C39.9168 126.275 46.1236 128.046 51.0322 125.208C55.8891 122.401 57.5583 116.196 54.7485 111.335L47.1313 98.1396L53.7279 94.331C54.9419 93.6288 55.3585 92.0766 54.6573 90.8626L51.3555 85.1437C51.7493 85.0674 54.3379 84.5595 99.9885 75.6044C105.632 75.2979 109.013 69.1258 106.163 64.1915L97.7241 49.576L103.117 41.4084C103.646 40.605 103.678 39.5725 103.197 38.7394L98.1189 29.9439C97.6378 29.1108 96.7244 28.6228 95.7673 28.6793L85.9988 29.2655L76.6311 13.0393C75.2743 10.6887 72.8433 9.26543 70.1297 9.2317C70.097 9.23071 70.0652 9.23071 70.0325 9.23071C67.4101 9.23071 65.0297 10.5359 63.6194 12.7428L30.4509 54.9963L8.8877 67.4457C0.406636 72.3403 -2.53114 83.2206 2.38234 91.7245C6.87133 99.5003 16.3353 102.559 24.371 99.3416ZM50.3518 113.875C51.7542 116.301 50.9241 119.405 48.4911 120.811C46.0502 122.222 42.9419 121.355 41.5553 118.952L28.86 96.9603L37.6555 91.8822C52.3483 117.334 50.1157 113.467 50.3518 113.875ZM44.5923 93.7408L42.0532 89.3431L46.4509 86.804L48.99 91.2018L44.5923 93.7408ZM94.5057 33.8418L98.0147 39.9196L94.8855 44.6586L88.8374 34.182L94.5057 33.8418ZM67.8663 15.5268C68.5477 14.412 69.6288 14.2969 70.0672 14.3088C70.5006 14.3138 71.5807 14.4487 72.2323 15.5774L101.765 66.7306C102.727 68.3958 101.558 70.4896 99.6284 70.5372C99.2823 70.5451 99.1226 70.6076 98.2359 70.7732L66.9965 16.6644C67.6521 15.8214 67.7364 15.74 67.8663 15.5268ZM63.6174 20.9689L92.9684 71.8067L48.6716 80.4951L35.2027 57.1664L63.6174 20.9689ZM6.78008 89.1854C5.66527 87.2563 5.07613 85.0664 5.07613 82.8506C5.07613 78.322 7.51006 74.1048 11.4268 71.8434L31.2166 60.4176L43.9119 82.4063L24.1221 93.8331C18.0591 97.3322 10.2802 95.2474 6.78008 89.1854Z" fill="#FF512F"/>
<path d="M26.9101 83.4269C26.2089 82.2129 24.6557 81.7963 23.4417 82.4975L19.044 85.0366C17.8319 85.7368 16.2758 85.3193 15.5756 84.1073C14.8743 82.8933 13.3211 82.4767 12.1072 83.1779C10.8932 83.8791 10.4766 85.4323 11.1778 86.6463C13.2676 90.2665 17.9291 91.5429 21.583 89.4343L25.9808 86.8953C27.1947 86.194 27.6113 84.6418 26.9101 83.4269Z" fill="#FF512F"/>
<path d="M126.226 14.662L112.078 22.5351C110.853 23.2175 110.412 24.7637 111.094 25.9886C111.774 27.2125 113.32 27.6559 114.547 26.9725L128.695 19.0995C129.921 18.4171 130.361 16.8708 129.679 15.6459C128.997 14.42 127.451 13.9797 126.226 14.662Z" fill="#FF512F"/>
<path d="M124.742 40.9592L114.932 38.3309C113.577 37.9679 112.185 38.7712 111.822 40.1261C111.459 41.4809 112.263 42.8724 113.618 43.2354L123.429 45.8637C124.792 46.2297 126.178 45.4135 126.539 44.0685C126.902 42.7137 126.097 41.3212 124.742 40.9592Z" fill="#FF512F"/>
<path d="M100.09 5.43709L97.4583 15.2482C97.0953 16.603 97.8987 17.9945 99.2535 18.3585C100.607 18.7206 102 17.9192 102.364 16.5633L104.994 6.75224C105.357 5.39742 104.554 4.0049 103.199 3.64189C101.845 3.27889 100.453 4.08226 100.09 5.43709Z" fill="#FF512F"/>
</svg>
