<svg width="130" height="130" viewBox="0 0 130 130" fill="none" xmlns="http://www.w3.org/2000/svg">
<path d="M0.00892639 48.025C0.00991821 48.0061 0.01091 47.9883 0.0128937 47.9694C0.016861 47.9317 0.0238037 47.8951 0.0297546 47.8574C0.0347137 47.8316 0.0376892 47.8048 0.0426483 47.78C0.0485992 47.7542 0.055542 47.7304 0.0614929 47.7056C0.0714111 47.6689 0.0793457 47.6332 0.0912476 47.5975C0.094223 47.5866 0.0991821 47.5767 0.102158 47.5658C0.138855 47.4596 0.182495 47.3575 0.235062 47.2603C0.240021 47.2504 0.246964 47.2414 0.251923 47.2325C0.276718 47.1899 0.301514 47.1472 0.329285 47.1066C0.357056 47.0639 0.388794 47.0232 0.421524 46.9826C0.426483 46.9766 0.431442 46.9687 0.436401 46.9627C0.507812 46.8764 0.587158 46.7971 0.673447 46.7237C0.681381 46.7168 0.688324 46.7098 0.696259 46.7029C0.725021 46.6801 0.755768 46.6582 0.785522 46.6364C0.806351 46.6206 0.826187 46.6047 0.848007 46.5908C0.868835 46.5769 0.891647 46.564 0.913467 46.5511C0.946198 46.5303 0.978928 46.5105 1.01364 46.4916C1.02951 46.4837 1.04538 46.4767 1.06125 46.4688C1.1039 46.448 1.14555 46.4281 1.18919 46.4103C1.19217 46.4083 1.19514 46.4073 1.19911 46.4053L63.0967 21.6465V17.946L47.5063 12.1002C46.7634 11.8215 46.2704 11.1114 46.2704 10.3169C46.2704 9.52347 46.7634 8.81332 47.5063 8.53462L63.0967 2.68784V1.9043C63.0967 0.852966 63.9487 0 65.001 0C66.0523 0 66.9053 0.852966 66.9053 1.9043V21.6465L128.803 46.4063C128.807 46.4073 128.81 46.4093 128.814 46.4113C128.855 46.4281 128.897 46.448 128.938 46.4678C128.955 46.4767 128.972 46.4837 128.989 46.4926C129.022 46.5105 129.054 46.5303 129.086 46.5491C129.108 46.563 129.132 46.5759 129.155 46.5908C129.174 46.6047 129.193 46.6196 129.212 46.6335C129.244 46.6563 129.276 46.6791 129.306 46.7039C129.313 46.7088 129.318 46.7148 129.325 46.7197C129.412 46.7941 129.493 46.8755 129.565 46.9627C129.57 46.9677 129.574 46.9736 129.577 46.9796C129.611 47.0203 129.643 47.0629 129.673 47.1066C129.7 47.1472 129.725 47.1899 129.75 47.2325C129.755 47.2424 129.761 47.2514 129.767 47.2603C129.82 47.3595 129.865 47.4636 129.901 47.5717C129.904 47.5797 129.908 47.5886 129.911 47.5975C129.923 47.6332 129.932 47.6719 129.94 47.7086C129.946 47.7324 129.953 47.7562 129.958 47.779C129.964 47.8058 129.967 47.8336 129.972 47.8603C129.978 47.896 129.985 47.9327 129.988 47.9694C129.991 47.9883 129.991 48.0091 129.993 48.0289C129.996 48.0736 129.999 48.1172 129.999 48.1618C129.999 48.1658 130 48.1698 130 48.1738V64.999C130 65.0179 129.998 65.0357 129.997 65.0546C129.996 65.0893 129.995 65.124 129.992 65.1587C129.989 65.1875 129.986 65.2172 129.982 65.246C129.978 65.2787 129.973 65.3104 129.967 65.3422C129.961 65.3729 129.955 65.4027 129.948 65.4324C129.941 65.4632 129.934 65.4929 129.925 65.5227C129.917 65.5534 129.907 65.5822 129.897 65.612C129.887 65.6407 129.877 65.6705 129.865 65.6992C129.854 65.728 129.842 65.7558 129.829 65.7845C129.817 65.8123 129.803 65.8411 129.788 65.8688C129.774 65.8966 129.759 65.9234 129.744 65.9502C129.728 65.9769 129.712 66.0027 129.696 66.0295C129.678 66.0563 129.66 66.0831 129.641 66.1089C129.624 66.1327 129.606 66.1565 129.587 66.1803C129.566 66.207 129.544 66.2338 129.521 66.2596C129.508 66.2735 129.497 66.2884 129.485 66.3023L121.598 74.7149C121.238 75.0987 120.735 75.3169 120.209 75.3169C119.682 75.3169 119.179 75.0987 118.819 74.7149L118.432 74.3023V126.191H118.631C119.683 126.191 120.535 127.044 120.535 128.096C120.535 129.147 119.683 130 118.631 130H106.012C104.96 130 104.108 129.147 104.108 128.096C104.108 127.044 104.96 126.191 106.012 126.191H106.21V74.3023L105.824 74.7149C105.464 75.0987 104.961 75.3169 104.435 75.3169C103.908 75.3169 103.405 75.0987 103.045 74.7149L96.5479 67.784L90.0504 74.7149C89.6904 75.0987 89.1875 75.3169 88.6609 75.3169C88.1352 75.3169 87.6324 75.0987 87.2723 74.7149L80.7739 67.784L74.2765 74.7149C73.9165 75.0987 73.4136 75.3169 72.887 75.3169C72.3613 75.3169 71.8584 75.0987 71.4984 74.7149L65.001 67.784L58.5036 74.7149C58.1435 75.0987 57.6407 75.3169 57.114 75.3169C56.5874 75.3169 56.0845 75.0987 55.7245 74.7149L49.2271 67.784L42.7296 74.7149C42.3696 75.0987 41.8668 75.3169 41.3401 75.3169C40.8134 75.3169 40.3106 75.0987 39.9506 74.7149L33.4531 67.785L26.9557 74.7149C26.5957 75.0997 26.0928 75.3169 25.5662 75.3169C25.0395 75.3169 24.5367 75.0997 24.1766 74.7159L23.7898 74.3033V126.191H23.9882C25.0405 126.191 25.8925 127.044 25.8925 128.096C25.8925 129.147 25.0405 130 23.9882 130H11.3692C10.3179 130 9.46495 129.147 9.46495 128.096C9.46495 127.044 10.3179 126.191 11.3692 126.191H11.5676V74.3033L11.1818 74.7149C10.8218 75.0987 10.3189 75.3169 9.79225 75.3169C9.26559 75.3169 8.76274 75.0987 8.40271 74.7149L0.515747 66.3023C0.502853 66.2894 0.492935 66.2745 0.480042 66.2616C0.45723 66.2348 0.433426 66.208 0.411606 66.1793C0.393753 66.1575 0.376892 66.1346 0.360031 66.1108C0.341187 66.0841 0.32135 66.0563 0.303497 66.0285C0.287628 66.0037 0.271759 65.9779 0.257874 65.9531C0.241013 65.9244 0.225143 65.8956 0.210266 65.8669C0.197372 65.8411 0.184479 65.8143 0.172577 65.7875C0.158691 65.7578 0.145798 65.728 0.133896 65.6973C0.122986 65.6705 0.113068 65.6427 0.104141 65.6159C0.0932312 65.5842 0.083313 65.5524 0.0733948 65.5207C0.066452 65.4929 0.0585175 65.4652 0.0525665 65.4374C0.044632 65.4047 0.0376892 65.3729 0.0317383 65.3392C0.0267792 65.3104 0.0228119 65.2807 0.0188446 65.2519C0.0138855 65.2202 0.00991821 65.1875 0.00793457 65.1557C0.00495911 65.124 0.00396729 65.0922 0.00297546 65.0615C0.00198364 65.0407 0 65.0208 0 65V48.1747C0 48.1708 0.000991821 48.1668 0.000991821 48.1638C0.00198364 48.1172 0.00495911 48.0706 0.00892639 48.025ZM53.599 10.3169L63.0967 13.8786V6.75529L53.599 10.3169ZM65.001 29.0465C63.9487 29.0465 63.0967 28.1935 63.0967 27.1422V25.7487L11.7937 46.2704H94.5384C95.5898 46.2704 96.4427 47.1224 96.4427 48.1747C96.4427 49.2261 95.5898 50.079 94.5384 50.079H3.80959V63.0947H126.191V50.079H102.41C101.358 50.079 100.505 49.2261 100.505 48.1747C100.505 47.1224 101.358 46.2704 102.41 46.2704H118.208L66.9053 25.7477V27.1422C66.9053 28.1935 66.0523 29.0465 65.001 29.0465ZM120.209 70.6276L123.701 66.9033H116.718L120.209 70.6276ZM110.02 126.191H114.625V70.2398L112.322 67.784L110.02 70.2398V126.191ZM104.436 70.6276L107.927 66.9033H100.944L104.436 70.6276ZM88.6619 70.6276L92.1531 66.9033H85.1697L88.6619 70.6276ZM72.888 70.6276L76.3792 66.9033H69.3967L72.888 70.6276ZM57.114 70.6276L60.6052 66.9033H53.6228L57.114 70.6276ZM41.3401 70.6276L44.8323 66.9033H37.8489L41.3401 70.6276ZM25.5662 70.6276L29.0584 66.9033H22.075L25.5662 70.6276ZM15.3772 126.191H19.9822V70.2398L17.6802 67.784L15.3772 70.2408V126.191ZM9.79324 70.6276L13.2845 66.9033H6.30104L9.79324 70.6276Z" fill="#FF512F"/>
</svg>
